<?xml version="1.0" encoding="UTF-8"?><svg id="logos" xmlns="http://www.w3.org/2000/svg" viewBox="0 0 500 400"><defs><style>.cls-1{fill:blue;}</style></defs><path class="cls-1" d="M422.69,180.42c-.11-.25-.27-.46-.46-.64-.19-.18-.41-.31-.67-.41-.25-.1-.52-.14-.79-.14s-.54,.05-.79,.14c-.25,.1-.47,.23-.67,.41-.19,.18-.34,.39-.46,.64s-.17,.53-.17,.84,.06,.59,.17,.84,.27,.46,.46,.64c.19,.18,.41,.31,.67,.41,.25,.09,.52,.14,.79,.14s.54-.05,.79-.14c.25-.09,.47-.23,.67-.41,.19-.18,.35-.39,.46-.64s.17-.53,.17-.84-.06-.59-.17-.84Zm-.51,1.48c-.08,.2-.19,.37-.33,.51-.14,.14-.3,.25-.49,.33s-.39,.12-.6,.12-.41-.04-.6-.12-.35-.19-.49-.33c-.14-.14-.25-.31-.33-.51-.08-.2-.12-.41-.12-.64s.04-.44,.12-.64c.08-.19,.19-.36,.33-.5,.14-.14,.3-.25,.49-.33s.39-.12,.6-.12,.41,.04,.6,.12,.35,.19,.49,.33c.14,.14,.25,.31,.33,.5,.08,.19,.12,.41,.12,.64s-.04,.45-.12,.64Z"/><path class="cls-1" d="M421.35,181.35c.07-.03,.14-.06,.19-.11,.05-.05,.1-.11,.13-.18s.05-.16,.05-.27c0-.25-.08-.42-.23-.52-.15-.1-.37-.15-.66-.15h-.86v2.28h.45v-.97h.28l.55,.97h.47l-.61-1c.08,0,.16-.02,.23-.05Zm-.94-.28v-.6h.38c.05,0,.1,0,.16,.01,.06,0,.11,.02,.15,.04,.04,.02,.08,.05,.11,.08,.03,.04,.04,.09,.04,.15,0,.14-.04,.22-.12,.26-.08,.04-.19,.05-.32,.05h-.4Z"/><path class="cls-1" d="M197.5,215.12c-3.38,0-7.34-.8-9.35-1.66l-1.26,5.51c2.01,.92,6.54,2.01,11.24,2.01,10.84,0,17.5-5.79,17.5-13.19,0-13.37-19.28-10.44-19.28-18.07,0-3.38,3.61-5.34,9.58-5.34,2.58,0,5.56,.52,7.46,1.26l1.84-5.28c-1.72-.75-5.51-1.61-9.98-1.61-10.96,0-17.44,4.3-17.44,11.47,0,13.6,19.51,10.21,19.51,18.76,0,3.61-3.79,6.14-9.81,6.14Z"/><path class="cls-1" d="M86.55,189.7c0-3.38,3.61-5.34,9.58-5.34,2.58,0,5.56,.52,7.46,1.26l2.01-5.28c-1.72-.75-5.51-1.61-9.98-1.61-10.96,0-17.44,4.3-17.44,11.47,0,13.6,19.51,10.21,19.51,18.76,0,3.61-3.84,6.14-9.81,6.14-3.44,0-7.4-.8-9.41-1.66l-1.32,5.51c2.01,.92,6.54,2.01,11.24,2.01,10.84,0,17.5-5.79,17.5-13.19,0-13.37-19.33-10.44-19.33-18.07Z"/><polygon class="cls-1" points="139.56 214.89 120.91 214.89 120.91 201.46 136.57 201.46 136.57 196.36 120.97 196.36 120.91 184.65 138.35 184.65 137.55 179.61 112.71 179.66 112.71 220.28 138.69 220.28 139.56 214.89"/><polygon class="cls-1" points="399.95 201.46 415.61 201.46 415.61 196.36 399.95 196.36 399.95 184.65 417.39 184.65 416.59 179.66 391.75 179.66 391.75 220.28 417.73 220.28 418.54 214.89 399.95 214.89 399.95 201.46"/><polygon class="cls-1" points="173.52 206.97 152.81 179.66 146.1 179.66 146.1 220.28 152.58 220.28 152.58 192.86 173.4 220.28 180 220.28 180 179.66 173.52 179.66 173.52 206.97"/><polygon class="cls-1" points="376.6 206.97 355.89 179.66 349.24 179.66 349.24 220.28 355.72 220.28 355.72 192.86 376.49 220.28 383.14 220.28 383.14 179.66 376.6 179.66 376.6 206.97"/><path class="cls-1" d="M300.82,183.79c-4.47-3.21-9.7-4.13-18.19-4.13h-11.99v40.67h10.21c18.24,0,27.48-7.69,27.48-21.17,0-5.79-2.87-12.05-7.52-15.37Zm-17.5,31.27h-4.36v-29.95h7c8.55,0,13.77,4.47,13.77,13.83s-5.22,16.12-16.41,16.12Z"/><polygon class="cls-1" points="326.58 196.87 316.25 179.66 307.3 179.66 321.87 203.7 321.87 220.28 330.07 220.28 330.07 203.53 344.53 179.66 337.19 179.66 326.58 196.87"/><path class="cls-1" d="M242.47,178.46c-12.05,0-21.86,9.52-21.86,21.57s8.43,21.51,21.8,21.51c12.16,0,21.8-9.47,21.8-21.91s-8.83-21.17-21.74-21.17Zm-.06,37.46c-8.32,0-13.08-6.94-13.08-15.78s5.11-15.89,13.14-15.89,13.08,6.88,13.08,15.66c0,7.97-5.05,16.01-13.14,16.01Z"/><path class="cls-1" d="M156.08,148.57c.8,0,1.55,.06,2.35,.06-11.19,3.9-20.6,12.74-26.62,24.44h3.21c6.6-12.1,17.1-20.88,29.37-23.58,1.72,.4,3.44,.92,5.11,1.55-8.78,4.59-16.12,12.33-21.17,22.09h3.16c5.05-9.29,12.45-16.64,21.11-20.77,2.07,1.03,4.07,2.18,6.02,3.56-5.56,4.47-10.27,10.38-13.77,17.21h3.16c3.38-6.2,7.74-11.47,12.85-15.55,4.99,4.02,9.29,9.29,12.62,15.37l.17,.17,.11,.06h.17c.29,0,.52-.23,.52-.52v-.11l-.06-.11c-3.21-6.2-7.46-11.53-12.33-15.78,2.24-1.66,4.65-3.16,7.17-4.3,8.55,4.13,15.78,11.36,20.82,20.54l.46,.29c.29,0,.52-.23,.52-.52l-.06-.23c-4.76-9.06-11.65-16.41-19.79-21,2.07-.86,4.19-1.55,6.31-2.01,12.1,2.75,22.49,11.47,29.03,23.46l.46,.29c.29,0,.46-.23,.52-.52l-.06-.23c-5.91-11.24-14.97-19.73-25.7-23.75,1.32-.11,2.64-.23,4.02-.23,15.6,.06,29.32,9.75,37.29,24.38l.46,.29c.29,0,.52-.23,.52-.52l-.17,.11c-8.26-15.72-22.72-26.1-39.24-26.16-2.81,0-5.56,.29-8.26,.86-2.7-.57-5.45-.92-8.26-.92s-5.56,.29-8.26,.86c-2.7-.57-5.45-.92-8.26-.92s-5.56,.29-8.26,.86c-2.7-.57-5.45-.92-8.26-.92-16.75-.06-31.5,10.61-39.76,26.68h3.16c8.03-14.8,21.91-24.55,37.63-24.5Zm33.1,.06c.8,0,1.55,0,2.35,.06-1.15,.46-2.29,.92-3.38,1.43-.98-.46-1.95-.86-2.98-1.26,1.32-.11,2.64-.23,4.02-.23Zm-8.26,.92c1.72,.4,3.44,.92,5.16,1.55-2.18,1.15-4.25,2.47-6.2,3.96-1.66-1.32-3.44-2.47-5.28-3.5,2.07-.86,4.19-1.55,6.31-2.01Zm-8.26-.98c.8,0,1.55,.06,2.35,.06-1.15,.46-2.24,.92-3.38,1.43-.98-.46-1.95-.86-2.98-1.26,1.32-.11,2.64-.23,4.02-.23Z"/><path class="cls-1" d="M243.62,226.53c-.29,0-.4,.23-.4,.23-8.03,14.8-21.86,24.61-37.52,24.61-1.38,0-2.7-.06-4.02-.23,10.84-3.96,19.96-12.56,25.87-23.87,.23-.52-.11-.8-.4-.8-.23,0-.29,.06-.46,.29-6.6,12.1-17.04,20.88-29.26,23.64-2.18-.52-4.3-1.15-6.31-2.01,8.26-4.59,15.15-11.99,19.96-21.23,.17-.46-.17-.69-.46-.69l-.46,.29c-5.05,9.29-12.33,16.64-21,20.77-2.47-1.2-4.88-2.64-7.11-4.36,4.99-4.3,9.24-9.75,12.56-16.01l.06-.23c0-.29-.23-.46-.52-.46l-.46,.29c-3.33,6.2-7.69,11.47-12.74,15.55-5.16-4.13-9.58-9.52-12.91-15.83h-3.16c3.56,7,8.26,12.97,13.88,17.5-1.95,1.38-3.9,2.52-6.02,3.56-8.72-4.19-16.12-11.65-21.17-21.05h-3.16c4.99,9.87,12.39,17.73,21.23,22.43-1.66,.63-3.38,1.15-5.16,1.55-12.33-2.75-22.83-11.65-29.43-23.92h-3.16c5.97,11.82,15.43,20.82,26.68,24.78-.8,.06-1.55,.06-2.35,.06-15.78,0-29.66-9.92-37.69-24.84h-3.16c8.2,16.24,22.95,27.08,39.81,27.08,2.81,0,5.56-.29,8.26-.86,2.7,.57,5.45,.86,8.26,.86s5.56-.29,8.26-.86c2.7,.57,5.45,.86,8.26,.86s5.56-.29,8.26-.86c2.7,.57,5.45,.86,8.26,.86,16.58,0,31.15-10.5,39.41-26.27,.11-.57-.29-.8-.57-.8Zm-70.96,24.84c-1.38,0-2.7-.06-4.02-.23,1.03-.34,2.01-.8,2.98-1.2,1.09,.52,2.24,.98,3.38,1.38-.8,.06-1.55,.06-2.35,.06Zm1.89-2.93c1.84-1.03,3.61-2.18,5.28-3.44,1.95,1.49,4.02,2.81,6.2,3.96-1.66,.63-3.38,1.15-5.16,1.55-2.12-.57-4.25-1.2-6.31-2.07Zm14.63,2.93c-1.38,0-2.7-.06-4.02-.23,1.03-.34,2.01-.8,2.98-1.2,1.09,.52,2.24,.98,3.38,1.38-.8,.06-1.61,.06-2.35,.06Z"/></svg>