<svg id="logos" xmlns="http://www.w3.org/2000/svg" viewBox="0 0 500 400"><defs><style>.cls-1{fill:blue;}</style></defs><title>addsecure</title><path class="cls-1" d="M221.73,191.73c0-1.74,2-2.83,5.06-2.83s5.92.85,10.94,3.07v-6.71h0A28.26,28.26,0,0,0,226,182.58c-8,0-13.15,3.95-13.15,9.92,0,12.4,17.55,10.33,17.55,16,0,2-1.77,3.19-5.06,3.19-3.79,0-6.83-1.17-11.79-4.45v7.43C217,216.44,220,218,226,218c7.69,0,13.26-3.85,13.26-10.48C239.29,195.46,221.73,196.94,221.73,191.73Z"/><path class="cls-1" d="M165,183H149.71v34.51H164c13.76,0,20-7.28,20-17.2C184,190.88,177.55,183,165,183Zm-1,28.19h-5.62V189.36h5.52c8.14,0,11.33,5,11.33,10.93C175.17,205.35,172.59,211.22,163.94,211.22Z"/><path class="cls-1" d="M119.3,183H104.07v34.51h14.27c13.76,0,20-7.28,20-17.2C138.38,190.88,131.88,183,119.3,183Zm-1,28.19h-5.61V189.36h5.49c8.16,0,11.35,5,11.35,10.93C129.53,205.35,127,211.22,118.3,211.22Z"/><path class="cls-1" d="M69.76,183,55.84,217.54H65l2.58-6.82H83l2.83,6.82h9.26L79.71,183Zm0,21.66,5.06-13.41,5.56,13.41Z"/><path class="cls-1" d="M319.52,207v0l0,0Z"/><path class="cls-1" d="M294.75,200.24c0-6.12,5.16-10.48,12.49-10.48a24.16,24.16,0,0,1,11.9,3.55v-7.7a24.42,24.42,0,0,0-12.52-3c-13.22,0-20.74,8.6-20.74,17.81,0,8.91,6.66,17.61,20.08,17.61a26.79,26.79,0,0,0,13.56-3.44V207c-4.94,2.37-8,3.78-12.47,3.78C299.87,210.82,294.75,206.41,294.75,200.24Z"/><polygon class="cls-1" points="258.88 211.22 258.88 202.93 274.61 202.93 274.61 196.6 258.88 196.6 258.88 189.36 275.37 189.36 275.37 183.03 250.27 183.03 250.27 217.54 275.73 217.54 275.73 211.22 275.72 211.22 258.88 211.22"/><path class="cls-1" d="M398.93,201.4c3.95-1.82,5.92-4.66,5.92-8.45,0-5.16-4.21-9.92-11.3-9.92h-15.4v34.51h8.61v-14h2.48c4.65,0,6,6.63,9.71,14h9.45C403.52,207.42,402.47,203.17,398.93,201.4Zm-7.62-4.2h-4.55v-7.84h4.35c3.24,0,4.91,1.32,4.91,3.9C396,196.19,393.69,197.2,391.31,197.2Z"/><path class="cls-1" d="M357.05,183v19.24c0,6.17-4.2,8.55-8.75,8.55-5,0-8.55-3-8.55-7.95V183h-8.62v19.65c0,10.68,7.25,15.33,17.27,15.33,9.44,0,17.25-3.95,17.25-15.38V183h-8.6Z"/><polygon class="cls-1" points="427.31 211.22 427.31 202.92 443.04 202.92 443.04 196.59 427.32 196.59 427.32 189.36 443.83 189.36 443.83 183.03 418.7 183.03 418.7 217.54 444.16 217.54 444.16 211.22 427.31 211.22"/><path class="cls-1" d="M198.2,170.08a5,5,0,0,0,0,10h0a5,5,0,0,0,0-10Z"/><path class="cls-1" d="M198.2,182.63a5,5,0,1,0,0,10h0a5,5,0,0,0,0-10Z"/><path class="cls-1" d="M198.14,220a5,5,0,1,0,0,10l0,0a5,5,0,1,0,0-9.94Z"/><path class="cls-1" d="M198.16,207.77a5,5,0,0,0,0,10l.05,0a5,5,0,1,0,0-9.94Z"/><path class="cls-1" d="M198.2,195.19a5,5,0,1,0,0,10h0a5,5,0,1,0,0-10Z"/></svg>