<svg id="logos" xmlns="http://www.w3.org/2000/svg" viewBox="0 0 500 400"><defs><style>.cls-1{fill:blue;}</style></defs><title>bonnier_utbildning</title><path class="cls-1" d="M207.12,216c-.89-.64-1.84-.85-4.2-.85H200.1v6.58h3c2.18,0,3-.12,3.8-.64a3.2,3.2,0,0,0,1.48-2.67A3,3,0,0,0,207.12,216Z"/><path class="cls-1" d="M204.27,212.17a3.05,3.05,0,0,0,2.27-3c0-2-1.26-3-3.83-3H200.1v6.28h2A7.51,7.51,0,0,0,204.27,212.17Z"/><path class="cls-1" d="M253.75,206.9c-1.41-.65-2.27-.77-5-.77H245v15.53h3.86a12.21,12.21,0,0,0,4-.42,7.5,7.5,0,0,0,5.33-7.48A7.21,7.21,0,0,0,253.75,206.9Z"/><path class="cls-1" d="M209.83,172.64c-4.78,0-8.21,3.34-8.21,8a7.81,7.81,0,0,0,8.11,7.88,7.92,7.92,0,1,0,.1-15.84Z"/><path class="cls-1" d="M189.88,182.59c-.89-.64-1.83-.85-4.19-.85h-2.82v6.58h3c2.17,0,3-.12,3.8-.64a3.19,3.19,0,0,0,1.47-2.67A3,3,0,0,0,189.88,182.59Z"/><path class="cls-1" d="M133.05,151.57v96.86H367V151.57Zm144.23,18.52h3V191h-3Zm-25.7,0H254l14.09,16.21V170.09h2.85V191h-2.57l-14-16.09V191h-2.82Zm-25.91,0h2.42l14.09,16.21V170.09H245V191h-2.57l-14-16.09V191h-2.81Zm-53.8,45.23a11,11,0,0,1-.46,4.11,6.75,6.75,0,0,1-1.9,2.94,9.6,9.6,0,0,1-6.59,2.26c-4.25,0-7.5-2-8.51-5.14a10.92,10.92,0,0,1-.49-4.2V203.46h3v11.86c0,2.76.28,3.86,1.32,4.9a6.17,6.17,0,0,0,4.65,1.75c3,0,5.37-1.53,5.79-3.83a16.19,16.19,0,0,0,.22-2.82V203.46h3Zm21.38-9.22H186v18.26h-3V206.1h-7.17v-2.64h17.47Zm-2.11-16A7.77,7.77,0,0,1,187,191l-1.28,0H179.9v-20.9h5.48a8.37,8.37,0,0,1,4,.71,5,5,0,0,1,3,4.72,4.45,4.45,0,0,1-3.19,4.38V180c3.06.55,5,2.63,5,5.33A5.26,5.26,0,0,1,191.14,190.1Zm17.24,33.37a7.77,7.77,0,0,1-4.17.92l-1.29,0h-5.79v-20.9h5.49a8.37,8.37,0,0,1,4,.71,5,5,0,0,1,3,4.72,4.44,4.44,0,0,1-3.18,4.38v.06c3.06.55,5,2.63,5,5.33A5.25,5.25,0,0,1,208.38,223.47Zm10.72.89h-3v-20.9h3Zm-9.55-33.09c-6.31,0-11-4.57-11-10.67,0-6.25,4.72-10.78,11.18-10.78S221,174.38,221,180.54,216.14,191.27,209.55,191.27ZM238,224.36H225.53v-20.9h3v18.17H238Zm16.15-.65c-1.66.56-2.33.68-5.52.68l-6.62,0v-20.9H249a16.25,16.25,0,0,1,3.86.31,9.65,9.65,0,0,1,2.85.95,10.39,10.39,0,0,1-1.62,19Zm31.18.65h-2.57l-14-16.09v16.09h-2.82v-20.9h2.42l14.1,16.21V203.46h2.84Zm9.19,0h-3v-20.9h3ZM298.88,191H286.74v-20.9H298.6v2.67h-8.86v6.37h8.55v2.67h-8.55v6.49h9.14Zm21.83,33.37h-2.57l-14-16.09v16.09h-2.82v-20.9h2.42l14.09,16.21V203.46h2.85ZM317.78,191l-.22-.28-.73-1.1c-.12-.21-.37-.58-.71-1.1-.76-1.26-1.56-2.45-2-3.1a11.93,11.93,0,0,0-2.63-2.91,3.47,3.47,0,0,0-2.52-.61h-.79V191h-3v-20.9h5.23c4.24,0,6.87,2.24,6.87,5.83a5.2,5.2,0,0,1-3.5,5.14,6.81,6.81,0,0,1,1.81,1.63,25,25,0,0,1,2.85,4.13c.71,1.17,1.29,2.06,1.75,2.67l.92,1.25.18.25Zm27.4,31.93a18.35,18.35,0,0,1-7.65,1.72,11.06,11.06,0,0,1-8.4-3.16,10.19,10.19,0,0,1-3-7.38c0-6.25,4.84-10.91,11.3-10.91a17.14,17.14,0,0,1,7.35,1.78V208a14.91,14.91,0,0,0-7.41-2.18,8,8,0,0,0-8.12,8.06c0,4.75,3.46,8.09,8.39,8.09a12.66,12.66,0,0,0,4.3-.83l.27-.09v-4.35h-4V214.1h7Z"/><path class="cls-1" d="M312.66,173.13a8.05,8.05,0,0,0-3.55-.49h-.92v6.58h1.16a14.54,14.54,0,0,0,2.15-.12,3.09,3.09,0,0,0,2.75-3.22A3.05,3.05,0,0,0,312.66,173.13Z"/><path class="cls-1" d="M187,178.79a3,3,0,0,0,2.27-3c0-2-1.25-3-3.83-3h-2.6V179h2A7.1,7.1,0,0,0,187,178.79Z"/></svg>