<?xml version="1.0" encoding="UTF-8"?><svg id="logos" xmlns="http://www.w3.org/2000/svg" viewBox="0 0 500 400"><defs><style>.cls-1{fill:blue;}</style></defs><path class="cls-1" d="M250,112.06c-48.49,0-87.94,39.45-87.94,87.94s39.45,87.95,87.94,87.95,87.94-39.45,87.94-87.95-39.45-87.94-87.94-87.94Zm0,174.91c-47.95,0-86.97-39.01-86.97-86.97s39.01-86.96,86.97-86.96,86.96,39.01,86.96,86.96-39.01,86.97-86.96,86.97Z"/><path class="cls-1" d="M214.47,259.57c.49-.72,.49-1.68-.97-2.69l-4.21-2.88-1.89,2.76,4.22,2.87c1.46,1.01,2.36,.67,2.86-.05Z"/><path class="cls-1" d="M191.51,244.22l-2.81,2.32,3.29,3.96c1.37,1.63,2.27,1.98,3.29,1.13,1.05-.85,.86-1.81-.47-3.45l-3.29-3.96Z"/><path class="cls-1" d="M192.02,154.38c1.58-2.08,1.84-2.71,.88-3.45-.97-.73-1.51-.31-3.09,1.75l-2.51,3.27,2.22,1.68,2.5-3.26Z"/><path class="cls-1" d="M199.67,247.06c.93-.79,.64-1.42-1.02-3.42l-2.62-3.17-2.15,1.77,2.65,3.18c1.64,2,2.22,2.4,3.15,1.64Z"/><path class="cls-1" d="M243.09,132.92c2.63-.25,4.78-2.11,4.5-4.92-.31-2.85-2.78-4.19-5.39-3.93-2.63,.27-4.77,2.1-4.48,4.92,.29,2.83,2.77,4.21,5.38,3.93Z"/><path class="cls-1" d="M194.87,161.72l3.12-4.1c1.29-1.66,1.43-2.63,.35-3.44-1.05-.81-1.96-.43-3.24,1.24l-3.13,4.1,2.89,2.21Z"/><path class="cls-1" d="M225.32,137.26c2.45-.97,4.03-3.32,2.98-5.95-1.04-2.66-3.8-3.29-6.25-2.33-2.44,.97-4.02,3.31-2.98,5.95,1.04,2.65,3.81,3.3,6.25,2.33Z"/><path class="cls-1" d="M207.63,140.43c1.42-1.08,1.39-2.05,.85-2.75-.52-.7-1.44-.99-2.85,.09l-4.07,3.05,2.02,2.65,4.05-3.05Z"/><path class="cls-1" d="M290.03,254.47l-4.18,2.9,1.89,2.73,4.18-2.9c1.47-1.01,1.47-1.97,.97-2.7-.49-.72-1.41-1.04-2.86-.04Z"/><path class="cls-1" d="M260.28,193.07c-1.63,2.64-2.26,6.07-3.92,9.67-1.33,2.81-.13,2.29,2.23,3.09,2.53,.83,5.86,1.85,8.5,2.55,4.37-7.48,1.43-14.19-6.81-15.31Z"/><path class="cls-1" d="M280.86,228.61c0-1.38-.98-2.29-2.15-2.29s-2.16,.92-2.16,2.29,.96,2.29,2.16,2.29,2.15-.92,2.15-2.29Zm-2.64,.27v1.39h-.77v-3.31h1.25c.87,0,1.38,.22,1.38,1.01,0,.6-.34,.82-.91,.85l.83,1.45h-.76l-.75-1.39h-.26Z"/><path class="cls-1" d="M244.87,222.95c-1.27,1.11-3.38,2.76-4.79,3.71,7.58-.54,16.56-4.95,20.41-10-2.94-.8-5.68-2.06-8.92-2.55-2.35,3.3-3.73,6.16-6.7,8.83Z"/><path class="cls-1" d="M235.62,211.78c-2.98,.16-5.71,.76-7.65,2.11-.86,.6-2.33,2.04-2.76,3-.81,1.76-.34,3.59,.62,4.68,6.15,6.73,14.34-4.32,15.32-9.57-1.71-.2-4.16-.3-5.53-.22Z"/><path class="cls-1" d="M279.3,227.87c0-.33-.37-.33-.62-.33h-.46v.74h.63c.28,0,.45-.07,.45-.4Z"/><path class="cls-1" d="M250,257.27c31.57,0,57.26-25.69,57.26-57.27s-25.69-57.27-57.26-57.27-57.27,25.69-57.27,57.27,25.69,57.27,57.27,57.27Zm25.53-28.66c0-1.94,1.53-3.06,3.17-3.06s3.16,1.11,3.16,3.06-1.54,3.05-3.16,3.05-3.17-1.12-3.17-3.05Zm9.44-5.35c-1.86-.24-7-1.48-8.1-1.48-.68,0-3.67,3.79-4.45,4.45-2.51,2.11-5.25,4.53-8.08,6.18-4.32,2.48-9.16,5.04-14.26,6.59-15.54,4.7-34.35,1.9-42.33-8.29-3.39-4.35-5.17-11.36-2.11-17.87,.1-.19,.46-.74,.63-1.05,.19-.38,.59-.89,.85-1.28,7.15-10,23.44-11.06,38.92-8.5,1.85-3.16,2.92-6.94,4.26-10.63,2.54-7.01,5.89-13.4,10.75-18.17,1.56-1.55,3.88-3.46,6.28-4.14,2.72-.8,5.88-.26,5.84,1.38-3.15,2.24-5.64,4-7.55,8.17-2.55,5.6,2.28,1.23,4.27,0,3.03-1.87,7.75-8.03,4.24-12.95-3.84-5.4-16.04-3.78-18.51,2.12-1.03,2.43,.7,3.43,1.71,4.04l.55,.33s-.21,.93-.35,1.33c-1.65,4.98-8.06,12.56-14.26,7.7-1.35-1.09-2.66-2.87-2.96-4.91-.61-3.98,1.08-6.77,2.24-9.03,6.01-11.75,26.69-18.23,39.84-8.19,8.11,6.17,5.81,18.79-1.25,24.46-2.57,2.05-5.82,3.42-8.94,4.88,6.27,4.51,12.41,10.08,10,21.48-.03,.09-.85,3.62-.85,3.62,6,2.96,13.93,3.91,22.38,3.43-.7,2.23-1.54,4.4-2.51,6.5-5.35,.94-10.94,.55-16.25-.15Z"/><path class="cls-1" d="M333.33,194.26c-2.95-43.45-39.13-77.78-83.32-77.78s-80.33,34.28-83.33,77.69c-1.13,1.92-1.79,4.14-1.79,6.52s.71,4.78,1.92,6.74c3.76,42.65,39.57,76.1,83.2,76.1s79.49-33.5,83.2-76.2c1.17-1.94,1.85-4.21,1.85-6.64s-.64-4.53-1.73-6.43Zm-167.71,6.43c0-1.67,.34-3.26,.95-4.71,1.85-4.39,6.19-7.47,11.25-7.47,5.43,0,10.03,3.57,11.6,8.48,.37,1.17,.58,2.41,.58,3.7,0,1.21-.18,2.37-.51,3.47-1.5,5.04-6.16,8.73-11.67,8.73-4.98,0-9.26-3-11.15-7.29-.67-1.51-1.04-3.17-1.04-4.92Zm25.11,0c0-1.93-.44-3.76-1.2-5.41,2.42-31.25,28.62-55.93,60.48-55.93s58,24.64,60.46,55.84c-.79,1.67-1.25,3.53-1.25,5.5s.42,3.67,1.14,5.29c-3.01,30.65-28.93,54.67-60.35,54.67s-57.4-24.07-60.37-54.76c.7-1.59,1.1-3.35,1.1-5.2Zm131.42,12.2c-5.47,0-10.1-3.61-11.65-8.58-.36-1.15-.55-2.36-.55-3.63,0-1.34,.22-2.62,.63-3.82,1.61-4.85,6.19-8.36,11.58-8.36,5.11,0,9.49,3.17,11.29,7.64,.57,1.41,.89,2.94,.89,4.54,0,1.7-.35,3.32-.98,4.79-1.86,4.35-6.18,7.41-11.2,7.41Zm-14.75-69.08l4.45,5.79-.27,.21c-.46-.52-.68-.56-.84-.43-.25,.22-1.47,7.76-2,10.85l6.37-4.95c.3-.22,.28-.5,.05-.82l.3-.21,3.37,4.37-.29,.22c-.51-.56-.73-.51-.95-.33l-11.17,8.61c-.21,.17-.32,.36,.1,1.01l-.3,.23-3.52-4.56,.28-.21c.34,.42,.53,.46,.7,.34,.31-.24,.16-1.07,2.36-12.87l-7.53,5.81c-.21,.17-.33,.37,.09,1l-.28,.22-3.53-4.55,.3-.22c.51,.58,.73,.5,.95,.34l11.18-8.62c.2-.17,.33-.36-.09-1.01l.28-.22Zm-19.05,3.92l3.3-4.18,.61-10.09c.08-1.13,.06-1.26-.15-1.44l.21-.28,5.23,4.12-.22,.29c-.29-.22-.62-.44-.8-.17-.22,.24-.4,4.27-.55,6.1,.63-.27,5.74-1.61,5.94-1.83,.19-.27-.09-.54-.31-.71l.22-.29,4.53,3.58-.22,.28c-.26-.19-.59-.1-.93-.03l-9.64,2.84-3.66,4.62c-.17,.22-.23,.44,.32,.96l-.22,.29-4.89-3.87,.22-.28c.63,.43,.83,.31,1.01,.09Zm-10.24-22.85l5.61,2.74-.17,.33c-.72-.28-.88-.13-1.01,.1l-4.97,10.18,9.34,4.58c.31,.14,.49,.07,.87-.51l.32,.14-2.33,4.79-.33-.17c.21-.6,.16-.79-.14-.94l-14.19-6.95,.15-.32c.73,.27,.88,.12,1.01-.13l6.2-12.67c.13-.24,.13-.47-.52-.85l.17-.33Zm-25.65,10.34c.76,.06,.89-.13,.93-.39l2.37-13.92c.05-.26,0-.49-.75-.68l.06-.35,6.16,1.04-.07,.37c-.75-.08-.88,.11-.92,.39l-.93,5.36,.22,.04c2.77-1.93,6.73-4.19,6.79-4.53,.07-.35-.15-.39-.47-.48l.06-.35,7.57,1.28-.05,.37c-.79-.07-.97,.15-1.84,.67l-5.91,3.57,4.54,10.14c.25,.55,.5,.57,.86,.64l-.04,.35-6.85-1.15,.08-.36c.35,.06,.57,.09,.63-.29,.06-.34-2.73-6.23-3.05-7.05l-3.38,2.12-.6,3.58c-.06,.28,0,.49,.74,.69l-.05,.35-6.15-1.04,.05-.36Zm-10.64-14.82c5.14-.52,9.7,1.87,10.23,7.13,.54,5.28-3.44,8.55-8.56,9.07-5.12,.53-9.7-1.87-10.23-7.15-.53-5.26,3.45-8.53,8.56-9.05Zm-21.11,5.14c4.78-1.89,9.81-.81,11.77,4.13,1.94,4.91-1.02,9.14-5.8,11.01-4.78,1.9-9.82,.83-11.77-4.09-1.95-4.92,1.02-9.15,5.8-11.06Zm-16.65,9.17c3.57-2.71,6.04-2.61,8.13,.15,1.68,2.22,1.13,4.5-.45,6.56l5.86,1.85c.47,.16,.77,.11,1.03-.08l.22,.28-5.02,3.82-.23-.3c.33-.28,.43-.54,.21-.83-.18-.22-5.25-1.62-5.94-1.9l-2.38,1.79,3.07,4.06c.17,.21,.37,.32,1.02-.08l.21,.29-4.98,3.76-.2-.28c.55-.5,.48-.73,.33-.96l-8.5-11.24c-.16-.21-.37-.34-1.01,.07l-.23-.28,8.84-6.68Zm-15.56,14.41c1.98-2.59,4.4-3.76,6.78-1.93,1.44,1.09,1.6,2.75,.86,4.32l.05,.03c1.66-1.3,3.42-1.81,5.21-.45,1.91,1.48,2.45,4.17-.17,7.59l-7.1,9.27-.29-.23c.41-.62,.29-.83,.09-.99l-11.21-8.58c-.23-.17-.45-.22-.95,.36l-.29-.23,7-9.17Zm1.76,104.32l-7.45-8.99,.28-.24c.54,.53,.76,.48,.97,.31l10.87-9c.2-.18,.3-.39-.14-1.01l.3-.24,7.34,8.9c2.12,2.53,2.68,5.12,.38,7.05-1.42,1.16-3.04,.95-4.4-.13l-.06,.03c.9,1.91,1,3.75-.73,5.18-1.87,1.54-4.6,1.45-7.36-1.86Zm21.8,16.56c0,.48,.13,.76,.42,.94l-.2,.32-5.21-3.57,.21-.3c.36,.21,.65,.23,.85-.07,.17-.23-.13-5.49-.09-6.24l-2.45-1.67-2.87,4.2c-.17,.22-.2,.44,.39,.92l-.2,.32-5.15-3.53,.2-.31c.66,.37,.85,.26,1.01,.03l7.98-11.64c.16-.22,.2-.44-.38-.93l.19-.3,9.15,6.26c3.7,2.56,4.38,4.92,2.42,7.78-1.57,2.28-3.92,2.49-6.37,1.65l.1,6.16Zm23.05-2.56c.14-.69,.07-.87-.25-.97l-9.19-3.19-.8,2.38,5.3,1.84c.57,.19,.88-.02,1.09-.35l.34,.1-1.54,4.46-.34-.11c.04-.41-.06-.76-.63-.96l-5.33-1.84-.92,2.65,9.17,3.18c.32,.11,.49,0,.82-.67l.34,.11-1.72,4.99-.34-.13c.07-.51,0-.7-.3-.8l-14.27-4.95,.1-.34c.75,.19,.9,.03,.99-.24l4.61-13.33c.08-.26,.08-.48-.61-.78l.1-.36,14.29,4.95c.33,.12,.48,0,.8-.62l.34,.11-1.72,4.99-.34-.12Zm28.54-2.95c-.32,.03-.47,.27-.52,.56-.12,.53-4.72,13.87-4.72,14.23s.35,.4,.62,.42v.35l-6.31,.02v-.36c.41-.06,.6-.18,.6-.44,0-.96-1.81-6.52-2.94-10.59h-.06c-1,3.51-3.19,10.06-3.18,10.62,0,.24,.27,.41,.66,.41v.36l-6.55,.03v-.36c.33-.05,.61-.13,.61-.52,0-.21-4.62-13.8-4.77-14.35-.07-.24-.22-.33-.31-.33v-.36l5.53-.03v.36c-.35,.07-.63,.13-.63,.47,0,.33,2.23,6.89,3.01,9.35h.05c.73-2.28,2.79-9.08,2.79-9.37,0-.33-.39-.38-.64-.45v-.36l7.19-.02v.36c-.26,.09-.5,.15-.5,.46,0,.18,2.14,7.36,2.57,9.36h.06c.36-1.45,2.93-8.93,2.93-9.32,0-.36-.32-.42-.65-.51v-.37h5.12s0,.36,0,.36Zm19.98,9.4c-.26-.43-.42-.56-.74-.43l-14.31,4.86-.11-.35c.69-.3,.69-.53,.63-.8l-4.56-13.36c-.09-.23-.24-.42-.97-.23l-.11-.36,14.29-4.86c.33-.11,.38-.29,.26-.97l.33-.12,1.69,4.98-.34,.1c-.3-.62-.47-.72-.78-.62l-9.21,3.13,.8,2.39,5.35-1.81c.55-.21,.68-.55,.61-.96l.36-.11,1.51,4.47-.34,.12c-.22-.33-.53-.55-1.1-.37l-5.32,1.83,.92,2.66,9.18-3.13c.32-.11,.39-.29,.24-1.03l.33-.12,1.7,4.98-.33,.11Zm14.21-9.57l-.2-.3c.34-.26,.45-.52,.23-.83-.15-.22-5.17-1.82-5.85-2.12l-2.44,1.68,2.89,4.17c.15,.26,.35,.35,1.01-.02l.19,.3-5.12,3.55-.2-.31c.59-.46,.53-.7,.37-.91l-8-11.6c-.16-.23-.37-.36-1.02,.02l-.21-.31,9.11-6.3c3.69-2.55,6.14-2.35,8.12,.49,1.6,2.32,.93,4.55-.73,6.56l5.8,2.11c.43,.16,.75,.14,1.02-.07l.22,.3-5.19,3.58Zm11.98-10.97l-.28-.22c.43-.62,.33-.84,.12-1.01l-4.1-3.38-10.09-.85c-1.13-.1-1.26-.09-1.42,.11l-.3-.24,4.26-5.13,.28,.23c-.22,.29-.46,.61-.2,.81,.25,.24,4.27,.5,6.09,.7-.27-.65-1.48-5.8-1.71-5.97-.26-.23-.54,.06-.7,.27l-.28-.24,3.67-4.41,.28,.22c-.19,.22-.11,.56-.04,.9l2.6,9.71,4.54,3.77c.22,.19,.45,.24,.99-.31l.27,.24-3.99,4.79Z"/></svg>