<svg id="logos" xmlns="http://www.w3.org/2000/svg" viewBox="0 0 500 400"><defs><style>.cls-1{fill:blue;}</style></defs><title>nike</title><path class="cls-1" d="M158.55,248.18q-12.11-.48-19.82-6.62a39.09,39.09,0,0,1-4.12-4.12,25.78,25.78,0,0,1-4.46-8c-2.92-8.74-1.42-20.22,4.29-32.81,4.9-10.78,12.44-21.46,25.61-36.27,1.94-2.18,7.72-8.55,7.76-8.55s-.3.54-.7,1.21a77.82,77.82,0,0,0-8,18.34c-2.56,9.38-2.25,17.43.91,23.68a23.11,23.11,0,0,0,10.12,10.09c7.35,3.6,18.13,3.9,31.28.87.91-.21,45.79-12.12,99.73-26.47s98.1-26.09,98.1-26.08S274,207.07,208.9,234.9c-10.31,4.4-13.07,5.51-17.91,7.21C178.61,246.46,167.51,248.54,158.55,248.18Z"/></svg>