<svg id="logos" xmlns="http://www.w3.org/2000/svg" viewBox="0 0 500 400"><defs><style>.cls-1{fill:blue;fill-rule:evenodd;}</style></defs><title>showtime</title><path class="cls-1" d="M178.58,200.71c0-21,7.48-34.2,16.74-35.62-9.26-11-24.58-17.1-38.48-17.1A51.9,51.9,0,0,0,118,165.09c9.26,1.78,12.11,9.62,12.11,21.37h-11c0-7.12-1.42-10.68-5.7-10.68a4.35,4.35,0,0,0-3.91,2.49,1.22,1.22,0,0,1-.36.71,10.31,10.31,0,0,0-.71,3.21c0,14.25,23.86,13.53,23.86,36,0,8.55-6.76,16.74-14.24,16.74,10,10.69,23.15,17.1,38.82,17.1A51.94,51.94,0,0,0,195,235.27c-8.9-2.14-16.38-14.61-16.38-34.56m-5,34.2H161.48V205.34H148.65v29.57H136.9v-68.4h11.75V194.3h12.83V166.51h12.11Z"/><path class="cls-1" d="M115.17,224.22c3.2,0,5.7-3.2,5.7-7.48,0-8.55-7.84-10.33-16-17.81v2.85c.3,13.41,5,22.44,10.34,22.44"/><path class="cls-1" d="M190.33,199.64c0-11.75,3.21-23.15,9.26-23.15,7.48,0,9.26,17.81,9.26,23.51,0,12.11-3.91,23.51-9.26,23.51-6.05,0-9.26-11.75-9.26-23.87"/><polygon class="cls-1" points="309.31 167.58 259.08 167.58 254.1 206.77 248.75 167.58 237.71 167.58 232.01 206.77 231.65 206.77 227.38 167.58 216.34 167.58 225.24 234.2 235.93 234.2 241.99 191.81 242.34 191.81 248.04 234.2 259.08 234.2 266.21 177.91 276.54 177.91 276.54 234.2 288.65 234.2 288.65 177.91 299.69 177.91 299.69 234.2 312.16 234.2 312.16 167.58 309.31 167.58"/><polygon class="cls-1" points="317.86 167.58 334.25 167.58 339.59 201.78 345.29 167.58 361.32 167.58 361.32 234.2 350.28 234.2 350.28 185.4 342.09 234.2 335.32 234.2 327.12 185.4 326.77 185.4 326.77 234.2 317.86 234.2 317.86 167.58"/><polygon class="cls-1" points="367.02 167.58 394.45 167.58 394.45 177.91 379.13 177.91 379.13 194.66 390.53 194.66 390.53 205.7 379.13 205.7 379.13 223.87 395.17 223.87 395.17 234.2 367.02 234.2 367.02 167.58"/></svg>