<?xml version="1.0" encoding="UTF-8"?><svg id="logos" xmlns="http://www.w3.org/2000/svg" viewBox="0 0 500 400"><defs><style>.cls-1{fill:blue;}</style></defs><path class="cls-1" d="M438.68,160.14c-4.21,0-7.61,3.4-7.61,7.59s3.4,7.6,7.61,7.6,7.64-3.39,7.64-7.6-3.42-7.59-7.64-7.59Zm0,13.71c-3.36,0-6.1-2.74-6.1-6.11s2.74-6.09,6.1-6.09,6.14,2.72,6.14,6.09-2.74,6.11-6.14,6.11Z"/><path class="cls-1" d="M439.6,168.28v-.03c1.37-.16,2.18-1.05,2.18-2.25,0-1.29-.8-2.25-2.54-2.25h-4v8.06h1.63v-3.31h.31c.71,0,.99,.07,1.32,.41,.32,.31,.82,1.02,1.09,1.57l.67,1.33h2.02l-.94-1.63c-.83-1.41-1.05-1.65-1.75-1.9Zm-1.03-1.08h-1.7v-2.21h1.51c1.1,0,1.68,.39,1.68,1.09,0,.57-.37,1.12-1.49,1.12Z"/><path class="cls-1" d="M409.26,175.15c-7.15,1.13-14.1,7.73-15.84,14.72-2.48,10.08-1.3,21.66,7.41,28.38,6.42,4.93,16.64,5.57,24.1,2.48h0c3.73-1.73,7.39-4.92,9.46-8.67,4.43-8.1,4.16-20.41-.88-28.15-5.56-8.13-14.96-10.34-24.25-8.76Zm9.23,41.2c-2.42,1.28-5.88,1.08-8.05-.54-4.85-4.61-5.39-11.05-5.51-17.61,0-6.11,.82-11.9,4.98-16.34,1.99-1.73,4.96-2.16,7.51-1.35,6.2,2.98,6.91,10.02,7.45,16.3-.21,7.3-.11,15.15-6.38,19.55Z"/><path class="cls-1" d="M218.44,174.98c-7.46,.49-14.59,6.45-17.17,13.48-3.1,9.48-2.39,21.66,5.39,28.7,6.52,6.22,17.83,7.04,25.87,3.57,2.32-1.13,4.48-2.81,6.42-4.82,7.2-7.73,7.47-21.48,2.81-30.48-4.8-8.33-13.92-11.64-23.34-10.45Zm8.92,40.27l-1.93,1.36c-2.34,1.08-5.56,.93-7.63-.65-5.02-4.49-5.45-11.09-5.61-17.7,.16-6.08,.81-12.03,5.18-16.36,1.9-1.62,4.76-2.01,7.2-1.36,5.03,1.83,6.31,7.2,7.24,11.75,.76,7.91,.91,16.9-4.43,22.95Z"/><path class="cls-1" d="M183.35,179.27c-8.74-4.88-21.3-2.29-31.19-2.99-.53,.12-1.02,.77-.75,1.36,1.24,1.89,3.7,3.3,4.19,5.52v30.65c-.27,2.55-2.46,4.11-4.13,6.01-.21,.42-.21,1.18,.33,1.45l19.28,.12c4.61-.12,9.14-.72,12.8-3.25,5.31-3.58,8.28-9.1,9.13-15,1.3-9.43-1.39-18.68-9.66-23.87Zm-5.35,31.83c-1.19,1.73-2.81,3.46-4.65,4.28-1.83,.81-3.87,1.18-6.08,1.18v-35.36c4.49-.32,8.67,1.75,10.9,5.74,3.62,6.84,3.54,17.39-.18,24.16Z"/><path class="cls-1" d="M147.09,206.87c-2.06,1.74-3.2,4.12-5.23,5.95-3.09,3.8-7.68,4.44-12.53,4.01v-32.53c-.08-2.72,2.32-4.4,3.93-6.39,.27-.5,.16-1.25-.37-1.52l-18.7-.06-.66,.37c-.21,.4-.16,.71-.04,1.15,1.45,1.78,3.78,3.35,4.16,5.73v30.7l-.7,1.75c-.87,1.61-3.19,2.7-3.51,4.54,.16,.65,.91,.82,1.51,.82l30.47-.12c1.03-4.6,2.38-9.03,3.12-13.7-.15-.7-.91-.81-1.45-.7Z"/><path class="cls-1" d="M106.55,213.75c-2.32,2.76-4.1,5.79-6.85,8.29-4.65,4.78-11.38,4.66-17.92,4.34v-26.16h8.84c4.32-.55,7.14,3.24,9.83,6.06,.55,.39,1.36,.21,1.74-.32l.09-16.46-.37-.75c-2.16-.87-2.8,2.04-4.37,3.03-3.63,4.81-10.41,2.44-15.76,3.03v-22.49c3.68-.04,7.54-.26,11.16,.18,4.64,.5,8.37,4.65,11.07,8.39l.98,.22c.54-.17,.98-.77,.92-1.3l-.76-12.89-42.2-.16-1.01,.49c-.23,.38-.32,.98-.11,1.41,2.01,2.92,5.51,5.2,6.15,8.66,.32,14.56,.32,29.45,0,44.02-.54,3.53-4.22,5.75-6.15,8.72-.32,.59-.05,1.54,.6,1.81h43.01l2.36-12.8c0-1.86,1.41-3.8,.06-5.41-.37-.06-.97-.22-1.3,.1Z"/><path class="cls-1" d="M341,218.7c-1.25-.47-1.86-1.58-2.65-3.49-5.15-12.95-9.46-26.27-14.64-39.1l-16.01,.05c-.53,.07-.85,.65-.91,1.2,.27,1.03,1.4,1.35,2.22,1.86,1.18,.91,2.75,1.78,3.45,3.18-3.89,10.35-7.35,20.8-11.56,30.92-1.14,2.55-3.52,4.66-5.66,6.44-.28,.42-.12,1.14,.35,1.35h12.87l.86-.49c.28-2.16-2.68-2.81-3.24-4.76-.43-3.31,1.34-6.02,2.23-9l14.15-.11,.33,.16,1.99,5.91c1.25,2.92-1.68,4.76-3.45,6.6-.21,.54-.42,1.42,.32,1.68h19.32c1.6-.01,1.65-1.79,.04-2.41Zm-31.26-15.9l5.69-16.34c2.01,5.16,3.89,10.78,5.78,16.19h0c-3.95,.27-7.62,.11-11.48,.16Z"/><path class="cls-1" d="M375.11,178.5c-8.91-4.16-19.56-1.72-29.89-2.38l-.85,.44c-.07,.32-.28,.76,0,1.02,1.39,1.95,3.88,3.41,4.16,5.8l.05,29.18c-.17,1.67-.63,3.53-2,4.73-2.19,1.37-2.52,3.82-.07,3.82h0c2.47,0,4.55,0,6.97,0,7.68-.32,16.07,1.03,22.33-2.65,5.61-3.14,9.13-8.93,10.05-14.89,1.56-10.01-1.59-20.3-10.76-25.07Zm-4.05,32.16c-.88,1.9-2.83,3.53-4.59,4.45-1.89,.87-4,1.29-6.21,1.09l-.17-35.15c4.27-.32,8.22,1.3,10.54,5.03,4.05,6.88,4.1,17.49,.43,24.58Z"/><path class="cls-1" d="M290.62,218.9c-1.22-.48-2.22-1.59-3.01-3.49-.79-1.87-1.3-3.14-2.15-5.08-1.84-3.89-2.97-8.27-6.7-11.25l3.45-1.9c3.9-2.76,5.67-7.2,4.75-11.92-.91-4.16-4.9-7.58-9-8.22-8.87-1.57-18.83-.66-28.16-.81-.65,.15-.87,.85-.65,1.45,1.46,1.94,4.1,3.56,4.23,6.18v30.3c-.45,2.23-2.5,3.63-4.01,5.43-.37,.49-.28,1.35,.38,1.57l18.75,.05c.48-.11,1.02-.6,.82-1.19-1.25-2-3.84-3.41-4.28-5.73v-13.87c1.62-.06,2.77,.98,3.78,2.17,1.57,2.12,3.04,4.5,3.93,6.95,1.01,2.7,3.19,7.76,4.18,11.73l13.68-.09c1.6-.02,1.65-1.67,.03-2.29Zm-18.12-23.73c-2.17,1.52-4.67,1.95-7.47,1.89v-15.96c4.01-.17,8.35,.48,10.12,4.5,1.46,3.46,.15,7.3-2.65,9.57Z"/></svg>