<svg id="logos" xmlns="http://www.w3.org/2000/svg" viewBox="0 0 500 400"><defs><style>.cls-1{fill:blue;}</style></defs><title>froosh</title><path class="cls-1" d="M285.32,190.85a22.16,22.16,0,0,0-7.91-13.59c-5-4-10.83-5.18-17.13-4.44a3.62,3.62,0,0,1-2.19-.46,49.57,49.57,0,0,1-5-3.56,19.21,19.21,0,0,1-6.84-11.87c1.38-.16,2.67-.25,3.95-.45a4.42,4.42,0,0,0,3.57-4.65,4.3,4.3,0,0,0-4.28-4.15A25.92,25.92,0,0,0,240,149.3c-11.19,4.12-18.92,12-24.25,22.48a1.36,1.36,0,0,1-1.29.89A20.08,20.08,0,0,0,199.74,180a24.37,24.37,0,0,0-5.54,13.92,25,25,0,0,0,4.09,16.71c4.41,6.42,10.65,9.4,18.4,9.25A20.4,20.4,0,0,0,234,210.76c4.08-5.93,5.09-12.59,3.79-19.53-1.37-7.35-5.11-13.15-12-16.55-.19-.1-.37-.22-.67-.4a36.52,36.52,0,0,1,12.8-14.74c1.49,7.86,5.94,13.46,12.44,17.67a23.92,23.92,0,0,0-5.23,6.11,25.87,25.87,0,0,0-2.91,17.94,22.56,22.56,0,0,0,6.61,12.81,20.79,20.79,0,0,0,15.47,5.83c8-.19,14.11-3.63,18.19-10.48C285.85,203.66,286.55,197.36,285.32,190.85Zm-62,12.23a8.19,8.19,0,0,1-14.29.06,13.46,13.46,0,0,1-.14-13.49,7.7,7.7,0,0,1,7.81-4.31,8,8,0,0,1,7.06,5,13.42,13.42,0,0,1,1.23,6A13.06,13.06,0,0,1,223.34,203.08Zm47.79-.36a7.77,7.77,0,0,1-8.16,4.47c-3.34-.27-5.56-2.18-6.92-5.16a14.77,14.77,0,0,1,.58-12.61,8.2,8.2,0,0,1,14.34.13A13.59,13.59,0,0,1,271.13,202.72Z"/><path class="cls-1" d="M353.14,186.56a8.1,8.1,0,0,1,1.45,5q0,10.23,0,20.45c0,4.75,3.48,7.74,8,7a6.5,6.5,0,0,0,5.22-6.64q0-11.9,0-23.8a24.15,24.15,0,0,0-.2-3.51c-.79-5.33-3.55-9.19-8.66-11.12a20.23,20.23,0,0,0-13.3-.42,54.06,54.06,0,0,0-5.21,2.18v-1c0-4.24,0-8.49,0-12.73a18.25,18.25,0,0,0-.14-2.22,6.57,6.57,0,0,0-13.07,1.22v51.3c0,.25,0,.5,0,.74a6.57,6.57,0,0,0,5,6,6.32,6.32,0,0,0,7.34-3.35,9.78,9.78,0,0,0,.82-3.85c.08-6.69,0-13.38.05-20.07a10.19,10.19,0,0,1,.24-2.4,6.44,6.44,0,0,1,5.21-5.28A6.77,6.77,0,0,1,353.14,186.56Z"/><path class="cls-1" d="M307.41,208.15a11.93,11.93,0,0,1-6.57-1.19c-1.42-.62-2.79-1.35-4.22-1.92a6.21,6.21,0,0,0-4.35-.3c-3.74,1.26-5.2,6.51-2.55,9.63a12.59,12.59,0,0,0,3.46,2.73,26.07,26.07,0,0,0,12.36,2.82,18.88,18.88,0,0,0,11.54-3.42c6.82-4.82,8.58-17.07-1.23-22.2-2.59-1.35-5.38-2.31-8.08-3.47-1.41-.61-2.84-1.21-4.21-1.92a2.13,2.13,0,0,1-1.27-1.92,2.65,2.65,0,0,1,2.69-2.62,11.3,11.3,0,0,1,5.56,1.21,44.46,44.46,0,0,0,4.37,1.78,5.22,5.22,0,0,0,6.59-4.42,6.84,6.84,0,0,0-3.46-7,20.77,20.77,0,0,0-17.63-2.39,14.5,14.5,0,0,0-9.74,8.65c-2.24,5.58-1.75,12.73,5.86,16.14,2,.88,4,1.73,6,2.57s3.92,1.52,5.82,2.41a2.47,2.47,0,0,1,1.59,2.93A2.69,2.69,0,0,1,307.41,208.15Z"/><path class="cls-1" d="M137.17,186.11v7.3c0,6.41,0,12.83,0,19.24a6.43,6.43,0,0,0,5.53,6.37,6.34,6.34,0,0,0,7.18-4.26,9.78,9.78,0,0,0,.47-3.09c0-8.06,0-16.12,0-24.17v-1.39h1.13c1.33,0,2.66,0,4-.08a5.34,5.34,0,0,0,5-3.88,7.54,7.54,0,0,0,0-4.21,4.49,4.49,0,0,0-3-3.3,21.45,21.45,0,0,0-4.09-.69,26.36,26.36,0,0,0-2.95,0c0-1.87-.13-3.63,0-5.37.16-1.59.92-2.14,2.54-2.31.46-.05.93-.05,1.39-.08,2.71-.21,4.41-1.63,4.91-4.12.65-3.21-.25-5.69-2.74-6.81a15.28,15.28,0,0,0-4.27-1.11,13.26,13.26,0,0,0-14.07,8.1,17.38,17.38,0,0,0-1.12,7.28c0,1.45,0,2.89,0,4.42-.49,0-.85,0-1.22,0a20.34,20.34,0,0,0-3.12.41c-2.8.74-4.09,2.77-4,6.07a5.26,5.26,0,0,0,4.28,5.43,20.83,20.83,0,0,0,2.86.27C136.33,186.14,136.72,186.11,137.17,186.11Z"/><path class="cls-1" d="M193.55,181.72a6.85,6.85,0,0,0-2.5-7.83c-2.89-2-5.85-1.55-8.66.09a43.3,43.3,0,0,0-4.35,3.33l-.22-.33a7.16,7.16,0,0,0-7.55-3.41c-3.1.51-5.26,3.28-5.26,6.8q0,15.9,0,31.79c0,.34,0,.68.05,1a6.55,6.55,0,0,0,13.08-.56c0-2.48,0-5,0-7.44,0-3.8,0-7.62.19-11.42a6.39,6.39,0,0,1,4.32-6.13c1.16-.45,2.35-.78,3.51-1.21,1.7-.64,3.42-1.26,5.06-2A4.54,4.54,0,0,0,193.55,181.72Z"/><path class="cls-1" d="M371.13,248.73c-.2-1-1-1.41-2.25-1.22s-1.45.05-1.46-1.28c0-3.32,0-6.63,0-9.94,0-2.45,0-4.9,0-7.34,0-1.42-.53-1.88-1.93-1.7a16.57,16.57,0,0,1-5.07,0,1.63,1.63,0,0,0-1.83,1,2.62,2.62,0,0,0,.06,2.74,1.8,1.8,0,0,0,2,.56l.27-.07c.56-.13.92.05,1,.66.06,1.17.11,2.33.17,3.74-.33-.26-.46-.34-.57-.45a6.34,6.34,0,0,0-10.14,2A12.06,12.06,0,0,0,351,248a6.68,6.68,0,0,0,7.93,4.09,6,6,0,0,0,3.55-2.55c0,.34,0,.49,0,.64.12,1.52.48,1.74,2,1.57a27.82,27.82,0,0,1,3,0,9.9,9.9,0,0,0,2.11,0C370.86,251.41,371.41,250.15,371.13,248.73Zm-10.28-2.2a2.69,2.69,0,0,1-4.59-.54,18.71,18.71,0,0,1-.76-2.8,22.93,22.93,0,0,1,1-3.44c.76-1.62,2.31-1.84,3.67-.7A5.63,5.63,0,0,1,360.85,246.53Z"/><path class="cls-1" d="M255.07,233.71a6,6,0,0,0-5.48,2.06c0-2.54,0-4.76,0-7,0-1.34-.39-1.58-1.72-1.54-1.53,0-3.07,0-4.6,0a7.66,7.66,0,0,0-.83,0c-1.22.15-1.93,1.41-1.66,2.95.2,1.15.84,1.54,2.18,1.26.55-.11.84.07.9.6a11.31,11.31,0,0,1,.06,1.3c0,5.27,0,10.53,0,15.79a3.09,3.09,0,0,0,.16,1.37,2.53,2.53,0,0,0,1.16,1.15c1.69.57,2.71-.18,2.86-1.89a14.52,14.52,0,0,0,2,1.67,6.74,6.74,0,0,0,9.27-2.72,12.52,12.52,0,0,0,.07-11.94A5.42,5.42,0,0,0,255.07,233.71Zm-.56,12.54a2.06,2.06,0,0,1-2,1.31,2.19,2.19,0,0,1-2.25-1.32,27.07,27.07,0,0,1-.89-3.22,17,17,0,0,1,1.07-3.35c1-1.87,3.11-1.8,4,.14A7.6,7.6,0,0,1,254.51,246.25Z"/><path class="cls-1" d="M188.76,247.49c-1.24.19-1.33.12-1.34-1.2,0-3.48,0-6.95,0-10.42,0-1.58-.43-1.86-2-1.66a27.18,27.18,0,0,1-3.38,0,14.8,14.8,0,0,0-1.48-.07c-1.31.13-2,1.33-1.72,3,.17,1.09.85,1.54,2.14,1.22.76-.19.92.23.92.75,0,2,0,3.9-.16,5.83a3.51,3.51,0,0,1-.93,1.77,2.34,2.34,0,0,1-2.61.75,2.09,2.09,0,0,1-1.47-2c0-.37-.07-.74-.08-1.11,0-2.91,0-5.83,0-8.74,0-1.41-.37-1.66-1.75-1.45a17.9,17.9,0,0,1-2.84.12c-.7,0-1.41-.19-2.12-.16-1.36.07-2.11,1.28-1.87,2.87.18,1.2.82,1.62,2.24,1.32.56-.12.75.12.83.56a5.77,5.77,0,0,1,.07,1c0,2.29,0,4.59,0,6.88s.82,4.16,3.08,4.92a10,10,0,0,0,3.82.36,7,7,0,0,0,4.57-2.5c.13,2.14.48,2.36,2.37,2.07a10.49,10.49,0,0,1,2.74.07,2.24,2.24,0,0,0,2.28-.64,2.78,2.78,0,0,0,.34-2.66A1.35,1.35,0,0,0,188.76,247.49Z"/><path class="cls-1" d="M342.69,234.36a9.58,9.58,0,0,0-7.25-.08c-3.36,1.31-4.87,4-5.36,7.42-.53,3.74,1,7.5,3.88,9.24a10.7,10.7,0,0,0,10.93-.36,4.28,4.28,0,0,0,1.83-2.69,2.11,2.11,0,0,0-1.51-2.53,2.83,2.83,0,0,0-3,.75,13.09,13.09,0,0,1-1,1,3.14,3.14,0,0,1-3.38.56,3,3,0,0,1-2.08-2.52c-.15-1,0-1.16,1-1.18,1.42,0,2.85,0,4.27,0v0c1.52,0,3,0,4.55,0a1.29,1.29,0,0,0,1.39-1A7.7,7.7,0,0,0,342.69,234.36Zm-2.33,5.74h-1.67c-.7,0-1.42,0-2.12,0-.47,0-.83-.22-.57-.76a3.09,3.09,0,0,1,2.77-1.72,2.32,2.32,0,0,1,2.35,1.17C341.62,239.67,341.38,240.09,340.36,240.1Z"/><path class="cls-1" d="M272.19,233.66c-3.27.1-6,1.26-7.5,4.4a12,12,0,0,0-.95,3.65,10.27,10.27,0,0,0,1.38,7,7.88,7.88,0,0,0,6.7,3.58c5.25,0,8.21-2.14,9.23-6.13a14.56,14.56,0,0,0,.36-2.29C281.87,238.29,279,233.45,272.19,233.66Zm3,12.43a2.59,2.59,0,0,1-2.47,1.78,2.35,2.35,0,0,1-2.49-1.27,25.62,25.62,0,0,1-1.08-3.41,26.72,26.72,0,0,1,.73-3.21,2.71,2.71,0,0,1,3-1.9,2.66,2.66,0,0,1,2.56,2.18A9.45,9.45,0,0,1,275.2,246.09Z"/><path class="cls-1" d="M147.08,227.28a8.71,8.71,0,0,0-7.2.4,4.6,4.6,0,0,0-2.55,3.94c0,.34-.06.68-.1,1-.17,1.21-.38,1.42-1.56,1.51a1.53,1.53,0,0,0-1.54,1.33c-.33,1.6.17,2.33,1.79,2.52a1.78,1.78,0,0,1,.63.09c.25.17.63.44.63.67,0,2.66,0,5.32,0,8,0,.74-.3,1-1,.8a1.38,1.38,0,0,0-1.73.51,2.79,2.79,0,0,0,0,2.92c.47.85,1.3.88,2.19.83,1.69-.1,3.38-.11,5.08-.12.7,0,1.41.14,2.12.14a1.73,1.73,0,0,0,1.8-1.2,2.63,2.63,0,0,0-.28-2.72,1.71,1.71,0,0,0-1.25-.41c-1.38.1-1.41.13-1.43-1.3,0-2.07,0-4.15,0-6.22,0-1.83,0-1.83,1.81-2,1.36-.14,1.69-.56,1.67-2.12,0-1.17-.49-1.62-1.74-1.68H144a1.07,1.07,0,0,1-1.19-1,8.15,8.15,0,0,1-.06-1.48c.13-1.16.71-1.54,2-1.33a2.08,2.08,0,0,0,.7,2.38,2.62,2.62,0,0,0,2.64.26,2.33,2.33,0,0,0,1.46-2.09A3.43,3.43,0,0,0,147.08,227.28Z"/><path class="cls-1" d="M294.59,242.89a1.79,1.79,0,0,0-1.4,1.93,14.78,14.78,0,0,1-.05,1.76c-.09.64-.35,1.23-1.17,1.15s-1-.62-1-1.25c0-2.51,0-5,0-7.52,0-.71.33-.91,1-.89.93,0,1.86,0,2.79,0,1.33-.08,1.91-.7,1.89-1.91a1.76,1.76,0,0,0-1.94-2,22.54,22.54,0,0,0-2.6,0c-.89.07-1.15-.32-1.13-1.13,0-1.17,0-2.35,0-3.53s-.43-1.56-1.38-1.64a9.48,9.48,0,0,0-2.13,0c-1.21.17-1.65.71-1.68,1.94,0,1,0,2,0,3,0,1.17-.1,1.28-1.24,1.34a1.78,1.78,0,0,0-1.88,1.87,1.84,1.84,0,0,0,1.91,2c.8,0,1,.34,1,1.06,0,1.42,0,2.85,0,4.27h0c0,1.43-.05,2.85,0,4.28a4.13,4.13,0,0,0,2.61,4,7.77,7.77,0,0,0,5.27.26,5.81,5.81,0,0,0,3.49-7.89A2,2,0,0,0,294.59,242.89Z"/><path class="cls-1" d="M311,242.89a1.78,1.78,0,0,0-1.42,1.9c0,.56,0,1.12,0,1.67s-.29,1.33-1.17,1.27-1-.67-1-1.33c0-2.47,0-5,0-7.43,0-.69.31-.92,1-.9a26.73,26.73,0,0,0,3,0c1.3-.12,1.73-.71,1.69-2.06a1.67,1.67,0,0,0-1.82-1.79,20.12,20.12,0,0,0-2.69,0c-.89.07-1.15-.31-1.13-1.13,0-1.14,0-2.29,0-3.44s-.53-1.73-1.78-1.76a9.43,9.43,0,0,0-1.76.07c-1.2.19-1.63.72-1.65,1.95,0,1,0,2,0,3s-.12,1.24-1.28,1.31a1.94,1.94,0,0,0,0,3.88c.86,0,1.09.38,1.08,1.11v4.28h0c0,1.36,0,2.73,0,4.09a4.29,4.29,0,0,0,3.46,4.46,8.07,8.07,0,0,0,4.49-.06,5.83,5.83,0,0,0,3.4-7.94A1.94,1.94,0,0,0,311,242.89Z"/><path class="cls-1" d="M216.93,242.91a1.76,1.76,0,0,0-1.3,1.9,13.25,13.25,0,0,1-.06,1.67c-.09.66-.29,1.33-1.18,1.25s-.95-.7-1-1.35c0-2.48,0-4.95,0-7.43,0-.63.26-.9.89-.88,1,0,1.93.05,2.88,0,1.37-.08,1.89-.68,1.86-2s-.64-1.81-2-1.85q-1.44,0-2.88,0c-.57,0-.8-.23-.8-.76v-2.61c0-2.78-.2-3.21-3.49-2.89-1.29.12-1.7.68-1.72,2,0,1,0,2,0,3.07,0,.79-.25,1.2-1.12,1.22-1.34,0-2,.71-2,1.9a1.84,1.84,0,0,0,2,2c.77,0,.94.37.94,1,0,1.46,0,2.91,0,4.37H208c0,1.46,0,2.91,0,4.37a4.14,4.14,0,0,0,3.1,4,7.84,7.84,0,0,0,5,0,5.84,5.84,0,0,0,3.19-7.89A1.94,1.94,0,0,0,216.93,242.91Z"/><path class="cls-1" d="M165.15,234.87a5.36,5.36,0,0,0-7.86,1.65l-.48,1V236c0-1.75-.36-2-2.07-1.69a7.2,7.2,0,0,1-2.45,0c-2-.34-2.88.36-2.85,2.38,0,1.46.76,2.12,2.12,1.76.79-.22,1,.17,1,.74,0,2.54,0,5.08,0,7.62,0,.68-.34,1-1.08.77a1.34,1.34,0,0,0-1.71.52,2.9,2.9,0,0,0,0,2.93c.47.89,1.3.85,2.18.8,1.66-.09,3.32-.11,5-.11.74,0,1.48.14,2.22.14,1.42,0,2.15-1,2-2.7-.1-1.31-.78-1.81-2.24-1.55-.5.09-.82,0-.85-.52-.13-2.48-.27-5,.76-7.31a2.85,2.85,0,0,1,2.69-1.79c-.43,2,.11,3.15,1.64,3.47a2.91,2.91,0,0,0,3.41-2.5A3.92,3.92,0,0,0,165.15,234.87Z"/><path class="cls-1" d="M326.49,247.49c-1.25.08-1.29.13-1.31-1.15,0-3.1,0-6.2,0-9.29h-.08v-8c0-1.68-.3-1.88-2-1.79a33.63,33.63,0,0,1-4.14,0c-2-.13-3.15,1.15-2.61,3.14a1.45,1.45,0,0,0,1.88,1.17c1-.19,1.17-.09,1.18.9q0,7,0,14c0,1.09-.16,1.18-1.2,1a1.47,1.47,0,0,0-1.9,1.27c-.45,2,.73,3.2,2.79,3,1.68-.14,3.38-.11,5.08-.12.74,0,1.48.15,2.22.13a1.69,1.69,0,0,0,1.72-1.3,2.61,2.61,0,0,0-.36-2.64A1.77,1.77,0,0,0,326.49,247.49Z"/><path class="cls-1" d="M202.72,247.52c-.92.23-1.18-.13-1.18-1,0-1.8,0-3.6,0-5.39h-.11c0-2,0-4,0-6,0-.68-.39-1.17-1.12-1a17.1,17.1,0,0,1-5.71,0,1.34,1.34,0,0,0-.28,0,2.29,2.29,0,0,0-1.68,2.87c.21,1.23.85,1.64,2.23,1.33.87-.19.88.38.88.9,0,2.45,0,4.9,0,7.35,0,.77-.3,1.15-1.14.9a1.34,1.34,0,0,0-1.73.68A2.75,2.75,0,0,0,193,251a2,2,0,0,0,2.21.83,21.87,21.87,0,0,1,6.66,0c2,.28,3.11-1,2.7-3C204.36,247.76,203.74,247.27,202.72,247.52Z"/><path class="cls-1" d="M228.87,245.14a3.56,3.56,0,1,0,3.56,3.57A3.51,3.51,0,0,0,228.87,245.14Z"/><path class="cls-1" d="M228.83,235.22a3.51,3.51,0,0,0-3.53,3.54,3.57,3.57,0,1,0,7.13,0A3.49,3.49,0,0,0,228.83,235.22Z"/><path class="cls-1" d="M201.57,228.72a3.2,3.2,0,1,0-3.24,3.11A3.16,3.16,0,0,0,201.57,228.72Z"/></svg>