<?xml version="1.0" encoding="UTF-8"?><svg id="logos" xmlns="http://www.w3.org/2000/svg" viewBox="0 0 500 400"><defs><style>.cls-1{fill:blue;}</style></defs><g><path class="cls-1" d="M119.89,164.07h13.38v60.33h38.82v11.74h-52.2v-72.07Z"/><path class="cls-1" d="M327.89,164.07h30.99c15.34,0,25.23,8.96,25.23,22.75s-9.88,22.86-25.23,22.86h-17.61v26.46h-13.38v-72.07Zm28.62,34.29c8.44,0,13.59-4.63,13.59-11.53s-5.05-11.22-13.59-11.22h-15.24v22.75h15.24Z"/></g><g><path class="cls-1" d="M212,163.83c8.53,.8,27.07,4.15,40.29,15.2,10.91,9.13,6.39,17.5-7.45,19.99-31.26,5.62-12.42,36.36-36.27,37.38-12.83,.55-22.77-6.58-28.2-12.56-5.76-6.32-9.74-12.32-9.74-24.09,0-11.12,8.93-23.02,15.59-28.8,7.68-6.66,15.56-8.09,25.79-7.13Zm20.18,8.91c-20.11-7.52-38.97,1.21-46.77,15.71-9.17,17.06,10.44,37.04,21.25,36.03,10.07-.94,10.96-21.17,29.65-26.1,20.07-5.55,12.43-19.45-4.14-25.65Z"/><path class="cls-1" d="M279.88,236.17c-8.53-.8-27.07-4.15-40.29-15.2-10.91-9.13-6.39-17.5,7.45-19.99,31.26-5.62,12.42-36.36,36.27-37.38,12.83-.55,22.77,6.58,28.2,12.56,5.76,6.32,9.74,12.32,9.74,24.09,0,11.12-8.93,23.02-15.59,28.8-7.68,6.66-15.56,8.09-25.79,7.13Zm-20.18-8.91c20.11,7.52,38.97-1.21,46.77-15.71,9.17-17.06-10.44-37.04-21.25-36.03-10.07,.94-10.96,21.17-29.65,26.1-20.07,5.55-12.43,19.45,4.14,25.65Z"/></g></svg>