<?xml version="1.0" encoding="UTF-8"?><svg id="logos" xmlns="http://www.w3.org/2000/svg" viewBox="0 0 500 400"><defs><style>.cls-1,.cls-2{fill:blue;}.cls-2{fill-rule:evenodd;}</style></defs><path class="cls-2" d="M181.18,257.28c-1.98-1.08-3.02-1.98-3.02-3.25,0-1.61,1.41-2.63,3.66-2.63,2.61,0,4.88,1.08,4.88,1.08l1.84-5.58s-1.67-1.3-6.62-1.3c-6.86,0-11.64,3.93-11.64,9.47,0,3.12,2.21,5.54,5.19,7.26,2.4,1.39,3.25,2.34,3.25,3.78s-1.18,2.67-3.43,2.67c-3.33,0-6.45-1.72-6.45-1.72l-1.94,5.58s2.89,1.94,7.75,1.94c7.07,0,12.14-3.47,12.14-9.74,.04-3.39-2.52-5.77-5.62-7.57h.02Zm28.18-11.72c-3.47,0-6.22,1.63-8.33,4.16l-.12-.04,3.02-15.82h-7.88l-7.63,40.21h7.88l2.63-13.75c1.03-5.19,3.7-8.39,6.22-8.39,1.76,0,2.44,1.18,2.44,2.89,0,1.08-.12,2.4-.35,3.47l-2.98,15.73h7.88l3.1-16.27c.35-1.72,.58-3.78,.58-5.13-.04-4.42-2.38-7.11-6.45-7.11v.04Zm24.21,0c-9.47,0-15.73,8.56-15.73,18.07,0,6.12,3.78,11,10.85,11,9.28,0,15.59-8.33,15.59-18.07,0-5.64-3.33-11-10.69-11h-.02Zm-3.87,23.03c-2.67,0-3.83-2.3-3.83-5.13,0-4.51,2.34-11.87,6.62-11.87,2.79,0,3.7,2.4,3.7,4.73,0,4.86-2.34,12.26-6.49,12.26Zm34.67-23.03c-5.31,0-8.33,4.65-8.33,4.65h-.12l.45-4.2h-6.95c-.35,2.87-.95,7.17-1.61,10.42l-5.46,28.8h7.84l2.17-11.64h.14s1.61,1.03,4.63,1.03c9.24,0,15.28-9.47,15.28-19.06,.04-5.27-2.34-10.01-8.06-10.01h.02Zm-7.53,23.14c-2.07,0-3.25-1.14-3.25-1.14l1.3-7.38c.91-4.88,3.47-8.17,6.22-8.17,2.4,0,3.12,2.21,3.12,4.32,0,5.13-3.02,12.36-7.4,12.36h0Zm26.86-34.45c-2.52,0-4.51,1.98-4.51,4.55,0,2.34,1.49,3.93,3.7,3.93h.12c2.44,0,4.55-1.63,4.63-4.55,0-2.3-1.53-3.93-3.93-3.93h-.02Zm-11,39.8h7.88l5.36-27.87h-7.9l-5.33,27.87Zm33.25-27.91h-5.46l.27-1.3c.45-2.67,2.07-5.09,4.65-5.09,1.41,0,2.52,.37,2.52,.37l1.53-6.14s-1.39-.68-4.28-.68-5.58,.81-7.71,2.63c-2.67,2.3-3.93,5.58-4.55,8.89l-.23,1.3h-3.66l-1.14,5.91h3.66l-4.16,22h7.9l4.16-22h5.42l1.08-5.91h0v.02Zm18.94,.04s-4.92,12.41-7.13,19.17h-.12c-.14-2.17-1.94-19.17-1.94-19.17h-8.29l4.73,25.6c.12,.58,.04,.91-.14,1.3-.91,1.76-2.44,3.47-4.28,4.73-1.49,1.08-3.12,1.76-4.42,2.21l2.17,6.68c1.61-.35,4.88-1.63,7.71-4.28,3.6-3.37,6.91-8.56,10.32-15.63l9.61-20.61h-8.21Z"/><g><path class="cls-1" d="M287.61,134.65h0c-.1-.53-.58-.83-.95-.89h.02c-.39-.06-8.85-.64-8.85-.64,0,0-5.11-5.1-5.69-5.74-.26-.22-.48-.4-.96-.59l-3.9,95.73,32.28-6.97c0-.06-11.89-80.33-11.95-80.9Z"/><path class="cls-1" d="M269.01,126.27c-.56-.09-1.16,0-1.48,.07-.06,0-1.28,.39-3.29,1.03-1.88-5.62-5.36-10.79-11.43-10.79h-.52c-1.74-2.25-3.87-3.29-5.69-3.29-14.14,.06-20.86,17.7-22.99,26.67-5.48,1.67-9.37,2.92-9.88,3.04-3.04,.97-3.16,1.03-3.56,3.93-.33,2.25-8.33,64.24-8.33,64.24l62.44,11.68h.02s4.71-96.56,4.71-96.56v-.03Zm-17.16,4.33v.58c-3.43,1.03-7.17,2.19-10.92,3.35,2.13-8,6.08-11.95,9.49-13.44v.02c.85,2.19,1.43,5.29,1.43,9.49Zm-5.62-13.42c.58,0,1.22,.19,1.8,.58-4.53,2.13-9.37,7.48-11.43,18.22-2.98,.91-5.93,1.8-8.64,2.65,2.46-8.13,8.13-21.44,18.28-21.44Zm2.38,47.72s-3.68-1.94-8.13-1.94c-6.6,0-6.91,4.14-6.91,5.17,0,5.69,14.78,7.82,14.78,21.11,0,10.46-6.66,17.18-15.57,17.18-10.71,0-16.21-6.66-16.21-6.66l2.83-9.49s5.62,4.84,10.4,4.84c3.1,0,4.38-2.46,4.38-4.26,0-7.42-12.14-7.75-12.14-19.89,0-10.19,7.36-20.14,22.14-20.14,5.81,.06,8.58,1.67,8.58,1.67h.02l-4.2,12.41Zm12.22-36.43c-1.55,.52-3.35,1.03-5.29,1.61v-1.16c0-3.49-.52-6.33-1.28-8.52,3.16,.45,5.29,4.01,6.6,8.06h-.02Z"/></g></svg>