<svg id="logos" xmlns="http://www.w3.org/2000/svg" viewBox="0 0 500 400"><defs><style>.cls-1{fill:blue;}</style></defs><title>moet_hennessy</title><path class="cls-1" d="M110.84,191c4.43-.25,5.48-1,5.42-3.57-.25-9.24-.25-18.73-.62-27.79h-.12c-4.93,10.66-10.48,21.75-14.6,32h-.87c-1.11-2.41-2.77-7.15-4.74-11.09s-6.1-13.12-9.73-21.63h-.13c-.06,10-.49,19.47-.49,25.08,0,5,1.11,7,5.61,7v1.23H77.75V191c3.51-.62,4.81-1.48,5.18-6.47.61-7.89.92-19.9.92-23.1,0-6.29-.86-6.78-5.54-7v-1.23H88.47l11,24.89c.86,2,1.78,3.64,2.59,6l14.84-30.87h9.49v1.23c-4.87.31-5.91,1.48-5.91,6.23,0,2.4.43,15.95.61,27.1.06,2.47,1.48,3,5.3,3.27v1.23H110.84V191"/><path class="cls-1" d="M133.2,180.29c0,5.86,1.6,11.15,7.58,11.15s7.57-5.29,7.57-11.15-1.6-11.15-7.57-11.15-7.58,5.3-7.58,11.15m20.08,0c0,7.83-6.16,12.39-12.5,12.39s-12.51-4.56-12.51-12.39,6.16-12.38,12.51-12.38,12.5,4.56,12.5,12.38"/><path class="cls-1" d="M172.44,157.31a2.9,2.9,0,1,1-2.89,2.9,2.9,2.9,0,0,1,2.89-2.9m-.24,17.5c-.25-3.33-2.41-5.67-5.55-5.67-3.57,0-5.54,2.9-6.22,5.67Zm-10.72-17.5a2.9,2.9,0,1,1-2.9,2.9,2.89,2.89,0,0,1,2.9-2.9m-1.36,19a13.07,13.07,0,0,0-.43,3.63c0,5.49,3.33,10.29,9.06,10.29,2.46,0,4.43-.86,7.14-2.71l.74,1c-2.77,2.21-5.48,4.19-9.49,4.19A11.86,11.86,0,0,1,155.37,181c0-7.76,5.43-13.06,11.9-13.06,5.17,0,9.24,4.25,9.24,8.07,0,.25-.19.31-.62.31Z"/><path class="cls-1" d="M194,170.49h-4.31c-2.53,0-3.39.62-3.39,4.44v11.89c0,2.71,1.67,3.76,3.94,3.76a25.86,25.86,0,0,0,4.32-.49v1.23a16.32,16.32,0,0,1-6.23,1.36c-5.11,0-6.34-3.21-6.34-6.17V172.84c0-2-.12-2.22-.74-2.47s-2-.24-2-.86c0-.43.55-.86,1.05-1.36,4.13-4.18,4.68-5.05,5.3-5.05.36,0,.67.19.67,1v4.31H194v2.09"/><path class="cls-1" d="M245.3,170.74V159.9c0-4.68-.74-5.55-5.67-5.55v-1.23h15.84v1.23c-4.13,0-4.87.87-4.87,5.55v25.51c0,4.68.74,5.54,4.87,5.54v1.23H239.33V191c5.23,0,6-.86,6-5.54V172.84H220.66v12.57c0,4.68.74,5.54,5.73,5.54v1.23H210.25V191c4.37,0,5.11-.86,5.11-5.54V159.9c0-4.68-.74-5.55-4.81-5.55v-1.23h15.66v1.23c-4.81,0-5.55.87-5.55,5.55v10.84H245.3"/><path class="cls-1" d="M274.69,174.81c-.25-3.33-2.4-5.67-5.55-5.67-3.57,0-5.54,2.9-6.22,5.67h11.77m-12.08,1.48a13.46,13.46,0,0,0-.43,3.63c0,5.49,3.33,10.29,9.06,10.29,2.46,0,4.43-.86,7.15-2.71l.73,1c-2.77,2.21-5.48,4.19-9.48,4.19A11.86,11.86,0,0,1,257.87,181c0-7.76,5.42-13.06,11.89-13.06,5.18,0,9.24,4.25,9.24,8.07,0,.25-.18.31-.61.31Z"/><path class="cls-1" d="M280.73,191.2c3.32,0,4.06-.87,4.06-5.55V174.13c0-1.42-.31-1.66-1.48-2.4-.49-.31-.74-.43-.74-.8s.37-.68,1.05-1.05c2.09-1.29,3.76-2.34,4.56-2.34a.66.66,0,0,1,.68.74v2.52a13.85,13.85,0,0,1,8.19-2.89c3.64,0,8.44,1.36,8.44,8.56v9.18c0,4.68.74,5.55,3.63,5.55v1H297.54v-1c2.9,0,3.64-.87,3.64-5.55v-8.13c0-5-2.16-7.52-6.41-7.52-2.53,0-4.68,1.91-5.66,3.08v12.57c0,4.68.73,5.55,3.75,5.55v1H280.73v-1"/><path class="cls-1" d="M310.67,191.2c3.32,0,4.06-.87,4.06-5.55V174.13c0-1.42-.31-1.66-1.48-2.4-.49-.31-.73-.43-.73-.8s.36-.68,1-1.05c2.1-1.29,3.76-2.34,4.56-2.34a.66.66,0,0,1,.68.74v2.52a13.85,13.85,0,0,1,8.19-2.89c3.64,0,8.44,1.36,8.44,8.56v9.18c0,4.68.74,5.55,3.64,5.55v1H327.48v-1c2.9,0,3.64-.87,3.64-5.55v-8.13c0-5-2.16-7.52-6.41-7.52-2.52,0-4.68,1.91-5.66,3.08v12.57c0,4.68.73,5.55,3.75,5.55v1H310.67v-1"/><path class="cls-1" d="M357.61,174.81c-.25-3.33-2.4-5.67-5.54-5.67-3.58,0-5.55,2.9-6.23,5.67h11.77m-12.07,1.48a13,13,0,0,0-.44,3.63c0,5.49,3.33,10.29,9.06,10.29,2.46,0,4.44-.86,7.15-2.71l.74,1c-2.78,2.21-5.48,4.19-9.49,4.19A11.86,11.86,0,0,1,340.79,181c0-7.76,5.42-13.06,11.89-13.06,5.18,0,9.24,4.25,9.24,8.07,0,.25-.18.31-.61.31Z"/><path class="cls-1" d="M378.56,173.27c0,.25-.13.49-.37.49a.71.71,0,0,1-.62-.37c-1.17-2.16-2.83-4.25-5.23-4.25a3.24,3.24,0,0,0-3.33,3.57c0,6.1,11.21,5,11.21,12.57,0,2.9-2.89,7.4-8.69,7.4-3.51,0-7.08-2-7.08-3.21,0-.37.62-2.77.62-3.32a.59.59,0,0,1,.67-.62c.87,0,1.3,5.91,6.16,5.91a4.19,4.19,0,0,0,4.25-4.37c0-6.16-11.21-5.79-11.21-12.57,0-3.27,2.9-6.59,8.32-6.59a17.37,17.37,0,0,1,4.74.8.52.52,0,0,1,.43.49l.13,4.07"/><path class="cls-1" d="M397,173.27c0,.25-.12.49-.37.49a.71.71,0,0,1-.62-.37c-1.17-2.16-2.83-4.25-5.23-4.25a3.24,3.24,0,0,0-3.33,3.57c0,6.1,11.21,5,11.21,12.57,0,2.9-2.89,7.4-8.68,7.4-3.52,0-7.09-2-7.09-3.21,0-.37.62-2.77.62-3.32a.6.6,0,0,1,.67-.62c.87,0,1.3,5.91,6.17,5.91a4.19,4.19,0,0,0,4.24-4.37c0-6.16-11.21-5.79-11.21-12.57,0-3.27,2.9-6.59,8.32-6.59a17.37,17.37,0,0,1,4.74.8.53.53,0,0,1,.44.49l.12,4.07"/><path class="cls-1" d="M411.33,168.4v1c-2.28.06-3,.74-3,2.22,0,2.15,4.19,10,5.79,16.2h.13c1.85-6,4.92-14.23,4.92-16s-1.17-2.09-2.71-2.4v-1h7.65v1c-1.48.61-2,1.23-3.52,5.17l-9,24.28c-1.42,3.88-3.33,7.88-6.59,7.88a2.23,2.23,0,0,1-2.47-2.16c0-1.54,1.11-2.15,4.25-2.83,1.73-.37,2.16-.49,3.45-4.06a27.52,27.52,0,0,0,1.48-4.62,3.43,3.43,0,0,0-.43-1.3l-7.83-19.16c-.8-1.91-1.41-2.71-3.26-3.2v-1h11.15"/><path class="cls-1" d="M195.27,232.33h-.48c-.89-2.72-2.42-4.27-4.45-4.27a3.43,3.43,0,0,0-3.55,3.22c0,5,9.82,4.07,9.82,10,0,2.42-2.18,5.62-6.74,5.62-1.32,0-4.34-.36-5-.93s-.69-3.82-.78-4.81h.45c.45,1.22,1.88,5.14,5.53,5.14,2,0,4.3-1.2,4.3-3.83,0-5.37-9.83-3.76-9.83-10,0-2.42,1.79-5,6.24-5a9.61,9.61,0,0,1,4.45.9v4"/><path class="cls-1" d="M208,227.7v.59c-2.3,0-2.63.66-2.63,1.56,0,1.31,2.24,5.61,5.23,13.53,2.2-5.11,5.28-11.56,5.28-13.17,0-1.2-.81-1.79-2.54-1.92v-.59h6.48v.59c-1.34.24-1.91.63-3.13,3.23-2.21,4.69-5.32,11.29-6.69,15.36h-.48l-7.05-17.09a2.17,2.17,0,0,0-2.24-1.5v-.59H208"/><path class="cls-1" d="M222.87,246c2.45,0,2.78-.42,2.81-2.69.06-3.88.12-8.06.12-12.37,0-2.27-.36-2.69-2.63-2.69v-.59h14.4l.62,3.4h-.47c-1.38-1.7-2.21-2.68-5-2.68h-2.57c-1.49,0-1.76.15-1.76,1.19v6.51h3.07c2.57,0,2.81-.39,3.26-2.6h.66V240h-.66c-.33-2.33-.84-2.89-3-2.89h-3.34v7.53c0,1,.44,1.25,1.91,1.25h3.94c2.84,0,3.41-.54,5.32-3.73h.57c-.3.77-.78,3.31-1,4.45H222.87V246"/><path class="cls-1" d="M248.59,236.84c4.54,0,6.45-.9,6.45-4.3,0-2.75-2.18-4.12-4.48-4.12-1.67,0-2,.35-2,1.55v6.87m-5.08,9.2c2.15,0,2.51-.42,2.51-2.69,0-4.42.12-8.18.09-12.37,0-2.27-.36-2.69-2.18-2.69v-.59h5.79c4.81,0,8.07,1.46,8.07,4.9s-3.56,4.3-4.42,4.51l4.93,7.28a2.93,2.93,0,0,0,2.56,1.65v.6h-3.31c-.27,0-.57-.09-1.22-1.11l-5.14-8h-2.6v5.8c0,2.27.36,2.69,2.6,2.69v.6h-7.68Z"/><path class="cls-1" d="M269.29,243.35c0,2.27.36,2.69,2.27,2.69v.6h-7.17V246c2,0,2.33-.42,2.33-2.69V231c0-2.28-.36-2.7-2.33-2.7v-.59H272v.59c-2.33,0-2.69.42-2.69,2.7v12.36"/><path class="cls-1" d="M293.87,233.64c-1-3.49-3.08-5.58-6.72-5.58-4.6,0-7.91,4.39-7.91,9.23,0,7.47,5.55,9,7.85,9,3.11,0,4.21-1.11,4.27-2.48l.12-2.24c.12-2.27-.36-2.69-2.69-2.69v-.6h7.47v.6c-1.94,0-2.21.42-2.24,2.69L294,245a12.9,12.9,0,0,1-6.75,1.86c-7.95,0-11-5.23-11-9.41,0-5.47,4.36-10,10.78-10a11.24,11.24,0,0,1,7.29,2.21c.15,1.11.06,2.66.09,4h-.54"/><path class="cls-1" d="M299.79,246c2.45,0,2.78-.42,2.81-2.69.06-3.88.12-8.06.12-12.37,0-2.27-.36-2.69-2.63-2.69v-.59h14.4l.63,3.4h-.48c-1.38-1.7-2.21-2.68-5-2.68h-2.57c-1.49,0-1.76.15-1.76,1.19v6.51h3.08c2.56,0,2.8-.39,3.25-2.6h.66V240h-.66c-.33-2.33-.83-2.89-3-2.89h-3.35v7.53c0,1,.45,1.25,1.91,1.25h3.94c2.84,0,3.41-.54,5.32-3.73H317c-.3.77-.78,3.31-1,4.45H299.79V246"/><rect class="cls-1" x="248.36" y="37.47" width="1.87" height="346.75" transform="translate(38 459.76) rotate(-89.9)"/></svg>