<?xml version="1.0" encoding="UTF-8"?><svg id="logos" xmlns="http://www.w3.org/2000/svg" viewBox="0 0 500 400"><defs><style>.cls-1{fill:blue;}</style></defs><rect class="cls-1" x="260.88" y="165.89" width="13.06" height="68.21"/><path class="cls-1" d="M215.89,163.72c-16.43,0-29.75,13.32-29.75,29.75v40.64h13.06v-40.64c0-9.22,7.47-16.69,16.69-16.69s16.69,7.47,16.69,16.69v40.64h13.06v-40.64c0-16.43-13.32-29.75-29.75-29.75Z"/><path class="cls-1" d="M141.15,163.72c-20.04,0-36.28,16.24-36.28,36.28s16.24,36.28,36.28,36.28v-13.06c-12.82,0-23.22-10.4-23.22-23.22s10.4-23.22,23.22-23.22c10.56,0,19.47,7.05,22.29,16.69h-28.82v13.06h42.23c.39-2.12,.59-4.3,.59-6.53,0-20.04-16.24-36.28-36.28-36.28Z"/><path class="cls-1" d="M289.18,193.47v40.64h13.06v-40.64c0-9.22,7.47-16.69,16.69-16.69v-13.06c-16.43,0-29.75,13.32-29.75,29.75Z"/><path class="cls-1" d="M358.85,163.72c-20.04,0-36.28,16.24-36.28,36.28h13.06c0-12.82,10.4-23.22,23.22-23.22s23.22,10.4,23.22,23.22-10.4,23.22-23.22,23.22v13.06c20.04,0,36.28-16.24,36.28-36.28s-16.24-36.28-36.28-36.28Z"/></svg>