<?xml version="1.0" encoding="UTF-8"?><svg id="logos" xmlns="http://www.w3.org/2000/svg" viewBox="0 0 500 400"><defs><style>.cls-1{fill:blue;}</style></defs><path class="cls-1" d="M368.23,154.23l-116.54-29-3.25,12.98-116.67,17.04,17.97,119.51,118.66-17.62-.1-3.39,70.65,18.34,29.27-117.85Zm-104.12,94.74l.77,4.89-112.01,16.81-16.5-111.8,111.02-16.5,1.37,8.75,5.17-21.24,109.75,27.44-27.44,109.55-72.13-17.89Z"/><path class="cls-1" d="M176.3,174.75h-19.74v42.77h13.42v-13.3h6.77c11.78,0,17-5.82,17-15.03s-5.68-14.43-17.45-14.43Zm-1.13,20.13h-5.46v-9.31h3.73c2.79,0,7.03,.52,7.03,4.42,0,3.61-2.24,4.89-5.31,4.89Z"/><rect class="cls-1" x="284.58" y="195.06" width="11.54" height="14.5"/><rect class="cls-1" x="298.67" y="188.24" width="13.01" height="29.28"/><rect class="cls-1" x="298.67" y="173.63" width="13.01" height="12.48"/><path class="cls-1" d="M335.49,208.66h-1.88c-3.29,0-3.71-1-3.71-3.86v-9.44h5.7v-7.13h-5.7v-9.68h-11.64v9.68h-4.38v7.13h4.22v11.16c0,10.74,1.87,11.88,17.4,10.98v-8.85Z"/><path class="cls-1" d="M210.42,185.5c-10.07,0-16.89,6.01-16.89,16.81s7.39,16.1,16.95,16.1,16.94-5.35,16.94-16.75c0-9.68-6.49-16.16-17-16.16Zm-.26,24.89c-3.02,0-5.12-2.55-5.12-8.44,0-3.5,1.2-7.84,5.24-7.84,3.06-.17,5,3.27,5,7.84,0,5.89-1.94,8.44-5.11,8.44Z"/><path class="cls-1" d="M240.65,194.42c0-1.55,1.31-2.2,3.36-2.2,.9,0,1.75,.24,2.39,.78,.62,.54,1.02,1.25,1.13,2.25h10.74c-.68-8.25-8.3-9.8-14.78-9.8s-14.1,2.31-14.1,10.28c0,12.05,18.26,8.08,18.26,13.06,0,2.2-1.94,2.79-3.75,2.79-1.14,0-2.16-.35-2.91-.95-.79-.65-1.25-1.6-1.25-2.85h-11.26c.62,8.37,8.14,10.57,14.95,10.57,10.92,0,16.04-4.4,16.04-10.87,0-11.64-18.82-8.73-18.82-13.06Z"/><path class="cls-1" d="M277.2,178.55h-11.65v9.68h-4.37v7.13h4.21v11.16c0,10.74,1.87,11.88,17.4,10.98v-8.85h-1.87c-3.31,0-3.71-1-3.71-3.86v-9.44h5.69v-7.13h-5.69v-9.68Z"/><path class="cls-1" d="M303.9,224.67v-.12s.92-.31,.92-1.63-1.01-2.31-2.97-2.31h-1.79c-.55,0-.98,.44-.98,.92v6.76c0,.5,.43,.94,.98,.94h2.38c1.95,0,3.11-1.22,3.11-2.5,0-1.81-1.65-2.06-1.65-2.06Zm-2.87-2.19h.98c.43,0,.73,.31,.73,.69s-.31,.69-.73,.69h-.98v-1.37Zm1.46,4.87h-1.46v-1.62h1.46c.61,0,.98,.38,.98,.81s-.37,.81-.98,.81Z"/><path class="cls-1" d="M310.85,225.55s1.1-.56,1.1-2.19-1.04-2.75-3.17-2.75h-1.95c-.55,0-.98,.44-.98,.94v6.75c0,.5,.43,.94,.98,.94s.98-.44,.98-.94v-2.19h1.16l1.34,2.62s.24,.5,.85,.5c.55,0,.98-.44,.98-.94,0-.44-.24-.81-.24-.81l-1.04-1.94Zm-2.07-1.31h-.98v-1.75h.98c.73,0,1.1,.38,1.1,.88s-.37,.87-1.1,.87Z"/><path class="cls-1" d="M317.5,221.3c-.16-.44-.49-.81-1.1-.81s-.94,.37-1.1,.81l-2.2,6.19s-.18,.44-.18,.75c0,.56,.43,1,.98,1s.83-.31,.98-.75l.24-.75h2.56l.24,.75c.15,.44,.43,.75,.98,.75s.98-.44,.98-1c0-.31-.18-.75-.18-.75l-2.2-6.19Zm-1.89,4.19l.67-2.12h.19l.67,2.12h-1.53Z"/><path class="cls-1" d="M326.92,220.66c-.55,0-.98,.44-.98,.94v3.69h-.12l-2.38-3.69c-.43-.66-.67-.94-1.28-.94-.55,0-.98,.44-.98,.94v6.75c0,.5,.43,.94,.98,.94s.98-.44,.98-.94v-3.69h.12l2.38,3.69c.43,.65,.67,.94,1.28,.94,.55,0,.98-.44,.98-.94v-6.75c0-.5-.43-.94-.98-.94Z"/><path class="cls-1" d="M332.41,220.6h-1.77c-.55,0-.98,.44-.98,.94v6.75c0,.5,.43,.94,.98,.94h1.77c2.26,0,3.97-1.75,3.97-4.31s-1.71-4.31-3.97-4.31Zm0,6.75h-.79v-4.87h.79c1.1,0,2.01,.94,2.01,2.44s-.9,2.44-2.01,2.44Z"/></svg>