<?xml version="1.0" encoding="UTF-8"?><svg id="logos" xmlns="http://www.w3.org/2000/svg" viewBox="0 0 500 400"><defs><style>.cls-1{fill:blue;}</style></defs><path class="cls-1" d="M102.47,198.89c-1.83-9.28-.44-18.13,4.05-26.45,3.87-7.17,9.45-12.67,16.69-16.42,9.45-4.89,19.35-5.72,29.6-2.96-18.36-7.95-46.63-3.93-61.6,20.32-14.74,23.89-6.2,52.1,11.11,65.57,4.63-5.69,9.26-11.39,13.92-17.12-7.16-6.13-11.95-13.68-13.77-22.94Z"/><path class="cls-1" d="M166.4,161.06c-4.63,5.69-9.26,11.39-13.9,17.1,6.9,5.92,11.6,13.15,13.58,22.02,1.98,8.89,.95,17.48-2.98,25.67-3.67,7.66-9.28,13.6-16.74,17.68-9.57,5.24-19.67,6.24-30.19,3.48,17.44,7.67,46.89,4.4,62.06-21.58,13.94-23.89,4.89-51.58-11.83-64.37Z"/><path class="cls-1" d="M301.78,183.86c-.4-.1-.83-.11-1.25-.12-1.02-.02-2.04,0-3.05,0-2.22,0-3.26,.82-3.83,2.96-1.22,4.53-2.46,9.06-3.67,13.59-1.02,3.85-2,7.71-3,11.57-.14,.54-.25,1.09-.37,1.64-.05,0-.11,0-.16,0-.05-.27-.11-.53-.16-.8-.22-1.05-.38-2.12-.67-3.15-1.41-5.02-2.84-10.02-4.27-15.03-.81-2.82-1.6-5.64-2.44-8.45-.38-1.27-1.27-2.1-2.61-2.18-1.51-.09-3.03-.09-4.54,.02-1.24,.09-2.08,.88-2.42,2.08-1.4,4.8-2.79,9.6-4.14,14.41-1.2,4.28-2.69,8.47-3.4,12.88-.01,.08-.09,.14-.24,.35-.3-1.58-.48-3.01-.85-4.39-1.39-5.22-2.85-10.42-4.28-15.63-.67-2.46-1.33-4.92-2.01-7.37-.47-1.69-1.44-2.45-3.21-2.49-1.42-.03-2.84-.02-4.26,.02-.39,.01-.81,.12-1.15,.3-1.12,.58-1.51,1.71-1.07,3.13,.99,3.24,2,6.48,3,9.72,2.39,7.74,4.78,15.48,7.17,23.22,.55,1.79,1.6,2.57,3.47,2.58,1.71,.01,3.42,0,5.13,0,2.03,0,3.04-.74,3.63-2.68,1.43-4.71,2.85-9.42,4.25-14.14,.75-2.53,1.46-5.08,2.17-7.62,.19-.67,.32-1.36,.47-2.05,.06,0,.11,0,.17,0,.05,.17,.11,.34,.15,.52,.27,1.21,.48,2.45,.82,3.64,1.12,3.82,2.29,7.63,3.44,11.45,.85,2.8,1.67,5.62,2.55,8.41,.54,1.71,1.58,2.45,3.38,2.47,1.77,.02,3.53,.02,5.3,0,1.87-.02,2.94-.85,3.49-2.65,1.45-4.72,2.9-9.45,4.34-14.17,1.34-4.39,2.69-8.79,4.03-13.18,.61-2.01,1.25-4.02,1.8-6.06,.36-1.31-.4-2.48-1.71-2.8Z"/><path class="cls-1" d="M396.47,191.23c-.76-2.62-2.13-4.78-4.45-6.28-2.81-1.81-5.95-2.3-9.21-2.11-5.47,.32-9.65,2.85-12.51,7.54-.06,.1-.15,.18-.34,.41,0-.42-.01-.64,0-.87,.06-.98,.17-1.95,.17-2.93,.02-4.99,.01-9.98,0-14.97,0-.44-.02-.88-.08-1.32-.16-1.19-.86-2.09-2.03-2.18-1.79-.13-3.6-.13-5.39,0-1.17,.08-1.89,.99-2.05,2.16-.06,.44-.1,.88-.1,1.32,0,15.7,0,31.39,0,47.09,0,.46,.04,.92,.11,1.37,.16,1.13,.89,2.02,2.04,2.11,1.71,.13,3.45,.13,5.17,.07,.92-.03,1.72-.54,2.02-1.46,.21-.64,.3-1.35,.31-2.03,.03-4.72,0-9.44,.02-14.16,0-1.71,.18-3.4,.67-5.06,1.57-5.33,5.88-8.62,11.33-8.3,2.91,.17,4.15,1.32,4.91,3.72,.48,1.5,.58,3.05,.58,4.6,0,6.31,0,12.63,0,18.94,0,.42,0,.84,.03,1.27,.08,1.29,.84,2.32,2.12,2.42,1.77,.13,3.56,.12,5.33,0,1.16-.08,1.83-.88,2.03-2.03,.08-.45,.12-.91,.13-1.37,0-7.1,.02-14.2,0-21.3,0-2.25-.17-4.48-.8-6.66Z"/><path class="cls-1" d="M348.91,202.21c-2.22-1.29-4.66-2.04-7.06-2.89-1.73-.62-3.48-1.2-5.01-2.26-1.72-1.19-1.97-3.62-.5-5.12,.82-.84,1.88-1.17,3-1.31,2.58-.33,5.03,.2,7.41,1.2,.93,.39,1.88,.77,2.86,1,1.1,.26,1.99-.19,2.57-1.19,.32-.55,.64-1.09,.93-1.65,.96-1.87,.57-3.48-1.13-4.38-3.33-1.76-6.84-2.92-10.68-2.8-3.17,.05-6.26,.52-9.1,2.05-3.82,2.06-5.87,5.22-5.9,9.61-.01,1.97,.3,3.87,1.41,5.54,1.21,1.83,2.82,3.27,4.8,4.19,2.25,1.05,4.58,1.95,6.89,2.87,1.67,.67,3.39,1.24,4.88,2.28,1.46,1.02,1.83,2.98,.85,4.49-.89,1.36-2.28,1.86-3.77,2.02-2.49,.26-4.89-.13-7.16-1.24-1.29-.63-2.58-1.28-3.9-1.82-.98-.4-1.98-.23-2.67,.62-.65,.8-1.26,1.66-1.73,2.57-.77,1.49-.5,2.67,.79,3.53,2.6,1.73,5.36,3.15,8.47,3.72,3.67,.68,7.34,.69,10.92-.5,3.68-1.22,6.6-3.36,8-7.12,.99-2.66,1.03-5.39-.04-8.04-.98-2.43-2.88-4.06-5.11-5.35Z"/><path class="cls-1" d="M235.84,202.71c-2.43-1.6-5.19-2.44-7.9-3.4-1.7-.6-3.39-1.21-4.92-2.2-2.24-1.45-1.81-4.59,.07-5.7,1.22-.72,2.56-.88,3.93-.88,2.07,0,4.01,.54,5.91,1.33,.9,.38,1.81,.73,2.76,.96,1.04,.25,1.95-.12,2.52-1.07,.44-.74,.89-1.49,1.22-2.28,.72-1.7,.18-3.09-1.46-3.95-3.92-2.08-8.07-3.08-12.53-2.65-2.92,.28-5.69,.99-8.19,2.6-4.66,3-5.86,8.46-4.14,13.11,.99,2.66,3.08,4.44,5.58,5.64,2.29,1.1,4.71,1.94,7.05,2.94,1.55,.66,3.12,1.3,4.56,2.15,1.76,1.03,1.98,3.48,.59,4.98-.96,1.03-2.21,1.44-3.55,1.56-2.56,.22-5-.22-7.3-1.39-1.18-.6-2.37-1.18-3.59-1.68-1.13-.46-2.18-.14-2.92,.83-.53,.7-1.02,1.44-1.46,2.2-.87,1.54-.55,2.86,.93,3.81,3.91,2.53,8.11,4.17,12.98,3.97,.34,0,.8,.02,1.26,0,3.41-.17,6.57-1.07,9.33-3.16,3.8-2.89,4.99-7.33,3.98-11.66-.63-2.72-2.45-4.59-4.7-6.08Z"/><path class="cls-1" d="M319.12,186.24c-.04-1.39-1.08-2.43-2.47-2.47-1.51-.05-3.03-.05-4.55,0-1.06,.04-1.87,.57-2.24,1.6-.15,.4-.22,.86-.22,1.29-.01,11.03-.01,22.06,0,33.09,0,.13,0,.27,.01,.4,.1,1.34,.82,2.34,2.14,2.44,1.73,.14,3.48,.1,5.22,0,1.05-.06,1.74-.77,1.98-1.8,.13-.57,.17-1.17,.17-1.76,.01-5.28,0-10.55,0-15.83,0-3.78,0-7.56,0-11.34,0-1.88,0-3.76-.05-5.64Z"/><path class="cls-1" d="M408.13,169.12c-4.51-.01-8.16,3.74-8.14,8.38,.01,4.63,3.62,8.35,8.11,8.36,4.58,0,8.22-3.68,8.23-8.35,.01-4.67-3.61-8.37-8.2-8.39Zm3.35,14.32c-3.2,2.05-7.72,.62-9.24-2.86-.44-1-.7-2.03-.64-2.94,0-3.31,1.86-5.94,4.62-6.76,3.87-1.14,7.84,1.39,8.4,5.39,.43,3.03-.53,5.5-3.15,7.18Z"/><path class="cls-1" d="M409.8,178.11c.06-.06,.1-.11,.14-.13,1.02-.4,1.61-1.56,1.32-2.94-.22-1.08-1.09-1.78-2.4-1.86-.9-.05-1.8-.02-2.71-.03-.53,0-.81,.24-.8,.81,.01,2.34,0,4.68,0,7.02,0,.53,.23,.76,.76,.77,.54,0,.77-.26,.78-.77,0-.52,0-1.04,0-1.55,.02-1.18-.22-1.05,1.08-1.03,.19,0,.43,.19,.55,.36,.18,.24,.28,.55,.41,.82,.3,.6,.57,1.21,.9,1.8,.2,.36,1.04,.53,1.35,.29,.43-.33,.07-.66-.08-.96-.43-.87-.88-1.73-1.33-2.6Zm-.09-1.91c-.12,.57-.47,.9-1.02,1.05-.09,.02-.19,.03-.28,.04q-1.5,.1-1.5-1.38c0-.19,0-.38,0-.58,.02-1.15-.16-.99,1.01-1.01,1.45,0,2.06,.64,1.8,1.88Z"/></svg>