<?xml version="1.0" encoding="UTF-8"?><svg id="logos" xmlns="http://www.w3.org/2000/svg" viewBox="0 0 500 400"><defs><style>.cls-1{fill:blue;}</style></defs><path class="cls-1" d="M232.04,182.36c-3.35-6.97-9.68-11.48-19.22-11.48-2.93,.05-5.8,.77-8.41,2.1s-4.87,3.24-6.63,5.58l-.35,.43v-27.36c0-.08-.01-.16-.04-.23-.03-.07-.07-.14-.13-.19-.11-.11-.26-.17-.41-.17h-13.47c-.16,0-.31,.06-.42,.18s-.17,.26-.17,.42v78.47c0,.08,.01,.15,.04,.22,.03,.07,.07,.14,.13,.19,.05,.05,.12,.1,.19,.13,.07,.03,.15,.04,.22,.04h14.46c.16,0,.31-.06,.42-.17,.11-.11,.17-.26,.17-.41v-33.47c0-6.47,4.35-11.1,11.33-11.1,7.65,0,9.55,6.23,9.55,12.6v31.96c0,.08,.02,.15,.04,.22,.03,.07,.08,.14,.13,.19,.05,.05,.12,.1,.19,.13,.07,.03,.15,.05,.23,.04h14.4c.15,0,.3-.06,.41-.17,.06-.05,.1-.12,.13-.19,.03-.07,.05-.15,.04-.22v-33.87c0-1.16-.05-2.3-.15-3.41-.26-3.62-1.17-7.17-2.69-10.47Z"/><path class="cls-1" d="M160.65,195.77s-6.99-1.63-9.57-2.3c-2.58-.66-7.07-2.11-7.07-5.44,0-3.5,3.62-4.48,7.32-4.48s7.79,.88,8.11,4.96c.01,.14,.09,.27,.2,.36,.11,.1,.25,.15,.39,.15l13.56-.05c.08,0,.16-.02,.23-.05s.14-.08,.19-.14c.06-.06,.1-.13,.13-.2,.03-.07,.04-.15,.03-.23-.88-13.04-12.33-17.73-22.93-17.73-12.56,0-21.72,8.23-21.72,17.35,0,6.63,1.89,12.86,16.71,17.19,2.58,.76,6.13,1.74,9.22,2.57,3.71,1.03,5.68,2.57,5.68,5.05,0,2.85-4.19,4.83-8.21,4.83-5.9,0-10.08-2.18-10.42-6.09-.02-.14-.09-.27-.2-.37-.05-.05-.11-.09-.18-.11-.07-.02-.14-.04-.21-.03l-13.53,.06c-.08,0-.16,.02-.23,.05-.07,.03-.14,.07-.19,.13-.05,.06-.1,.12-.13,.2s-.04,.15-.04,.23c.62,12.3,12.55,18.93,23.66,18.93,16.53,0,24.06-9.32,24.06-17.98,.01-4.01-.92-13.32-14.87-16.87Z"/><path class="cls-1" d="M343.2,170.84c-7.23,0-13.3,3.99-17.21,8.81l-.02-.53v-7.87c0-.08-.02-.15-.04-.22-.03-.07-.07-.14-.12-.19s-.12-.1-.19-.12c-.07-.03-.15-.04-.22-.04h-13.51c-.08,0-.15,.02-.22,.04-.07,.03-.14,.07-.19,.12-.05,.05-.1,.12-.12,.19-.03,.07-.04,.15-.04,.22v77.13c0,.08,.02,.15,.04,.22,.03,.07,.07,.14,.12,.19,.05,.05,.12,.1,.19,.12,.07,.03,.15,.04,.22,.04h14.46c.08,0,.15-.01,.22-.04,.07-.03,.14-.07,.19-.13,.11-.11,.17-.26,.17-.41v-25.32h.21c2.29,3.49,8.58,7.67,16.78,7.67,15.44,0,28.29-12.75,28.29-29.97s-12.75-29.92-29.01-29.92Zm-1.36,45.24c-8.31,0-14.92-6.89-14.92-15.3s6.6-15.23,14.92-15.23c1.98,.01,3.95,.42,5.78,1.19,1.83,.77,3.49,1.9,4.88,3.31,1.39,1.42,2.49,3.09,3.23,4.93,.74,1.84,1.11,3.81,1.09,5.79,0,8.41-6.66,15.3-14.98,15.3Z"/><path class="cls-1" d="M268.49,167.5c-13.48,0-20.21,4.55-25.62,8.23l-.15,.1c-.28,.19-.47,.48-.54,.81-.08,.33-.02,.67,.15,.96l5.57,9.56c.1,.17,.24,.32,.4,.44,.16,.11,.35,.19,.55,.23,.2,.04,.4,.04,.59,0,.2-.05,.39-.15,.54-.28l.42-.34c2.79-2.32,6.99-5.82,17.76-6.69,5.98-.48,11.18,1.13,14.98,4.63,4.2,3.86,6.71,10.1,6.71,16.68,0,12.09-7.16,19.7-18.66,19.86-9.48-.05-15.85-4.98-15.85-12.26,0-3.85,1.52-6.69,4.94-9.2,.26-.19,.44-.46,.52-.77s.03-.64-.12-.92l-4.79-9.01c-.09-.16-.21-.3-.35-.42-.14-.11-.31-.2-.48-.25-.18-.05-.37-.07-.56-.05-.19,.02-.37,.08-.53,.18-5.37,3.18-11.72,9.3-11.36,20.47,.44,14.21,12.29,25.06,27.74,25.5h1.76c18.33-.59,31.55-14.14,31.55-32.47-.03-16.99-12.33-34.99-35.18-34.99Z"/></svg>