<?xml version="1.0" encoding="UTF-8"?><svg id="logos" xmlns="http://www.w3.org/2000/svg" viewBox="0 0 500 400"><defs><style>.cls-1{fill:blue;}</style></defs><path class="cls-1" d="M130.18,168.27c-4.48,0-7.72,3.57-7.72,7.72s3.23,7.55,7.72,7.55,7.8-3.57,7.8-7.55-3.32-7.72-7.8-7.72Z"/><rect class="cls-1" x="123.71" y="188.26" width="13.02" height="42.47"/><path class="cls-1" d="M170.48,187.26c-5.22,0-9.37,2.32-12.11,6.55v-5.56h-13.02v42.47h13.02v-22.23c0-5.56,3.4-9.37,7.96-9.37s7.8,3.4,7.8,8.71v22.89h12.94v-24.64c0-11.69-6.72-18.83-16.59-18.83Z"/><path class="cls-1" d="M208.72,196.22v-7.96h-13.02v42.48h13.02v-18.5c.08-7.97,4.73-12.94,10.62-12.94,2.16,0,4.73,.42,7.22,1.74v-12.28c-2.07-1-4.4-1.49-6.47-1.49-5.31,0-9.79,3.65-11.36,8.96Z"/><path class="cls-1" d="M240.5,168.27c-4.48,0-7.72,3.57-7.72,7.72s3.24,7.55,7.72,7.55,7.8-3.57,7.8-7.55-3.32-7.72-7.8-7.72Z"/><rect class="cls-1" x="234.02" y="188.26" width="13.02" height="42.47"/><polygon class="cls-1" points="285.95 188.26 276.08 214.06 266.29 188.26 251.94 188.26 270.77 230.73 281.23 230.73 300.06 188.26 285.95 188.26"/><path class="cls-1" d="M320.55,187.27c-12.94,0-21.74,9.87-21.74,22.23,0,13.35,9.13,22.23,22.9,22.23,7.39,0,13.02-1.91,16.43-4.81v-10.87c-4.23,3.07-9.21,4.98-14.1,4.98-7.55,0-12.28-3.48-13.52-8.88h29.28c2.16-13.85-5.14-24.88-19.24-24.88Zm-9.79,16.51c1.41-4.56,4.73-6.8,8.71-6.8s7.3,2.74,7.55,6.8h-16.26Z"/><path class="cls-1" d="M371.06,187.26c-5.31,0-9.79,3.65-11.37,8.96v-7.96h-13.02v42.48h13.02v-18.5c.08-7.97,4.73-12.94,10.62-12.94,2.16,0,4.73,.42,7.22,1.74v-12.28c-2.08-1-4.4-1.49-6.47-1.49Z"/></svg>