<?xml version="1.0" encoding="UTF-8"?><svg id="logos" xmlns="http://www.w3.org/2000/svg" viewBox="0 0 500 400"><defs><style>.cls-1{fill:blue;}</style></defs><polygon class="cls-1" points="98.89 231.8 109.49 221.2 109.49 168.2 98.89 168.2 98.89 231.8"/><path class="cls-1" d="M132.82,193.64c2.01-2.65,3.18-5.94,3.18-9.54,0-8.8-7.11-15.9-15.9-15.9v10.6c2.97,0,5.3,2.33,5.3,5.3s-2.33,5.3-5.3,5.3v10.6c5.94,0,10.71,4.77,10.71,10.6s-4.77,10.6-10.71,10.6h0v10.6c11.77,0,21.2-9.54,21.2-21.2,0-6.89-3.39-13.14-8.48-16.96Z"/><polygon class="cls-1" points="178.41 189.4 167.81 200 167.81 231.8 178.41 221.2 178.41 200 189.01 189.4 189.01 168.2 178.41 168.2 178.41 189.4"/><polygon class="cls-1" points="157.22 189.4 157.22 168.2 146.62 168.2 146.62 189.4 157.22 200 167.82 189.4 157.22 189.4"/><path class="cls-1" d="M242.04,189.4c0-11.66-9.54-21.2-21.2-21.2v10.6c5.83,0,10.6,4.77,10.6,10.6s-4.77,10.6-10.6,10.6v10.6c11.66,0,21.2-9.54,21.2-21.2Z"/><polygon class="cls-1" points="199.64 231.8 210.24 221.2 210.24 168.2 199.64 168.2 199.64 231.8"/><polygon class="cls-1" points="231.44 231.8 242.04 231.8 242.04 221.2 231.44 210.6 231.44 231.8"/><rect class="cls-1" x="273.86" y="189.4" width="21.2" height="10.6"/><rect class="cls-1" x="273.86" y="168.2" width="21.2" height="10.6"/><polygon class="cls-1" points="252.66 231.8 263.26 221.2 263.26 168.2 252.66 168.2 252.66 231.8"/><rect class="cls-1" x="273.86" y="221.2" width="21.2" height="10.6"/><path class="cls-1" d="M326.88,168.2v10.6c5.83,0,10.6,4.77,10.6,10.6v21.2c0,5.83-4.77,10.6-10.6,10.6v10.6c11.77,0,21.2-9.54,21.2-21.2v-21.2c0-11.66-9.43-21.2-21.2-21.2Z"/><polygon class="cls-1" points="305.69 168.2 305.69 231.8 316.29 221.2 316.29 168.2 305.69 168.2 305.69 168.2"/><path class="cls-1" d="M390.51,210.6c0,5.83-4.66,10.6-10.6,10.6s-10.6-4.77-10.6-10.6v-10.6l-10.6,10.6c0,11.66,9.54,21.2,21.2,21.2s21.2-9.54,21.2-21.2v-10.6l-10.6,10.6Z"/><path class="cls-1" d="M379.9,178.8c5.94,0,10.6,4.77,10.6,10.6v10.6l10.6-10.6c0-11.66-9.43-21.2-21.2-21.2s-21.2,9.54-21.2,21.2h0v10.6l10.6-10.6c0-5.83,4.77-10.6,10.6-10.6Z"/></svg>