<svg id="logos" xmlns="http://www.w3.org/2000/svg" viewBox="0 0 500 400"><defs><style>.cls-1{fill:blue;}</style></defs><title>absolut_vodka</title><path class="cls-1" d="M187.83,187.19s-8.12-37.87-8.29-38.81.14-1.3.14-1.3H166.44c.46.35.14,1.26.14,1.26S158,185.78,157.73,187s-.92,1.44-.92,1.44h12.47c-.31-.29-.24-1.16-.24-1.16l.81-5.48H176s.63,4.46.73,5.44-.24,1.2-.24,1.2H188.6c-.46-.18-.77-1.23-.77-1.23m-16.83-13,2-13.35,1.93,13.35Z"/><path class="cls-1" d="M208.48,167.06s7.31-.81,7.06-10.18c-.35-10.26-13-9.73-13-9.73h-13.8a4,4,0,0,1,.42,1.54v38.25a4,4,0,0,1-.39,1.55h15.35c3.93,0,13.1-1.69,12.86-11.35s-8.54-10.08-8.54-10.08m-3.69-7.76a3.7,3.7,0,0,1-4.18,4.18c0-4.11-.07-8-.07-8s4-.71,4.25,3.79m-4.28,20.19V171a3.91,3.91,0,0,1,4.67,4.28,3.85,3.85,0,0,1-4.67,4.21"/><path class="cls-1" d="M232.22,161.16c-2.18-1.75-3.3-4.92.78-5.27a11.08,11.08,0,0,1,7.13,2.81V147.78a1.4,1.4,0,0,1-1.51,0,21.39,21.39,0,0,0-3.8-1.16c-5.19-1-9.3.18-11.69,1.94s-4.08,3.61-4.36,9.41,2.16,8.27,5.52,11.63c3.92,3,5.05,4.1,6.07,5.37,1.2,1.19,1.27,4-2.67,4.35-4.07.15-8.88-4.07-8.88-4.07v11.77c.42-.28,1.16,0,2.77.87,3.9,2.18,11.17,2.18,15.77-.94s6-10.82,4.67-15.39-6-7.42-9.8-10.43"/><path class="cls-1" d="M258.64,146.23s-15.33-2.14-15.33,21.46,15.33,21.7,15.33,21.7S274,190.72,274,167.69s-15.36-21.46-15.36-21.46m0,33.47s-3.67,1.41-3.67-12,3.67-12.36,3.67-12.36,3.49-1.05,3.49,12.36-3.49,12-3.49,12"/><path class="cls-1" d="M288,178.76V148.55a2.57,2.57,0,0,1,.31-1.44H276.09a2.24,2.24,0,0,1,.39,1.55v38c0,1.48-.39,1.69-.39,1.69h20.27v-10a3.14,3.14,0,0,1-1.47.42Z"/><path class="cls-1" d="M314.8,148.76V177a2.87,2.87,0,0,1-2.93,3,3.32,3.32,0,0,1-3.3-3V148.59c0-1.16.39-1.48.39-1.48H297c.31.18.45,1.48.45,1.48V177s.29,12.4,14.17,12.4,14.07-12.47,14.07-12.47V148.52a2.62,2.62,0,0,1,.35-1.34H314.34a3.37,3.37,0,0,1,.46,1.58"/><path class="cls-1" d="M327.41,157.16a3,3,0,0,1,1.51-.35h5.23v30.1c0,1.16-.35,1.51-.35,1.51h12.29c-.38-.39-.38-1.58-.38-1.58v-30h5.34a2.31,2.31,0,0,1,1.33.35v-10h-25Z"/><path class="cls-1" d="M358.35,146.38a4,4,0,1,0,4,4,4,4,0,0,0-4-4m0,7.33a3.34,3.34,0,1,1,3.24-3.34,3.24,3.24,0,0,1-3.24,3.34"/><path class="cls-1" d="M360.19,149.38c0-.91-.54-1.31-1.63-1.31h-1.75v4.61h.7v-2h.8l1.22,2h.78l-1.31-2a1.19,1.19,0,0,0,1.19-1.27m-2.68.71v-1.43h.95c.48,0,1,.11,1,.68s-.53.75-1.12.75Z"/><path class="cls-1" d="M321.7,252.81h12.08c-.46-.18-.77-1.23-.77-1.23s-8.12-37.86-8.29-38.81.14-1.3.14-1.3H311.62c.45.35.14,1.26.14,1.26s-8.57,37.45-8.85,38.64-.92,1.44-.92,1.44h12.47c-.32-.28-.25-1.16-.25-1.16l.81-5.48h6.18s.64,4.46.74,5.44-.24,1.2-.24,1.2m-5.52-14.19,2-13.35,1.93,13.35Z"/><path class="cls-1" d="M223.12,210.63s-15.33-2.15-15.33,21.45,15.33,21.7,15.33,21.7,15.37,1.33,15.37-21.7-15.37-21.45-15.37-21.45m0,33.46s-3.67,1.41-3.67-12,3.67-12.36,3.67-12.36,3.5-1.05,3.5,12.36-3.5,12-3.5,12"/><path class="cls-1" d="M252.88,211.49h-12.3a2.59,2.59,0,0,1,.43,1.23v38.74a4.3,4.3,0,0,1-.32,1.48H253.3a15.13,15.13,0,0,0,14.47-10,34.12,34.12,0,0,0,.32-20.55c-3.34-11.45-15.21-10.89-15.21-10.89M252,244.37V219.78s5.66-.81,5.66,12.22S252,244.37,252,244.37"/><path class="cls-1" d="M301.07,251.85l-8-21.18s7.8-17,8.18-17.74a6.88,6.88,0,0,1,1-1.4h-13c.22.21.14,1.09.14,1.09l-5.9,15.87v-15.7a1.59,1.59,0,0,1,.39-1.23H271.53c.31.18.45,1.2.45,1.2v38.63a2.37,2.37,0,0,1-.42,1.55h12.37c-.39-.39-.43-1.65-.43-1.65V234.08s5.24,16.5,5.52,17.35a1.66,1.66,0,0,1-.21,1.47h12.92a3,3,0,0,1-.66-1.05"/><path class="cls-1" d="M200.22,251.51c.18-.95,8.29-38.81,8.29-38.81s.32-1,.77-1.23H197.2s.35.21.25,1.2-.74,5.44-.74,5.44l-3,20.9-3.16-20.9-.81-5.48s-.07-.88.25-1.16H177.5s.63.25.91,1.44,8.85,38.64,8.85,38.64.32.91-.14,1.26h13.24s-.31-.35-.14-1.3"/><path class="cls-1" d="M241,200.42c-5.34,4.07-7.52,5.65-7.52,5.65l6.39-11.69h-2.6a64.87,64.87,0,0,1-4.74,8,8.36,8.36,0,0,1-2.95,3.06c-1.62.87-1.51-.21-1.51-.5A11,11,0,0,1,229.8,202a15.46,15.46,0,0,0,2.53-4.35c.77-2.07,0-3.3-.67-3.44a3.7,3.7,0,0,0-3.16,1.19c-1.23,1.2-6.53,8-7.34,8.78a4.76,4.76,0,0,1-2,1.2c-1,.38-1-.18-.91-.64a15.27,15.27,0,0,1,2.35-4.14c1.23-1.62,2.74-2.91,3.41-4.64s-.28-2.42-1.69-2.14-1.79-.07-1.79-.07,1-1.47,1.48-2.14.84-1.83.28-2.07-1.34.31-2.11,1.33a5.29,5.29,0,0,0-.91,3.13,96.93,96.93,0,0,1-6.75,8.92c-1.75,2.1-3.12,2.63-3.82,2.42s-.46-2.18.14-3.55,4.74-7.9,4.74-7.9H216l.35-.84H214l3.41-6H215l-3.76,6.21h-2.7l-.29.71s1.2,0,2.53,0c-4.53,8.32-6.67,9.94-7.62,10.78s-1.58,1.09-2.14.84-.28-1.12.18-1.82,3.12-4.54,3.58-6.92-.35-2.74-1.9-2.71-3.79,2.46-4.46,3c.35-4.22-2.35-3.48-4.25-1.51s-5.51,7-6.43,8.08-2.07,1.72-2.39,1.61-.24-.46.18-1.79,4.67-9,4.67-9h-2.32c-3.68,6.33-6.25,9.07-7.16,9.94s-1.72,1.23-2.21,1.06,0-1,.42-1.58,2.7-4.15,3.44-5.27,1.61-3.51.42-4.08-2.63.36-4.07,1.27-3,3-3.73,3c1.79-3.45.67-4.92-.1-5.13s-2.11.11-4.18,1.62-7.48,7.09-8.89,8.22-8.36,5.33-11.87,2,.28-10.89,1.3-12.78c11.27-1.79,17.14-8.61,17.74-11a2.37,2.37,0,0,0-2.53-3.16c-10.61,1.51-16.93,10.71-18.58,13.24-2.74,0-10.19-2-8.33-9.24s10.19-7.3,10.19-7.3a.66.66,0,0,1,0-.32c-7.13-1.26-13,4.53-12,10.26s6.21,6.71,9.66,7.58c-3.45,9.66-.71,14.44,5,14.79s10.51-3.55,12.51-4.88c-.21.59-.42,4.14,2.07,4.14s6.22-5.58,6.92-6.6c.7,0,.84-.32,1.54-.74s3.62-3,4.18-3.37,1.44-.91,1.94-.74.35.63-1.09,2.43a28,28,0,0,0-3.41,5c-.6,1.34-.81,3.23,1.05,3.73s5.13-3.41,5.13-3.41-.35,3.09,1.13,3.3,2.74-.6,5.41-4.11a86,86,0,0,1,5.58-6.85c.88-.88,2-.45,1.12,1.23s-5.27,9.52-5.27,9.52h2.67c3.52-6,6.22-9.83,8-10.75s1.16.21.52,1.37c-2.28,3.58-2.77,4.85-3.09,5.83s-.7,3.48,1.48,3.76,3.83-2.11,5.44-3.69c.85,4.92,3.59,3.48,5.24,2.29s6.67-8.29,8.5-10.72c2.56-.07,1.93.88,1.37,1.79s-2.88,3.59-3.52,4.43-2.49,3.86-.35,5.48,5.2-2.49,7.24-5,3.62-5.24,5.13-5.73,1.33.25,1,1.09-2.95,4.22-4,5.83-1.16,3.76.25,4.32,4-.84,4-.84a18,18,0,0,1-1.33,2.18C218,214.5,218,218.79,218,218.79s-.63,3.65,3.45,2.14c6.56-3.12,10-10.89,11.31-13.38,3.75-2.81,8.6-6.78,8.6-6.78s0-.1-.31-.35m-76.64-20.55c.91-.31,2.88-.84,3.51.11s-.07,2.46-.53,3.19-6.81,7.7-15.56,8.4c0,0,4.46-8.12,12.58-11.7m9.3,19.11c-.66-.32-1.3-.77-1.68-.39s-.14,1.34.7,1.76c-.95,1.83-3.41,5.69-5.51,5.62,0,0-1.16-.18-.6-1.41a41,41,0,0,1,6.67-9.76c.42-.35,1.44-1,1.72.53s-1,3.19-1.3,3.65m46.16,21.53c-2.74-.21.17-4.25.17-4.25a29.18,29.18,0,0,1,9-6.81s-5.65,11.33-9.16,11.06"/><path class="cls-1" d="M273.14,185.32c-4.6,2.27-7.2,6.71-10.11,11.17-1,.66-2.92,1.68-3.83,2.21s-1.09.21-1.27.1c1.87-3.4,2-5,.81-5.51s-2.91.42-4.92,1.62-7.86,8.07-8.64,8.81-2.81,2.46-2.81,2.46l.29.42c1.93-1.4,5-4.11,5-4.11s-.42,3.79,1.83,4.36c3.09.73,6.7-5,8-6.92.63.28,2.18-.53,4.56-1.86-1.33,2.42-3.68,7.48-5.51,11.38s-2.64,6.11-2.7,8.78,3.23,4.39,6.63-1,4-11.59,4.18-12.89c4-1.16,5.1-3.94,5.1-3.94a5.56,5.56,0,0,0-.57,0,8.06,8.06,0,0,1-4.35,2.77,2.91,2.91,0,0,0-.84-2.31l-.43-.5a20.77,20.77,0,0,1,1.06-2.42c1.09-2.07,1.09-1.26,5.34-4.46a13.81,13.81,0,0,0,5.16-7.13s.88-2.42-1.9-1.05m-16,13c-.7-.42-1.23-.74-1.72-.17s.32,1.3,1,1.65c-.91,1.51-4.1,7-6.46,5.93,0,0-.77-.17-.35-1.33s3.09-7.9,7.27-10.22c.6-.32,3.3-1.23.28,4.14M258.81,218c-2.77,3.16-3.05,1.4-3,.84a18.27,18.27,0,0,1,1.69-5.8c1.51-3.61,3.19-7.2,4-8.78l2.07.28s-.7,7.94-4.71,13.46m5-14.58a4.35,4.35,0,0,1-1.76-.25l.84-1.65a2.1,2.1,0,0,1,.92,1.9m10.29-16.65c-.46,1.16-3.06,6.08-7.66,7.94,0,0,2.49-5.55,6.67-8.29.53-.35,1.44-.81,1,.35"/><path class="cls-1" d="M295.34,189.74c0-.84,2.53-3.3,3.16-4s1.79-2.95.28-3.3c-2.67-.28-4.14,6.18-4.14,6.18l-5.59,5.9a7.31,7.31,0,0,0-6.88-2.7c-6.44.77-8.89,5-9.41,9.31s3.3,7.48,3.3,7.48L272,213.34l.91.07,3.87-4.42s4.56,3,10.74.1c7-3.3,7.63-10,7.84-12.6s0-5.91,0-6.75m3-6.29c1.23.32-1.72,3.48-2.49,4.08,0,0,1.26-4.39,2.49-4.08M276.65,207.9s-5.26-3.65-1.79-10.43,12.82-5.23,13.6-2.32c-3.48,3.48-11.24,12.19-11.81,12.75m14.76-6.46c-1.93,3.83-5.76,10.71-14.09,6.92,0,0,8.26-9.66,11.56-12.58.21.67.66,1.72-.53,4.25-.14.46.18,1.09.67.35a5.74,5.74,0,0,0,.52-5.19c3.34-3.66,4-4.29,4.71-5.1a31.8,31.8,0,0,1-2.84,11.35"/><path class="cls-1" d="M356.81,205.69c-1,.38-1.13-.07-1.06-.46s3-4.67,3.48-5.44,2-3.55,1.37-5.06c-1.05-2.39-5.66,1.79-6.88,2.88,1.16-5.3-2.39-3.41-4-1.55s-6.85,7.45-6.85,7.45-2.56,2.88-3.69,2.42c-1.93-.73.08-4.28.64-5.37,4.35-1.09,7.16-3.48,7-5.37s-2.71-1.09-3.66-.6c-5.62,3.26-6.46,6.95-6.95,8.95-.49.74-1.9,2.22-3.09,2.18s-.88-1.68-.46-2.53,10.19-19,10.19-19h-2.36s-4.46,8.05-5.93,10.5a1.33,1.33,0,0,0-1.27-1c-3.33.18-5.48,2.78-7.51,5.27s-3,3.51-3.66,4.21-3.54,3.62-4.91,2.57,1-5.09,1-5.09a14.58,14.58,0,0,0,4.84-2.15c2.92-2,2.53-4.7.63-4.56-4.35.77-6,3.72-7.58,5.76a7.89,7.89,0,0,1-2.46-1.37c.21-.42,2.84-5.8.91-5.41s-2.24,3.93-2.32,5.9c-2.34,5.19-4.56,6.6-5.61,7.16s-1.51-.14-1.45-.63c.6-2.84,5.31-10.89,5.31-10.89H308c-4.39,8.89-8,11.38-8.47,11.63-.32.16-1.61.39-1-1.09s3.62-6.08,4.22-7.62c.1-.25,1.37-3.76-1.76-3.06s-5.23,4.78-5.23,4.78l.52.07c2-2.74,2.67-3,3.76-3.69s1.37-.24,1.37.46-2.25,3.62-3.47,5.51-1.52,5.17.49,5.38,3.47-1.83,5-3.09c.14,1.72,1.23,4.11,3.83,2.66s5.1-6.07,5.94-7.44a17.37,17.37,0,0,0,2.42,1.47c-1.82,3.2-1.09,6.08,1.44,6.29s5.38-2.81,6.68-4c0,.28.07,4.08,2.17,4.08s3.23-2,4.6-3.41c.43,5.48,4.78,2.63,5.8,1.37,2.56,5.37,8.11-1.86,9.31-3.09s4.18-4.67,4.84-5.3,1.27-1.27,2-1.06-.24,1.79-1.4,3.58-4.75,7.56-4.75,7.56h2.75c.63-1,4.17-6.26,6.14-8.72,3.09-3.12,3.72-2.73,4-2.56s.15,1-1.12,2.53a46.38,46.38,0,0,0-3.65,5.16c-.46.88-.91,3.94,1.16,4s4.21-3.51,4.21-3.51a2.45,2.45,0,0,0-.49-.18,8,8,0,0,1-2.49,2.5m-12-10.33c.6-.28,1.44-.63,1.05.42s-2.07,3.2-5.58,3.8a11.1,11.1,0,0,1,4.53-4.22m-23.71,1.41c1.79-1.3,2.78-1.83,3.23-1.51s-1.26,3.58-5.69,4.35a7.78,7.78,0,0,1,2.46-2.84m10.33,3.72c-1.51,2.21-4.11,5.72-5.48,5.37,0,0-.88-.38-.42-1.72a24.59,24.59,0,0,1,6.35-8.95c.64-.43,1.76-1,1.58.56s-.52,2.53-2,4.74"/></svg>