<svg id="logos" xmlns="http://www.w3.org/2000/svg" viewBox="0 0 500 400"><defs><style>.cls-1{fill:blue;fill-rule:evenodd;}</style></defs><title>fazer</title><g id="Symbols"><path id="FazerCircle" class="cls-1" d="M305.21,197.24c-3-1.43-3.21-6.11-2.11-10.89,1-4.27,2.41-8.2-1.1-9.86-3,14.61-13.38,27.37-22.66,27.23-2.46-.05-5.5-.8-7.27-3.16A10.74,10.74,0,0,1,260.36,207c-4.16-.61-6.78-3.33-12.49,2.25-1.25,1.22-2,2.35-3.22,1.52-1.55-1.1-.73-3,1.31-5.93s13.72-14.09,18.55-19.7c-5.69,2.55-14.32,2.94-16.79.94-.67,12.69-9.09,28.94-14.6,28.08-3-.46-3.57-3.72-3.68-6-2,4.26-7,10.44-10.82,9.09-4.56-1.6-3.79-11.89.2-19.81,3.67-7.3,11.26-12.73,16.16-10.72,2.67,1.1,2.8,3.75,1.65,4.16-1,.37-1.53-1.17-3.66-1.06-1.61.08-4.35,1.43-7.3,6.16-3.2,5.14-4.54,10.83-2.28,11.81,2,.85,4.27-1.88,6.52-5.62,1.46-2.39,2.46-5.46,3.73-7.94,1.06-2.05,4.4-1.59,3.72,1.1a41.91,41.91,0,0,0-1.27,5.24c-.34,2.54-.66,5.07.7,5.42,2.74.7,8.41-12.06,8.6-21.83-.55-.77-1-1.72-.43-2.44s2.57-.48,3.08,1.65c2.29,1.61,11-.64,17.63-3.91,2-1,2.84-.57,3.78.92,3,4.75-6.73,11.57-14.18,20.52,6.14-2,8.28,1.59,11.53,1.18,1.19-.16,3.14-1.05,4.35-4.36-2.92-15,13.35-29.82,21-23,4.21,3.75-.66,14-10.06,15.48-1.06.17-1.86-.11-2-.63s0-.94,1.08-1.3c4.46-1.48,7.32-7.88,5.54-9.51s-5.79,1.58-7.81,6.59c-1.77,4.38-2.68,10.92,1.46,12.38,6.17,2.18,17.17-7,20.64-28.2.31-1.9,2.18-1.13,2.16,2,1.91,1.54,5.4,2.78,6,6.28.82,4.53-2.42,11.86.95,12.79,2.69.75,6.21-4.26,7.4-7.84.23-.69.64-1.09,1.09-.93s.6.81.54,1.69c-.4,5.34-7.17,16.91-14,13.67m-3.15,21.08c-9.47,30.84-62.05,46.24-89.57,22-1-.89-1.24-1.42-1.06-1.75s.52-.47,1.49.19c30,20.58,67.13-.2,75.69-24.28,1.73-4.9,4.79-6.79,8.61-6.15,4.48.74,6.19,5.62,4.84,10M190.61,239.57c-3.84-.78-2.48-21.53,2.92-34.73,5.25-35.87,12.67-35.6,13-32.78.15,1.19-3.44,4.93-5.86,25.23,7.15-5.32,11.79-6.12,13.55-6.4s2.76-.09,3,.84c.13.55-.14,1.48-1.9,2.33-3.91,1.88-11.9,6.1-15.65,12.68C197.83,221.8,195.57,240.57,190.61,239.57Zm-4.78-61.81c-.28-.2-.49-.2-.14-1,9.83-24.21,55.47-14.31,65.9-28.75,1.9-2.64,1.89-.6,1.62.48-6.62,26-50,9.57-66.1,28.85-.34.41-.94.71-1.28.46M168.21,200A81.79,81.79,0,1,0,250,118.22,81.78,81.78,0,0,0,168.21,200Z"/></g></svg>