<?xml version="1.0" encoding="UTF-8"?><svg id="logos" xmlns="http://www.w3.org/2000/svg" viewBox="0 0 500 400"><defs><style>.cls-1{fill:blue;}</style></defs><path class="cls-1" d="M385.33,205.9c0-15.82-10.32-25.98-25.6-25.98-14.49,0-25.02,10.16-25.02,25.98s10.46,26.05,24.96,26.05c9.12,0,15.96-2.5,22.41-9.59l-7.83-7.95c-4.43,4.88-8.21,6.31-13.85,6.31-6.81,0-12.29-3.98-13.85-10.43h38.34c.27-1.45,.41-2.91,.43-4.38Zm-38.35-4.55c1.78-5.7,6.63-9.17,13.04-9.17s11.26,3.47,13.04,9.17h-26.08Z"/><path class="cls-1" d="M203.55,160.03c-3.81,0-6.91,3.43-6.91,7.65s3.09,7.65,6.91,7.65,6.9-3.43,6.9-7.65h.02c0-4.22-3.1-7.65-6.92-7.65Z"/><path class="cls-1" d="M199.29,180.28c-3.73,8.3-9.92,8.04-16.64,8.04h-1.02v-28.28h-11.63v28.28h-11.77c-6.79,0-12.03,1.81-15.9,4.89v-33.18h-11.65v71.92h11.65v-18.01c.11-10.08,4.64-13.2,13.45-13.2h14.22v31.22h11.65v-31.24c5.94-.13,11.07-1.25,15.62-3.98v35.21h11.65v-47.85l-9.62-3.83h0Z"/><path class="cls-1" d="M317.19,182.33l-.93,5.73c-4.09-4.13-9.68-6.6-16.22-6.6-14.86,0-25.17,10.14-25.17,25.84s10.31,25.86,25.17,25.86c5.9,0,10.95-1.96,14.85-5.26v6.84c0,8-6.28,12.6-15.35,12.6-9.54,0-13.34-6.62-13.63-9.09l-10.77,2.97c.55,3.23,7.1,16.75,25.02,16.75,19.97,0,26.87-13.58,26.87-23.77,0-9.03-.04-51.87-.04-51.87h-9.79Zm-17,38.91c-8.6,0-14.58-5.71-14.58-14.54s5.98-14.54,14.58-14.54,14.57,5.71,14.57,14.54-5.97,14.54-14.57,14.54Z"/><path class="cls-1" d="M246.12,181.46c-4.44,0-9.68,2.19-13.49,6.16l-.62-5.29h-10.82v49.63h11.62v-27.03c0-6.83,2.38-12.42,10.45-12.42s10.72,5.59,10.72,12.41v27.03h11.7v-28.03c0-12.15-7.13-22.45-19.55-22.45Z"/></svg>