<svg id="logos" xmlns="http://www.w3.org/2000/svg" viewBox="0 0 500 400"><defs><style>.cls-1{fill:blue;}</style></defs><title>nonstop_entertainment</title><path class="cls-1" d="M167.58,200.15V175.23H137.71v24.92h-5v-30h39.87v30Z"/><path class="cls-1" d="M215.76,195.11H185.89V175.23h29.87Zm5,5v-30H180.86v30Z"/><path class="cls-1" d="M266.7,199.46V175.12H237.42v24.34h-4.93V170.19h39.09v29.27Z"/><path class="cls-1" d="M279,199.46v-4.93h34.16v-7.21H279V170.19h39.09v4.87h-34.2v7.32h34.2v17.08Z"/><path class="cls-1" d="M348.38,175.12v24.34h-4.95V175.12H326.36v-4.93h39.11v4.93Z"/><path class="cls-1" d="M407.19,194.53H377.91V175.12h29.28Zm4.87,4.93V170.19H373v29.27Z"/><path class="cls-1" d="M453.63,187.26H424.34V175.12h29.29Zm4.93,4.94v-22h-39.1v29.27h4.88V192.2Z"/><path class="cls-1" d="M146.85,212.88H136.69v4H146v3.4h-9.34v5h10.62v3.4H132.76V209.48h14.09Z"/><path class="cls-1" d="M162.24,209.48H166V228.7h-4L154.16,215h0V228.7h-3.74V209.48h4.22l7.6,13.38h.05Z"/><path class="cls-1" d="M178,228.7h-4V212.88h-5.79v-3.4h15.58v3.4H178Z"/><path class="cls-1" d="M200.21,212.88H190v4h9.34v3.4H190v5h10.62v3.4H186.12V209.48h14.09Z"/><path class="cls-1" d="M203.91,209.48h9.69c5.09,0,6,3.77,6,5.43a4.6,4.6,0,0,1-3,4.58c1.57.69,2.42,1.29,2.42,4.87,0,2.81,0,3.51.86,3.83v.51h-4.43a12.71,12.71,0,0,1-.43-3.88c0-2.63-.16-3.64-3.12-3.64h-4.13v7.52h-3.93Zm8.62,8.46c2.08,0,3.1-.72,3.1-2.62,0-1-.46-2.52-2.81-2.52h-5v5.14Z"/><path class="cls-1" d="M230.78,228.7h-4V212.88H221v-3.4h15.58v3.4h-5.79Z"/><path class="cls-1" d="M239.26,228.7h-4.21l6.83-19.22h4.61l6.75,19.22h-4.35l-1.23-4h-7.07Zm2.4-7.28h4.88l-2.37-7.61h0Z"/><path class="cls-1" d="M259.48,228.7h-4V209.48h4Z"/><path class="cls-1" d="M274.9,209.48h3.74V228.7h-4L266.82,215h-.06V228.7H263V209.48h4.21l7.61,13.38h0Z"/><path class="cls-1" d="M300.86,228.7h-3.74V212.63h-.05L293.5,228.7h-3.93l-3.49-16.07H286V228.7h-3.73V209.48h5.84l3.47,15.15h0l3.42-15.15h5.79Z"/><path class="cls-1" d="M318.78,212.88H308.62v4H318v3.4h-9.34v5h10.62v3.4H304.7V209.48h14.08Z"/><path class="cls-1" d="M334.18,209.48h3.73V228.7h-4L326.09,215h0V228.7h-3.73V209.48h4.21l7.6,13.38h.06Z"/><path class="cls-1" d="M349.89,228.7h-4V212.88H340.1v-3.4h15.58v3.4h-5.79Z"/><path class="cls-1" d="M70.2,176.67c.48-.22,1-.42,1.45-.61l.27,5.08,17.59-10.3a30.35,30.35,0,1,0-16.8,58.32l5.5-3.38a25.81,25.81,0,0,1-8-49.11Z"/><path class="cls-1" d="M116.89,183.68A39.49,39.49,0,0,0,86.18,161l-15.09-5.1,0,6a40.65,40.65,0,0,0-6.63,2.35,39.52,39.52,0,0,0-1.15,71.29l5-3.05a34.6,34.6,0,1,1,27-.77q-1,.45-2,.84l0-7.25L73,238.27l20.41,5.85,0-6.45a42.19,42.19,0,0,0,4.06-1.6A39.52,39.52,0,0,0,116.89,183.68Z"/></svg>