<?xml version="1.0" encoding="UTF-8"?><svg id="logos" xmlns="http://www.w3.org/2000/svg" viewBox="0 0 500 400"><defs><style>.cls-1{fill:blue;}</style></defs><path class="cls-1" d="M214.6,258.36c-1.18-2.66-2.37-5.17-3.55-7.69-1.18-2.37-2.37-5.03-3.55-7.54,.3-.3,.59-.3,1.03-.74,6.21-3.84,9.76-9.46,10.35-16.7,.3-2.81,0-5.62-.74-8.43-1.48-5.03-4.58-8.87-9.31-11.23-1.33-.74-2.96-1.33-4.58-1.77-3.7-.89-7.24-1.18-10.94-1.18-2.22,.15-4.29,.15-6.5,.3-2.37,.15-4.73,.44-7.1,.74-.44,0-.74,0-1.03,.15v69.33h12.12v-26.9c0-.3,0-.59,.15-1.03h2.37c.74,0,1.63-.15,2.37,0,0,.3,.15,.44,.3,.74,1.77,3.84,3.4,7.69,5.17,11.53,2.37,4.88,4.58,9.9,6.8,14.93,.15,.15,.15,.44,.44,.74h12.86c.15,0,.3,.15,.44-.15-1.18-2.51-2.37-5.03-3.55-7.54-1.18-2.51-2.37-5.03-3.55-7.54Zm-9.61-28.38c-1.03,1.92-2.37,3.4-4.14,4.58-.3,.15-.59,.3-1.03,.3h-9.02c0-6.65,0-13.45,.15-20.4v-.3h4.43c1.63,0,3.4,.3,5.03,.89,3.7,1.48,5.62,4.29,5.91,8.13,.15,2.37-.15,4.73-1.33,6.8Z"/><path class="cls-1" d="M334.19,193.31c2.22-1.77,3.99-3.99,5.62-6.36,1.92-3.1,3.4-6.36,4.43-9.76,1.63-5.17,2.37-10.5,2.37-15.82,0-1.63-.15-3.1,.15-4.73-.15-2.96-.74-6.06-1.48-9.02-.89-3.7-2.37-7.39-4.29-10.64-1.77-2.81-3.7-5.32-6.36-7.39-3.1-2.37-6.5-3.84-10.5-4.14-3.7-.15-7.1,.59-10.2,2.37-2.37,1.33-4.29,2.96-6.06,5.03-2.22,2.66-3.99,5.62-5.32,8.87-2.22,5.32-3.4,10.79-3.7,16.56-.3,4.88,0,9.9,1.03,14.78,.74,3.55,1.77,6.95,3.4,10.2,1.48,2.96,3.25,5.77,5.62,8.13,3.25,3.25,7.1,5.32,11.68,5.91,2.07,.3,4.14,.15,6.21-.3,2.81-.74,5.17-1.92,7.39-3.7Zm-9.31-6.5c-.15,.15-.44,.3-.59,.44,0,0-.15,0-.3,.15-1.33-.44-2.51-1.18-3.55-2.07-1.48-1.18-2.81-2.66-3.84-4.29-1.48-2.37-2.66-4.88-3.4-7.39-.89-2.81-1.33-5.77-1.63-8.72-.3-2.81-.3-5.77,0-8.57,.3-3.99,1.03-7.83,2.51-11.53,1.03-2.51,2.22-4.73,3.99-6.8,.74-.89,1.63-1.77,2.66-2.51,.15-.15,.3-.15,.44-.3,.59,.15,1.18,.44,1.63,.74,1.77,1.03,3.25,2.37,4.58,3.99,1.63,2.07,2.96,4.43,3.84,6.8,1.03,2.51,1.77,5.32,2.22,8.13,.44,3.1,.59,6.36,.44,9.46-.15,3.84-.74,7.54-1.92,11.23-.74,2.51-1.77,4.73-3.25,6.95-1.03,1.63-2.37,2.96-3.84,4.29Z"/><path class="cls-1" d="M364.49,264.57c-4.73-8.57-9.46-17-14.04-25.43-.15-.3-.3-.44-.44-.74,.15-.44,.3-.59,.44-.89,4.29-7.39,8.57-14.78,12.86-22.03,1.92-3.25,3.84-6.65,5.77-9.9,.15-.3,.3-.44,.3-.74h-.44c-2.81-.15-12.71-.15-13.45,0-.15,.15-.3,.44-.44,.74-4.43,7.83-8.87,15.82-13.3,23.8-1.48,2.37-2.81,4.88-4.14,7.24-.15,.15-.15,.44-.44,.44v-31.04c0-.74,.15-1.33,0-2.07h-12.42v69.33c.15,.15,.15,.3,.15,.44h11.53c.3,0,.44,.15,.74-.15v-33.7c0-.15-.15-.3,.15-.3,1.48,2.66,3.1,5.62,4.58,8.43,1.48,2.81,3.1,5.77,4.58,8.57,1.48,2.81,2.96,5.77,4.58,8.57,1.48,2.81,3.1,5.62,4.58,8.43,.74,0,9.61,.15,13.6,0h.26c-1.66-2.93-3.33-5.97-4.99-9.02Z"/><path class="cls-1" d="M369.66,273.53s0,.04,0,.06h-.18c.11,.19,.22,.4,.33,.59-.08-.31-.12-.52-.15-.65Z"/><path class="cls-1" d="M369.66,273.53c-.01-.19-.07-.34,0,0h0Z"/><path class="cls-1" d="M255.4,203.66c-.15,0-.3,.15-.44,.15v48.34c0,1.77-.3,3.55-.74,5.17-.44,1.48-1.03,2.96-2.07,4.29-.74,.89-1.63,1.77-2.66,2.37-.3,.15-.74,.3-1.03,.15-.59-.15-1.18-.3-1.77-.44-3.4-1.03-5.91-3.25-7.39-6.65-.44-1.03-.74-2.07-1.03-3.25-.3-1.48-.44-2.96-.44-4.58v-45.38c-.3,0-.44-.15-.59-.3h-11.68s0,.15-.15,.15v47.9c0,1.33,.15,2.81,.3,4.14,.3,2.51,1.03,5.03,2.22,7.39,3.4,6.65,8.87,10.35,16.26,11.09,2.22,.15,4.29,.15,6.36-.3,3.55-.59,6.8-2.07,9.61-4.58,3.25-2.96,5.17-6.5,6.36-10.64,.59-2.22,.89-4.58,.89-6.95v-48.04h-11.97Z"/><path class="cls-1" d="M200.26,196.12h12.42c.15-.44,.3-1.03,.44-1.63,1.18-5.32,2.37-10.64,3.55-15.97,0-.15,0-.3,.15-.59h15.82c.3,0,.59,0,.89,.15,.44,2.07,.89,3.99,1.33,6.06,.44,2.07,.89,3.99,1.33,6.06,.44,1.92,.89,3.99,1.33,6.06h13.01c-5.77-23.21-11.53-46.42-17.3-69.63q0-.15-.15-.3h-15.52c0,.44-.15,.59-.15,.89-1.77,7.1-3.55,14.19-5.32,21.29-2.07,8.43-4.29,17-6.36,25.57-1.77,7.1-3.55,14.34-5.32,21.43-.15,.15-.15,.44-.15,.59Zm19.22-29.86v-.15c1.92-8.87,3.84-17.59,5.62-26.46,0-.15,.15-.3,.15-.59,1.92,9.17,3.84,18.03,5.77,27.05v.15c0,.15-.15,.15-.15,.15h-11.38v-.15Z"/><path class="cls-1" d="M316.89,252.45c-2.66-.74-5.17-1.63-7.69-2.37-.3-.15-.44-.3-.74-.15q-.15,.15-.15,.3c-.44,1.18-.74,2.22-1.18,3.4-.89,2.51-2.07,4.73-3.55,6.95-1.03,1.48-2.37,2.66-3.7,3.84-.3,.3-.59,.44-1.03,.15-.15-.15-.3-.15-.44-.3-1.77-1.03-3.4-2.22-4.73-3.84-1.33-1.48-2.37-3.25-3.25-5.03-2.22-4.58-3.25-9.61-3.55-14.63-.3-3.99,0-7.98,.74-11.83,.44-2.81,1.18-5.47,2.37-7.98,1.18-2.66,2.81-5.03,4.88-7.1,.44-.44,.89-.74,1.33-1.18,.3-.3,.44-.3,.74-.15,.3,.3,.74,.44,1.03,.59,1.77,1.03,3.25,2.22,4.58,3.84,1.48,1.77,2.66,3.7,3.55,5.77,.15,.3,.15,.59,.44,.74,3.99-1.03,7.98-2.22,11.97-3.4-.15-.3-.15-.44,.3-.74-.59-1.63-1.33-3.1-2.22-4.73-1.18-2.37-2.81-4.43-4.73-6.36-3.4-3.25-7.39-5.17-12.12-5.62-3.25-.3-6.21,.3-9.17,1.77-2.66,1.33-4.88,3.1-6.8,5.32-2.07,2.37-3.7,5.03-5.03,7.98-2.51,5.77-3.84,11.83-4.14,18.03-.15,3.55,0,7.1,.44,10.64,.44,3.25,1.18,6.36,2.22,9.46,1.03,3.4,2.66,6.5,4.73,9.46,1.33,2.07,3.1,3.84,5.03,5.32,3.25,2.66,7.1,3.99,11.38,3.99,2.96,.15,5.77-.59,8.43-2.07,2.51-1.48,4.73-3.25,6.65-5.62,3.1-3.84,5.17-8.28,6.5-13.01v-.44c-.3-.15-.44-.3-.74-.3-.89-.3-1.63-.44-2.37-.74Z"/><path class="cls-1" d="M277.87,196.86c2.81-.44,5.17-1.63,7.54-3.25,2.22-1.63,4.14-3.7,5.77-6.06,2.37-3.4,3.99-7.1,5.03-10.94,.15-.15,.15-.3,.15-.44-.15,0-.3-.15-.44-.15-3.7-1.03-7.24-2.22-10.94-3.4,0,.15-.15,.3-.15,.44-.15,.59-.3,1.03-.44,1.63-.89,2.37-1.92,4.88-3.25,7.1-1.18,2.07-2.66,3.84-4.43,5.32-.15,.15-.44,.3-.74,.44-1.03-.44-2.07-1.03-2.96-1.63-1.18-.74-2.22-1.92-3.25-3.1-1.48-1.92-2.66-3.84-3.55-6.06-1.92-4.43-2.81-9.17-2.96-14.04,0-1.77,0-3.55,.15-5.62,.15-2.81,.59-5.62,1.33-8.43,.74-2.66,1.77-5.32,3.25-7.83,1.18-2.07,2.66-3.84,4.43-5.32,.15-.15,.44-.3,.59-.44,1.03,.3,1.92,.74,2.96,1.48,1.63,1.18,2.81,2.51,3.99,3.99,1.18,1.48,2.07,3.1,2.81,4.88,0,.3,.15,.44,.3,.74,3.99-1.03,7.98-2.22,11.97-3.4-.44-1.03-.74-2.07-1.18-2.81-1.48-3.1-3.25-6.06-5.62-8.43-3.4-3.4-7.39-5.62-12.12-6.06-1.48-.15-3.1-.15-4.43-.15-2.66,.44-5.17,1.48-7.39,3.1-1.92,1.48-3.55,2.96-5.03,4.88-2.07,2.66-3.7,5.47-4.88,8.57-2.22,5.17-3.25,10.79-3.55,16.56-.3,4.88,0,9.61,1.03,14.34,.74,3.55,1.92,7.1,3.55,10.5,1.33,2.66,2.96,5.17,5.03,7.39,3.4,3.55,7.24,5.77,12.12,6.36,1.77,.15,3.55,.15,5.32-.15Z"/><path class="cls-1" d="M134.18,203.52h-.44c-.3,.15-.44,.15-.59,.15v11.23l.15,.15h12.71c.44,0,.74,0,1.03,.15,.15,.3,.15,.74,0,2.22v57.21h11.53c.3,0,.59,.15,.89,0v-59.43c.3-.15,.59-.15,.89-.15h12.42c.15,0,.3-.15,.44-.15v-11.38h-39.03Z"/><path class="cls-1" d="M178.67,139.06v57.21h11.38c.3,0,.59,0,.89-.44v-58.1c.44,0,.74,0,1.03,.3h11.97c.3,0,.59,0,.89-.15v-10.64c0-.3,.15-.44-.15-.74h-39.91v10.5c0,.3-.15,.59,.15,.89h12.86c.3,0,.59-.15,.89,.15v1.03Z"/><path class="cls-1" d="M138.46,183.11h.3c4.14-1.33,8.13-2.66,12.27-3.99,0,0,.15,0,.3-.15-.59-1.63-1.03-2.96-1.63-4.43-.3-.15-.59,0-.89,.15-2.22,.74-4.29,1.48-6.5,2.22-.15,.15-.44,.3-.74,.15-.3-.74-.44-1.48-.74-2.22s-.59-1.48-.74-2.37c1.03-.44,2.22-.74,3.25-1.18,1.18-.44,2.22-.74,3.4-1.18-.15-.74-.44-1.48-.74-2.22-.15-.74-.3-1.48-.74-2.22-1.18,.44-2.22,.74-3.4,1.18-1.03,.44-2.22,.74-3.4,1.18-.44-.74-.59-1.63-.89-2.37-.3-.89-.59-1.63-.89-2.51,2.66-1.03,5.17-1.77,7.69-2.81-.59-1.77-1.33-3.7-1.63-4.14-.15,0-.3,.15-.44,.15-3.84,1.33-7.83,2.66-11.68,3.99-.15,0-.3,0-.44,.15,.15,.3,.15,.44,.3,.74,.74,2.22,1.63,4.43,2.37,6.65,1.63,4.73,3.25,9.61,5.17,14.49,.15,.3,.15,.59,.44,.74Z"/><path class="cls-1" d="M151.92,166.26c1.33,3.4,2.51,6.95,3.7,10.35,0,.15,.15,.44,.3,.59,.74-.3,11.09-3.7,11.68-3.99,.15-1.03,.15-4.58,0-5.17-.3,.15-.44,.15-.74,.3-2.51,.89-4.88,1.63-7.24,2.51-.15,.15-.3,.15-.44,.15-.44-1.33-.89-2.51-1.33-3.7-.3-1.33-.74-2.51-1.18-3.7s-.89-2.51-1.33-3.7c-.3-1.33-.74-2.51-1.18-3.7s-.89-2.37-1.33-3.55c-1.03,.15-4.58,1.48-5.03,1.77,.15,.3,.15,.44,.3,.89,1.33,3.7,2.51,7.24,3.84,10.94Z"/><path class="cls-1" d="M137.87,191.54c11.09-3.99,22.32-7.83,33.41-11.68,.15-1.03,.15-3.4,0-3.99-.59,.15-23.65,7.98-33.56,11.53-.15,.15-.44,.15-.59,.3-.15,1.03-.15,3.4,0,3.99h.3c.15,0,.3-.15,.44-.15Z"/></svg>