<svg id="logos" xmlns="http://www.w3.org/2000/svg" viewBox="0 0 500 400"><defs><style>.cls-1,.cls-2{fill:blue;}.cls-2{fill-rule:evenodd;}</style></defs><title>peroni</title><rect class="cls-1" x="180.92" y="235.64" width="3.36" height="25.39"/><polygon class="cls-2" points="207.36 261.03 207.36 238.64 198.99 238.64 198.99 235.64 219.12 235.64 219.12 238.64 210.72 238.64 210.72 261.03 207.36 261.03"/><path class="cls-2" d="M233,261l8.89-25.55h4l9,25.55h-3.82l-2.55-7.69h-9.18L236.61,261ZM240,250.69l7.81-.11s-3.72-10.9-4.11-12.27c-.33,1.63-3.7,12.38-3.7,12.38"/><polygon class="cls-2" points="272.77 261.03 272.77 235.64 276.13 235.64 276.13 258.03 288.63 258.03 288.63 261.03 272.77 261.03"/><path class="cls-2" d="M307,261V250.27l-8.21-14.63h4.09s5.21,10.52,6,12c.76-1.33,6.19-12,6.19-12H319l-8.63,14.63V261Z"/><path class="cls-1" d="M119.57,148.59v20.53h9.36c6,0,10.91-4.59,10.91-10.26s-4.88-10.27-10.91-10.27ZM102.75,139h28.79c11.24,0,20.36,8.85,20.36,19.76s-9.12,19.76-20.36,19.76h-12v17.4a15.36,15.36,0,0,0,4.76,11.31h-21A15.32,15.32,0,0,0,108,195.89V150.18A14.52,14.52,0,0,0,102.75,139"/><path class="cls-1" d="M221.25,156.68v17.08H229a8.56,8.56,0,1,0,0-17.08Zm-16.61-10.14h26c10.16,0,18.39,8,18.39,17.84a17.62,17.62,0,0,1-7.34,14.25c4.89,4.26,7.79,13.28,10.44,19.65s7.31,8.66,7.31,8.66H239.5a5.62,5.62,0,0,0,1.41-4.07c0-1-1.89-6.93-5.42-13.83a12.6,12.6,0,0,0-9.49-6.83h-4.55v14.56A13.84,13.84,0,0,0,225.74,207H205.1a13.85,13.85,0,0,0,4.3-10.21V156.66a13.14,13.14,0,0,0-4.76-10.12"/><path class="cls-1" d="M268.79,177.08c0,11.83,6,21.42,13.34,21.42s13.35-9.59,13.35-21.42-6-21.43-13.35-21.43-13.34,9.6-13.34,21.43m-11.8-2c0-16.07,11.25-29.09,25.14-29.09s25.15,13,25.15,29.09V179c0,16.07-11.26,29.1-25.15,29.1S257,195.1,257,179Z"/><path class="cls-1" d="M397.25,207H377a13.19,13.19,0,0,0,4.68-10.14V157.07a13.23,13.23,0,0,0-4.52-10h20a13.24,13.24,0,0,0-4.53,10v39.76A13.23,13.23,0,0,0,397.25,207"/><path class="cls-1" d="M367.49,207H353.1l-24.17-37.19v27.05A13.23,13.23,0,0,0,333.61,207h-20.3A13.19,13.19,0,0,0,318,196.83V157.07a13.23,13.23,0,0,0-4.52-10h14.34l24.06,37v-27a13.24,13.24,0,0,0-4.53-10h20a13.23,13.23,0,0,0-4.52,10v39.76A13.19,13.19,0,0,0,367.49,207"/><path class="cls-1" d="M185.25,181.68a42.32,42.32,0,0,0,10.69-1l1,1.56c-10.06,2.17-14.36.62-14.36.62l0,.06c-.16.19-1.48,1.52-7.39.75-6.35-.84-17.07-.36-23.8,3.94a25.6,25.6,0,0,1,2.66-5.35l-2-3.11c2.86-1.82,8.9-3.14,15.9-3.26a52.31,52.31,0,0,1,9.16.5l.42.06c3.71.72,4.61.29,4.61.29h0a1.74,1.74,0,0,0,1.06-1.32,4.67,4.67,0,0,1-2.64.71l-.93-.15A44.37,44.37,0,0,0,167.9,175c-7.37.12-13.68,1.58-16.33,3.55l-.76-1.17c1.52-1.76,5.9-3.23,11.55-3.88V157.07a13.24,13.24,0,0,0-4.53-10l37.28.13,1.38,12.09c-2.25-2.05-9.62-2.21-9.62-2.21H174.32v16.3c1.44.14,2.79.34,4,.58.44-.7.23-3.62.19-4.11a39.23,39.23,0,0,0,8.22.74c4.8,0,8.85-.6,10.14-1.42l-1.25,2.39c-6.87,1.34-11.28,1-13.55.53,0,0,2.29,2.62,13.06.41l-2,3.83,2.28,3.6c-2.21.61-8,1.29-9.91.89s-2.1-.16-2.1-.16-1.33.85,1.83,1m-34.36,7.58c7.7-5.49,18.65-5.53,24.43-4.55,6.06,1,6.86-1.22,6.86-1.22s.58,4-6.86,3.08l-1-.12v10.64h14.34s7.38-.16,9.62-2.21L196.91,207H157.68a13.23,13.23,0,0,0,4.68-10.14V186.72a26.87,26.87,0,0,0-12.06,4.84c.12-.52.3-1.26.59-2.3"/></svg>