<svg id="logos" xmlns="http://www.w3.org/2000/svg" viewBox="0 0 500 400"><defs><style>.cls-1{fill:blue;fill-rule:evenodd;}</style></defs><title>h_m</title><path class="cls-1" d="M288.71,140.81c6.88-3.44,10.41-2.91,10.49.53a136.18,136.18,0,0,1-1.05,14.82c-2.65,23.46-6.89,42.6-7.24,66.78,11.38-29.47,20.82-49.76,33.08-74.9,3.88-8,6.44-6.53,9.62-8,12.44-5.56,12.88-2.12,11.2,4.76-6,25-21.35,103.91-23.73,116-.7,3.53-4.58,2.12-5.47.71-4.58-6.09-9.52-6.18-9-10.32,2.83-20.12,12.88-71,15.44-83-13.32,27.17-27.08,61.31-34.14,80.54-1.5,4.06-4.23,3.8-5.91.8-2.47-4.32-7.05-6.44-7.76-11.38-2.47-15.79,2.73-46,3.44-65.1-7.14,20.81-19.32,61.39-24.61,79.65-2.21,7.59-9.53,6.27-7.59-1,8.12-30.78,25.5-85,33-104.53,1.77-4.68,6.44-4.41,10.24-6.35"/><path class="cls-1" d="M244.78,137c-2.39-.53-9.27,3.17-13.5,3.79a5.11,5.11,0,0,0-3,2.73c-6.7,15.44-12.7,30.09-17.82,43.31-6.7,1.24-14.47,2.74-23.11,4.59,6.26-15.88,12.53-31.67,18.61-46.75,3-7.59-4.94-8.29-8-.71-4,9.8-11.46,28.23-19.76,49.67-6.08,1.5-12.7,3.18-19.4,5.2-4.94,1.33-5.12,2.65-3,5.65,1.23,1.59,3.53,1.41,4.67,2.65,2.91,3,4.68,6.61,9.88,7.14-4.76,12.35-9.35,25-13.41,37.05-2.64,7.68,4.86,9.26,7.68,1.15q6.89-19.45,14.47-39.43c4.14-.89,14.11-3,23.37-5.12-7.32,20.29-12.08,35.55-14,43.05-.36,1.41.35,2.12.61,2.82,2.39,3.53,4.86,3.71,8,8.2.8,1.24,3.71,1.86,4.77-1.14,6.79-20.64,13.67-39.87,20.2-57.16,2.73-.71,7.67-1.86,10.67-6.27,5.29-7.94,6.79-6.35,8.21-8.73,1.58-3.09.44-5.82-5.21-5.21,0,0-2.12.18-6.18.62,6.36-16.14,12-29.81,15.88-40.31,1.33-3.62,1.5-6.27-.61-6.79"/><path class="cls-1" d="M238.57,237.26c.92-1.16,1.75-2.36,2.5-3.47,3.34-4.95.09-7.86-3.35-4.94-.49.45-1,.94-1.51,1.45-.56-1.75-1.15-3.61-1.68-5.3a64.91,64.91,0,0,0,4.42-5.95c5.53-8.57-5.29-13.49-10-7.93-2.46,2.91-1.85,5.82-1.14,8.38.2.76.52,1.86.92,3.2-1.33,1.38-2.9,3.08-5,5.53-5.38,6.17-3.88,14.13,1.76,15.88,3.41,1,6.62-.49,9.41-2.94.13.35.26.68.39,1,1.5,3.7,6.17,2.55,4.32-1.94-.3-.76-.67-1.78-1.09-3m-7.66-7.77c.46,1.44,1,2.95,1.44,4.4a15.34,15.34,0,0,1-1.86,1.4c-2.19,1.26-3.8-.09-1-3.89l1.4-1.91m1.77-10.8a9.12,9.12,0,0,1-.34-1.13c-1.59-5.92,5.19-4.34,1.76-.45-.48.55-.93,1.1-1.42,1.58"/></svg>