<svg id="logos" xmlns="http://www.w3.org/2000/svg" viewBox="0 0 500 400"><defs><style>.cls-1{fill:blue;}</style></defs><title>resterods</title><path class="cls-1" d="M309.34,175.27a6.38,6.38,0,0,0,6.44-6.34,6.3,6.3,0,1,0-12.59,0,6.23,6.23,0,0,0,6.15,6.34"/><path class="cls-1" d="M326.1,175.27a6.38,6.38,0,1,0,0-12.75,6.31,6.31,0,0,0-6.16,6.48,6.21,6.21,0,0,0,6.16,6.27"/><path class="cls-1" d="M208.15,177.75c2.22,0,2.75.07,2.75.07v16.4c0,8.12.48,14.35,5.07,16.75,6.63,3.48,13.32-.5,17.06-4.76l-.24-.29c-3.82,3.89-8.66,5.27-8.66-7.23V177.82h7.29v-.5h-7.29V161.45h-.31c0,11.14-10.18,16-15.67,16v.33"/><path class="cls-1" d="M206.61,184.38c0,2.84-2.36,5-5.51,5s-6.25-2.49-5.76-5.75,6.2-6-1.58-6.25c-3.57-.11-7.12,2.15-7.12,5.14a4.31,4.31,0,0,0,1,2.84c1.22,1.31,4.31,2.64,9.18,4.68,2,.8,3.64,1.6,5.07,2.33,3.72,1.89,5.72,4.81,5.72,8.52a10.07,10.07,0,0,1-4.86,8.52c-3.22,2-7.8,3-14.52,3-8.34,0-13.82-3.33-13.94-8.34a9.54,9.54,0,0,1,.24-1.4,5.43,5.43,0,0,1,5.34-3.81c3.43,0,5.86,2.26,5.86,5.32,0,2.65-4.37,7.21.23,7.73s8.78-.58,8.78-5.84c0-2.84-1.64-4.22-8.44-7.06-2.07-.95-3.79-1.68-5.07-2.33-4.15-2-6.08-4.88-6.08-8.89,0-6.7,6.43-10.85,17.09-10.85a27.31,27.31,0,0,1,8.29,1.13c4.26,1.29,6.08,4.21,6.08,6.37"/><path class="cls-1" d="M405.89,192.32c-1.43-.73-3.07-1.53-5.07-2.33-4.86-2-8-3.37-9.17-4.68a4.27,4.27,0,0,1-1-2.84c0-3,3.56-5.25,7.12-5.14,7.78.25,2.06,3.09,1.59,6.25s2.61,5.75,5.76,5.75,5.5-2.11,5.5-5c0-2.16-1.82-5.08-6.08-6.37a27.31,27.31,0,0,0-8.29-1.13c-10.65,0-17.09,4.15-17.09,10.85,0,4,1.93,6.92,6.08,8.89,1.29.65,3,1.38,5.08,2.33,6.79,2.84,8.43,4.22,8.43,7.06,0,5.26-4.14,6.36-8.78,5.84s-.23-5.08-.23-7.73c0-3.06-2.43-5.32-5.86-5.32a5.44,5.44,0,0,0-5.34,3.81,9.54,9.54,0,0,0-.24,1.4c.13,5,5.61,8.34,13.95,8.34,6.72,0,11.3-.95,14.51-3a10.07,10.07,0,0,0,4.86-8.52c0-3.71-2-6.63-5.72-8.52"/><path class="cls-1" d="M289.3,177a8.3,8.3,0,0,0-7.58,4.92v-5.2c-6.53.48-14.57.6-18.08.62v.53l.71,0c3.79.14,4.15,1.45,4.15,4.95v24l-.08,1.53c-.07,3-.28,2.64-3.88,2.83v.45c4.45-.11,6.67-.16,9.68-.16,2.36,0,4.57,0,9,.14l2.25,0v-.46c-3.39-.11-3.61.11-3.68-2.83l-.07-1.53V192.17c0-5.19-.22-8,.35-9.79a8,8,0,0,1,7-5c2.1,0,1.87,1.61.61,2.58-2,1.54-4.33,2.92-4.33,6.57s2.58,6.48,6.08,6.48a6.4,6.4,0,0,0,6.22-6.78c0-5-3.79-9.27-8.37-9.27"/><path class="cls-1" d="M317.61,211.59a4,4,0,0,1-4.27-3.34c-.82-3.05-.58-6.71-.58-14,0-13.74.73-17.36,4.93-17.36,4,0,5,3.39,5,17.36s-1,17.31-5.08,17.31m-.14-35.08c-8.71,0-19.44,7.35-19.44,17.77s8,17.7,19.59,17.7c11,0,19.37-7.22,19.37-18.25,0-9.63-8.65-17.22-19.52-17.22"/><path class="cls-1" d="M361.5,207a6.06,6.06,0,0,1-5.28,4.26c-2.14,0-3.46-1.68-3.88-5a102.18,102.18,0,0,1-.57-11.79,97.47,97.47,0,0,1,.57-12.09c.42-3,2-4.86,4-4.86,2.31,0,4.87,2.73,5.61,5.93a63.16,63.16,0,0,1,1.06,12A36.58,36.58,0,0,1,361.5,207m15.18,3.91c-1-.24-1.57-.59-1.57-4.24l.09-43.62s-1.67.15-8.49.15c-4.44,0-7.77-.06-9.55-.11v.43l.74,0c3.72.14,4.07,5.29,4.07,5.29v12.92c-1.64-3.65-3.86-5-7.94-5-7.91,0-15.33,9.23-15.33,18.27s7.27,17.13,15.62,17.13c3.79,0,6-1.38,7.65-4.74v4.4c4-.18,6-.13,8.71-.12h8v-.61c-.82-.05-1.79-.11-2-.17"/><path class="cls-1" d="M115.64,184.09c-1.07,1.45-2.57,2.68-5.79,2.75h-1.29V163.5h1.36c5.51,0,7.72,2.67,7.72,10.32,0,4.52-.71,8.52-2,10.27m25.84,22.36c-3,3.31-6.48,2.72-6.34-2,.3-10.08-.39-11.83-2.23-14-1.59-1.86-4.35-2.68-7.21-3.22-.4-.07-.62-.31,0-.42,5.69-1.07,9.85-7,9.57-12.39-.31-6.15-4.93-9.69-13-10.78a51.73,51.73,0,0,0-9.3-.65c-12.48.18-20.46.1-24.53,0v.42h0c1.93.22,3.23.58,3.3,3.57l.07,2.19v36.09l-.07,2c-.07,2.92,0,3.58-1.89,3.73l-1.41.07v.49c2.29,0,6-.08,11.88-.08s9.57,0,11.83.08v-.43l-1.13,0c-1.86-.15-2.34-.82-2.41-3.81V187.37c2.68,0,3.38-.06,4.74.37a5.19,5.19,0,0,1,2.84,2.25c1.07,1.75,1.36,2.67,1.36,7.48.07,6.19.57,8.74,2.07,10.86,1.86,2.54,4.43,4,8.86,4a17.18,17.18,0,0,0,13.28-5.61Z"/><path class="cls-1" d="M152,180.88c.32-2.62,1.7-3.68,3.27-3.68,2.43,0,3.6,2.75,3.6,9.24,0,3.64,0,8.17,0,8.17l-7.83,0s.21-7.8.93-13.71m19.74,24.22v0a15.25,15.25,0,0,1-10.55,6.1c-5.12.82-7.4-1.06-8.71-4.39-1.85-4.68-1.38-11.73-1.38-11.73l21.81,0a53.69,53.69,0,0,0-.7-7c-1.28-6.83-6.19-11.26-16-11.26-11,0-18.73,6.5-18.73,15.52,0,7.23,4,19.9,19.53,19.9,9.8,0,13.38-4.66,15.05-6.77Z"/><path class="cls-1" d="M244.42,180.88c.32-2.62,1.7-3.68,3.27-3.68,2.43,0,3.6,2.75,3.6,9.24,0,3.64,0,8.17,0,8.17l-7.83,0s.2-7.8.93-13.71m19.73,24.24a15.27,15.27,0,0,1-10.56,6.1c-5.11.82-7.39-1.06-8.71-4.38-1.85-4.69-1.38-11.74-1.38-11.74l21.82,0a53.69,53.69,0,0,0-.7-7c-1.29-6.83-6.19-11.26-16-11.26-11,0-18.72,6.5-18.72,15.52,0,7.23,4,19.9,19.53,19.9,9.8,0,13.37-4.66,15.05-6.77l-.33-.39Z"/><polygon class="cls-1" points="182.91 227.78 175.85 227.78 175.85 231.8 182.16 231.8 182.16 233.01 175.85 233.01 175.85 237.13 182.99 237.13 182.99 238.34 174.55 238.34 174.55 226.57 182.91 226.57 182.91 227.78"/><path class="cls-1" d="M189.18,231.82c2.58.57,3.77,1.53,3.77,3.34,0,2-1.66,3.35-3.95,3.35a6.69,6.69,0,0,1-4.72-1.88l.8-1a5.48,5.48,0,0,0,4,1.67c1.55,0,2.57-.83,2.57-2s-.57-1.73-3-2.25c-2.66-.59-3.88-1.47-3.88-3.42s1.6-3.23,3.8-3.23a6,6,0,0,1,4.06,1.45l-.76,1a5,5,0,0,0-3.34-1.28c-1.5,0-2.46.84-2.46,1.92s.6,1.75,3.14,2.31"/><polygon class="cls-1" points="199.16 238.34 197.84 238.34 197.84 227.8 193.95 227.8 193.95 226.57 203.04 226.57 203.04 227.8 199.16 227.8 199.16 238.34"/><path class="cls-1" d="M208.29,228l-2.65,6h5.27Zm5.89,10.31h-1.4l-1.36-3.11h-6.29l-1.37,3.11h-1.34l5.27-11.86h1.22Z"/><path class="cls-1" d="M223.89,235c0-1.29-1.06-2-3.07-2h-3.65v4.16h3.88c1.75,0,2.84-.79,2.84-2.12m-.64-5.33c0-1.18-.91-1.94-2.56-1.94h-3.52v4.06h3.42c1.57,0,2.66-.73,2.66-2.12m1.32-.19a2.85,2.85,0,0,1-1.83,2.74c1.37.42,2.47,1.23,2.47,2.86,0,2-1.67,3.23-4.19,3.23h-5.14V226.57h4.92c2.28,0,3.77,1.14,3.77,2.94"/><polygon class="cls-1" points="227.23 226.57 228.53 226.57 228.53 237.12 235.04 237.12 235.04 238.34 227.23 238.34 227.23 226.57"/><rect class="cls-1" x="236.99" y="226.57" width="1.3" height="11.78"/><path class="cls-1" d="M245.24,231.82c2.58.57,3.77,1.53,3.77,3.34,0,2-1.65,3.35-3.95,3.35a6.7,6.7,0,0,1-4.72-1.88l.81-1a5.45,5.45,0,0,0,4,1.67c1.55,0,2.58-.83,2.58-2s-.58-1.73-3-2.25c-2.66-.59-3.88-1.47-3.88-3.42s1.6-3.23,3.8-3.23a6,6,0,0,1,4.06,1.45l-.76,1a5,5,0,0,0-3.33-1.28c-1.51,0-2.46.84-2.46,1.92s.59,1.75,3.13,2.31"/><polygon class="cls-1" points="252.39 233.04 252.39 238.34 251.09 238.34 251.09 226.57 252.39 226.57 252.39 231.8 259.06 231.8 259.06 226.57 260.37 226.57 260.37 238.34 259.06 238.34 259.06 233.04 252.39 233.04"/><polygon class="cls-1" points="271.42 227.78 264.37 227.78 264.37 231.8 270.67 231.8 270.67 233.01 264.37 233.01 264.37 237.13 271.5 237.13 271.5 238.34 263.06 238.34 263.06 226.57 271.42 226.57 271.42 227.78"/><path class="cls-1" d="M277.56,227.8h-2.71v9.32h2.71a4.66,4.66,0,1,0,0-9.32m0,10.54h-4V226.57h4a5.89,5.89,0,1,1,0,11.77"/><polygon class="cls-1" points="294.87 226.48 295.82 226.48 295.82 238.34 294.54 238.34 294.54 227.86 292.36 228.55 292.04 227.47 294.87 226.48"/><path class="cls-1" d="M302.07,227.54a2.69,2.69,0,0,0-2.78,2.78,2.61,2.61,0,0,0,2.84,2.59,2.69,2.69,0,1,0-.06-5.37m-.28,11a5.31,5.31,0,0,1-3.57-1.45l.76-1a4.15,4.15,0,0,0,2.84,1.27c2.08,0,3.48-2.16,3.43-5.17a3.94,3.94,0,0,1-7.29-1.78,4,4,0,0,1,4.16-4,4,4,0,0,1,3,1.21c.91.92,1.44,2.2,1.44,4.57,0,3.76-1.95,6.4-4.8,6.4"/><path class="cls-1" d="M308.29,227.76v-1.19h7.38v1L312,231.65c2,.17,3.81,1.16,3.81,3.33a3.62,3.62,0,0,1-3.86,3.57,5.21,5.21,0,0,1-4.31-2.11l.94-.85a4.18,4.18,0,0,0,3.39,1.75,2.35,2.35,0,0,0,2.53-2.31c0-1.48-1.33-2.29-3.24-2.29h-.75l-.26-.79,3.65-4.19h-5.65"/><path class="cls-1" d="M318.28,226.57h6.66v1.23h-5.52l-.24,3.76a5.15,5.15,0,0,1,2.28-.52c2.24,0,4,1.37,4,3.62a3.84,3.84,0,0,1-4.13,3.89,5.87,5.87,0,0,1-4.13-1.87l.86-1a4.84,4.84,0,0,0,3.29,1.62,2.61,2.61,0,0,0,2.79-2.63,2.57,2.57,0,0,0-2.87-2.49,4.92,4.92,0,0,0-2.43.67l-.88-.59.33-5.73"/></svg>