<svg id="logos" xmlns="http://www.w3.org/2000/svg" viewBox="0 0 500 400"><defs><style>.cls-1{fill:blue;}</style></defs><title>skoda_cycling_team</title><g id="standard_CMYK" data-name="standard CMYK"><path class="cls-1" d="M35.06,210.45c3.4.16,8.94.32,12.14.32,14,0,15.65,0,15.65-7.63,0-6-1.76-6.48-9.17-6.7l-8.59-.26c-3.94-.13-4-.54-4-2.31s.48-1.82,9.94-1.82c1.79,0,7.5.09,10.52.16a.43.43,0,0,0,.48-.49v-3.91a.45.45,0,0,0-.45-.51c-3-.16-7.86-.32-11.35-.32-13.72,0-15.93.26-15.93,7.34,0,6.06,1.34,6.86,10.13,7.15l7.88.26c3.69.13,3.76.57,3.76,2,0,1.9-.16,2-8.89,2-4.07,0-8.27-.16-12.08-.29-.32,0-.48.13-.48.45v4.11a.45.45,0,0,0,.45.51M183,202H172.77l4.72-9.33h.83Zm-30-3.24V199c0,5.94-.48,6.13-8.17,6.13h-6.35V192.59h6.35c7.69,0,8.17.19,8.17,6.12m-33.29,0V199c0,6.48-.25,6.58-7.82,6.58s-7.83-.1-7.83-6.58v-.32c0-6.47.26-6.57,7.83-6.57s7.82.1,7.82,6.57m74.64,11.13-11.06-22.16a.53.53,0,0,0-.55-.35H173a.53.53,0,0,0-.55.35l-11.06,22.16c-.16.35,0,.58.35.58h6.38a.53.53,0,0,0,.55-.36l1.67-3.27h15.13l1.67,3.27a.52.52,0,0,0,.54.36h6.38c.39,0,.52-.23.36-.58m-49.56-22.51H132.07a.43.43,0,0,0-.49.48v22.13a.43.43,0,0,0,.49.48h12.79c13.69,0,15.49-.68,15.49-11.45v-.19c0-10.78-1.8-11.45-15.49-11.45M95.33,209.84,82.57,197.37l12-9.46c.36-.26.22-.58-.23-.58H86.51a.9.9,0,0,0-.58.22l-12.24,9.79v-9.53a.42.42,0,0,0-.48-.48h-6a.42.42,0,0,0-.48.48v22.13a.42.42,0,0,0,.48.48h6a.42.42,0,0,0,.48-.48v-5.58l3.62-2.86,8.78,8.66a.79.79,0,0,0,.61.26h8.4c.42,0,.55-.29.23-.58m1.36-11.13V199c0,11.19,1.84,11.87,15.27,11.87s15.26-.68,15.26-11.9v-.29c0-11.18-1.83-11.86-15.26-11.86s-15.27.68-15.27,11.86M42.65,182l2.92,3.33a.67.67,0,0,0,.58.26h6.12a.67.67,0,0,0,.58-.26L55.77,182c.25-.29.16-.58-.26-.58H51.38a.69.69,0,0,0-.58.29l-1.25,1.8h-.68l-1.25-1.8a.71.71,0,0,0-.61-.29h-4.1c-.42,0-.51.29-.26.58"/></g><path class="cls-1" d="M208.15,212.73a1.49,1.49,0,0,1-1.09-2.52l10.2-10.9-10.21-11a1.5,1.5,0,1,1,2.2-2l12.12,13-12.13,12.94A1.49,1.49,0,0,1,208.15,212.73Z"/><path class="cls-1" d="M243.45,212.48a20.86,20.86,0,0,1-4.86-.48,6.6,6.6,0,0,1-3.2-1.71,6.94,6.94,0,0,1-1.75-3.28,21,21,0,0,1-.54-5.23v-1.92a21,21,0,0,1,.5-4.93,7.09,7.09,0,0,1,1.68-3.3,6.77,6.77,0,0,1,3.18-1.85,18.42,18.42,0,0,1,5-.58c.9,0,1.77.05,2.6.13s1.58.18,2.26.29a.26.26,0,0,1,.23.36l-.27,1.44a.3.3,0,0,1-.35.25,19.73,19.73,0,0,0-2.18-.23q-1.17-.06-2.25-.06a15.14,15.14,0,0,0-4,.43,4.81,4.81,0,0,0-2.46,1.45A5.87,5.87,0,0,0,235.8,196a21,21,0,0,0-.36,4.23v1.28a21.19,21.19,0,0,0,.36,4.29,5.83,5.83,0,0,0,1.25,2.72,4.84,4.84,0,0,0,2.46,1.42,16.16,16.16,0,0,0,4,.41c.79,0,1.57,0,2.34-.08s1.48-.13,2.15-.24c.21,0,.32,0,.33.23l.25,1.49a.29.29,0,0,1-.25.35c-.68.11-1.46.21-2.35.28S244.24,212.48,243.45,212.48Z"/><path class="cls-1" d="M253.77,221.9a11,11,0,0,1-1.22-.07,9.39,9.39,0,0,1-1.21-.22.27.27,0,0,1-.25-.36l.27-1.48a.27.27,0,0,1,.36-.23c.32.07.66.12,1,.17a8.82,8.82,0,0,0,1,.06,11.94,11.94,0,0,0,1.56-.09,4.14,4.14,0,0,0,1.22-.37,3.52,3.52,0,0,0,1-.79,7.12,7.12,0,0,0,.89-1.39,20.41,20.41,0,0,0,.91-2.11c.32-.83.66-1.83,1-3h-.07a.54.54,0,0,1-.44-.23,4.53,4.53,0,0,1-.39-.63,6.85,6.85,0,0,1-.48-1.09l-7.56-20.16q-.09-.27.18-.27h2a.39.39,0,0,1,.39.27l6.23,16.84c.11.34.22.66.32,1s.2.58.29.82l.19.57c.05.15.09.22.12.22l6.1-19.41a.35.35,0,0,1,.37-.27h2q.29,0,.21.27L262,213.73c-.39,1.17-.76,2.19-1.1,3.05a14.32,14.32,0,0,1-1.06,2.21,7.24,7.24,0,0,1-1.12,1.47,4.82,4.82,0,0,1-1.31.89,5.68,5.68,0,0,1-1.61.43A15.09,15.09,0,0,1,253.77,221.9Z"/><path class="cls-1" d="M283.91,212.48a20.83,20.83,0,0,1-4.85-.48,6.56,6.56,0,0,1-3.2-1.71A7,7,0,0,1,274.1,207a21.59,21.59,0,0,1-.53-5.23v-1.92a21.63,21.63,0,0,1,.49-4.93,7.28,7.28,0,0,1,1.68-3.3,6.85,6.85,0,0,1,3.19-1.85,18.4,18.4,0,0,1,5-.58c.91,0,1.78.05,2.6.13s1.59.18,2.27.29a.27.27,0,0,1,.23.36l-.27,1.44a.3.3,0,0,1-.36.25,19.28,19.28,0,0,0-2.17-.23c-.78,0-1.53-.06-2.26-.06a15.06,15.06,0,0,0-4,.43,4.81,4.81,0,0,0-2.46,1.45,5.78,5.78,0,0,0-1.25,2.72,21,21,0,0,0-.36,4.23v1.28a21.19,21.19,0,0,0,.36,4.29,5.73,5.73,0,0,0,1.25,2.72,4.84,4.84,0,0,0,2.46,1.42,16.07,16.07,0,0,0,4,.41c.8,0,1.58,0,2.34-.08s1.49-.13,2.16-.24c.21,0,.32,0,.33.23l.25,1.49a.29.29,0,0,1-.25.35c-.68.11-1.46.21-2.35.28S284.71,212.48,283.91,212.48Z"/><path class="cls-1" d="M295.15,212a.26.26,0,0,1-.29-.29V178.84a.33.33,0,0,1,.29-.35l1.72-.38c.19,0,.29,0,.29.23v33.39a.26.26,0,0,1-.29.29Z"/><path class="cls-1" d="M305,185.86a.26.26,0,0,1-.29-.29v-5.39a.34.34,0,0,1,.29-.36l1.95-.37c.19,0,.29,0,.29.23v5.89a.26.26,0,0,1-.29.29Zm.13,26.16a.25.25,0,0,1-.29-.29V189.94c0-.2.09-.3.29-.3h1.71c.2,0,.29.1.29.3v21.79a.25.25,0,0,1-.29.29Z"/><path class="cls-1" d="M330.19,212a.25.25,0,0,1-.29-.29V198.58a16.73,16.73,0,0,0-.29-3.36,5,5,0,0,0-.94-2.18,3.58,3.58,0,0,0-1.73-1.19,8.2,8.2,0,0,0-2.66-.37,16,16,0,0,0-3.8.48,15.6,15.6,0,0,0-3.68,1.42v18.35a.26.26,0,0,1-.3.29h-1.73a.25.25,0,0,1-.29-.29V189.54c0-.2.09-.29.29-.29H316a.33.33,0,0,1,.36.29l.35,1.77a19.87,19.87,0,0,1,3.95-1.55,15.64,15.64,0,0,1,4.1-.56,10.91,10.91,0,0,1,3.55.5,4.84,4.84,0,0,1,2.28,1.57,6.89,6.89,0,0,1,1.22,2.82,21.06,21.06,0,0,1,.36,4.2v13.44a.25.25,0,0,1-.29.29Z"/><path class="cls-1" d="M345.88,221.9l-1.29,0c-.48,0-1-.06-1.49-.11s-1-.1-1.53-.17-1-.16-1.37-.25c-.12,0-.19-.07-.22-.13a.38.38,0,0,1,0-.25l.23-1.42c0-.2.13-.27.34-.23a15.11,15.11,0,0,0,2.52.4c.91.07,1.8.1,2.68.1a20.86,20.86,0,0,0,3.73-.28A5.24,5.24,0,0,0,352,218.4a4.91,4.91,0,0,0,1.41-2.39,15.61,15.61,0,0,0,.44-4.1,21,21,0,0,1-2.35.38,23.67,23.67,0,0,1-2.65.15,19,19,0,0,1-5-.56,6.36,6.36,0,0,1-4.87-5,20.27,20.27,0,0,1-.49-4.84v-2.42a21,21,0,0,1,.5-5,7,7,0,0,1,1.68-3.22,6.6,6.6,0,0,1,3.15-1.72,19.78,19.78,0,0,1,4.89-.52c1.07,0,2.21,0,3.43.12a30.92,30.92,0,0,1,3.73.47.32.32,0,0,1,.29.35V212a17,17,0,0,1-.61,5,6.51,6.51,0,0,1-1.88,3,6.85,6.85,0,0,1-3.19,1.49A22.36,22.36,0,0,1,345.88,221.9Zm2.73-30.56a15.58,15.58,0,0,0-4,.42,4.9,4.9,0,0,0-2.41,1.44,5.53,5.53,0,0,0-1.19,2.68,23.37,23.37,0,0,0-.31,4.19v1.59a22.55,22.55,0,0,0,.32,4.13,5.52,5.52,0,0,0,1.22,2.66,5,5,0,0,0,2.49,1.42,16.62,16.62,0,0,0,4.12.41l1.19,0,1.3-.09c.44,0,.87-.09,1.29-.16a11.21,11.21,0,0,0,1.15-.22V191.67c-.8-.11-1.63-.19-2.5-.25S349.53,191.34,348.61,191.34Z"/><path class="cls-1" d="M380.52,212.48a9.85,9.85,0,0,1-2.1-.2,2.82,2.82,0,0,1-1.49-.82,3.86,3.86,0,0,1-.88-1.74,12,12,0,0,1-.3-3v-15l-4.41-.23a.28.28,0,0,1-.29-.31v-1.25a.26.26,0,0,1,.29-.3h4.41v-4.15a.33.33,0,0,1,.3-.36l1.73-.38c.19,0,.29,0,.29.23v4.66h7c.2,0,.27.1.23.3l-.31,1.5a.33.33,0,0,1-.36.29h-6.56v14.94a9.84,9.84,0,0,0,.15,1.93,2.38,2.38,0,0,0,.49,1.11,1.61,1.61,0,0,0,.9.5,6.57,6.57,0,0,0,1.37.12,13.75,13.75,0,0,0,1.53-.09,11.21,11.21,0,0,0,1.41-.21c.21,0,.32,0,.34.23l.21,1.4c0,.2-.05.32-.26.38a15.76,15.76,0,0,1-1.67.3A15.12,15.12,0,0,1,380.52,212.48Z"/><path class="cls-1" d="M398.9,212.48a15.23,15.23,0,0,1-4.52-.58,6.57,6.57,0,0,1-3.05-1.88,8,8,0,0,1-1.73-3.39,20.88,20.88,0,0,1-.54-5.14v-1.63a19.21,19.21,0,0,1,.51-4.7,7.92,7.92,0,0,1,1.65-3.32,7,7,0,0,1,3-2,13,13,0,0,1,4.43-.66,13.32,13.32,0,0,1,4.37.63,7.18,7.18,0,0,1,2.94,1.87,7.45,7.45,0,0,1,1.67,3.09,15.88,15.88,0,0,1,.52,4.3,11.92,11.92,0,0,1-.07,1.42c-.05.4-.09.7-.11.89a.34.34,0,0,1-.36.3l-16.21,0a19.08,19.08,0,0,0,.4,4.05,6.24,6.24,0,0,0,1.25,2.68,4.87,4.87,0,0,0,2.33,1.47,12.44,12.44,0,0,0,3.62.45h1.75c.56,0,1.13,0,1.69-.07s1.14-.08,1.72-.15,1.2-.16,1.84-.27c.21,0,.32.07.34.25l.25,1.42a.3.3,0,0,1-.25.35c-.59.11-1.17.21-1.75.28s-1.16.14-1.75.18-1.21.08-1.85.1S399.63,212.48,398.9,212.48ZM406,199.59a18.34,18.34,0,0,0-.4-3.69,6.15,6.15,0,0,0-1.22-2.57,4.89,4.89,0,0,0-2.24-1.5,10.63,10.63,0,0,0-3.49-.49,10.19,10.19,0,0,0-3.42.49,4.92,4.92,0,0,0-2.21,1.51,6.22,6.22,0,0,0-1.22,2.6,17,17,0,0,0-.4,3.77Z"/><path class="cls-1" d="M421.53,191.34c-1.23,0-2.37,0-3.42.14s-2.11.24-3.18.42c-.2,0-.3-.07-.3-.25v-1.48a.33.33,0,0,1,.3-.36c.54-.1,1.12-.18,1.73-.26s1.21-.14,1.81-.2,1.16-.1,1.71-.12,1.05,0,1.49,0a16.74,16.74,0,0,1,4.35.45,4.83,4.83,0,0,1,2.45,1.45,5.09,5.09,0,0,1,1.09,2.62,27.11,27.11,0,0,1,.24,3.92v13.9c0,.21-.1.32-.29.33-.62.1-1.26.19-1.92.26s-1.33.14-2,.2-1.28.1-1.87.13-1.11,0-1.56,0a25.6,25.6,0,0,1-4.3-.31,8,8,0,0,1-3-1.08,4.61,4.61,0,0,1-1.79-2.13,8.64,8.64,0,0,1-.59-3.42,11.68,11.68,0,0,1,.21-2.34,4.9,4.9,0,0,1,.72-1.78,4.22,4.22,0,0,1,1.39-1.29,7.42,7.42,0,0,1,2.19-.83,20,20,0,0,1,3.13-.45c1.2-.09,2.6-.14,4.21-.14h3.21v-1.78a13.27,13.27,0,0,0-.23-2.77,3.25,3.25,0,0,0-.88-1.72,3.72,3.72,0,0,0-1.83-.86A15.73,15.73,0,0,0,421.53,191.34Zm.64,19.11c.95,0,1.87,0,2.77-.1s1.76-.16,2.58-.28v-9.31h-3.44a48.19,48.19,0,0,0-4.84.19,8,8,0,0,0-2.86.71,2.68,2.68,0,0,0-1.37,1.45,6.76,6.76,0,0,0-.36,2.41,5.39,5.39,0,0,0,.54,2.61,3.58,3.58,0,0,0,1.51,1.5,6.74,6.74,0,0,0,2.37.66A26.57,26.57,0,0,0,422.17,210.45Z"/><path class="cls-1" d="M437.09,212a.26.26,0,0,1-.29-.29V189.54a.25.25,0,0,1,.29-.29h1.25a.33.33,0,0,1,.36.29l.35,1.73a10.87,10.87,0,0,1,3-1.49,11,11,0,0,1,3.49-.58,10.46,10.46,0,0,1,3.23.44,4.7,4.7,0,0,1,2.18,1.49,16.67,16.67,0,0,1,3.64-1.43,13.92,13.92,0,0,1,3.59-.5,12.4,12.4,0,0,1,3.55.44,5.17,5.17,0,0,1,2.34,1.44,5.92,5.92,0,0,1,1.29,2.62,17.51,17.51,0,0,1,.38,3.92v14.11a.25.25,0,0,1-.29.29h-1.73a.26.26,0,0,1-.3-.29v-13.4a18.47,18.47,0,0,0-.27-3.5,4.55,4.55,0,0,0-.92-2.09,3.17,3.17,0,0,0-1.72-1,11.78,11.78,0,0,0-2.66-.26,13,13,0,0,0-2.9.33,13.73,13.73,0,0,0-3,1.13,11.58,11.58,0,0,1,.53,2.31,24.25,24.25,0,0,1,.16,3v13.5a.25.25,0,0,1-.29.29h-1.69a.25.25,0,0,1-.29-.29V198.44a17.51,17.51,0,0,0-.29-3.51,4.77,4.77,0,0,0-.91-2.13,3.08,3.08,0,0,0-1.64-1.06,9.12,9.12,0,0,0-2.45-.28,11.74,11.74,0,0,0-2.94.41,8.29,8.29,0,0,0-3,1.51v18.35a.26.26,0,0,1-.3.29Z"/></svg>