<?xml version="1.0" encoding="UTF-8"?>
<svg id="logos" xmlns="http://www.w3.org/2000/svg" viewBox="0 0 500 400">
  <defs>
    <style>
      .cls-1 {
        fill: blue;
      }
    </style>
  </defs>
  <polygon class="cls-1" points="132.25 172.16 120.17 161.13 114.99 166.5 131.19 173.4 132.25 172.16"/>
  <path class="cls-1" d="m125.35,176.09l3.26,8.05-22.14,53.58h1.92l8.05-19.46h26.36l8.05,19.46h9.97l-25.69-61.63h-9.78Zm-8.15,40.35l12.46-29.91,12.36,29.91h-24.83Z"/>
  <polygon class="cls-1" points="187.84 227.75 167.71 176.09 157.94 176.09 182.19 238.29 185.64 238.29 209.6 176.09 207.68 176.09 187.84 227.75"/>
  <path class="cls-1" d="m244.78,174.93c-18.21,0-31.92,14.38-31.92,32.01s13.71,31.92,31.92,31.92,31.92-14.28,31.92-31.92-13.71-32.01-31.92-32.01Zm2.97,61.34c-13.23,0-23.29-12.84-24.83-29.33-1.63-16.58,5.27-29.33,18.98-29.33s23.2,12.75,24.73,29.33c1.63,16.49-5.66,29.33-18.88,29.33Z"/>
  <path class="cls-1" d="m367.85,176.09h-9.78l3.26,8.05-22.14,53.58h1.92l8.05-19.46h26.36l8.05,19.46h9.97l-25.69-61.63Zm-17.92,40.35l12.46-29.91,12.36,29.91h-24.83Z"/>
  <path class="cls-1" d="m325.78,228.44c-.42-2.35-.51-8.36-1.3-11.44-1.53-6.04-5.94-8.43-12.46-9.11h-1.3c10.97-2.37,13.9-9.6,13.9-15.85,0-7.34-3.32-15.99-24.71-15.99h-3.6s0,0,0,0h-8.93v61.63h9.39v-28.62h3.92c1.74,0,3.1-.04,4.2-.11,5.71.5,8.6,3.19,10.66,10.52.46,1.62.55,6.72.95,8.82,1.53,8.05,8.72,10.35,16.49,10.35v-1.63c-5.32,0-6.26-3.24-7.2-8.58Zm-11.03-36.4c0,8.56-4.02,15.38-13.54,15.38h-4.44v-29.7h2.95c8.91,0,15.03,4.72,15.03,14.32Z"/>
</svg>