<?xml version="1.0" encoding="UTF-8"?>
<svg id="logos" xmlns="http://www.w3.org/2000/svg" viewBox="0 0 500 400">
  <defs>
    <style>
      .cls-1 {
        fill: blue;
      }
    </style>
  </defs>
  <path class="cls-1" d="m262.67,215.98h-5.12v6.32h5.12c.46,0,.83-.17,1.1-.5.29-.33.42-.76.42-1.28v-2.73c0-.52-.13-.96-.42-1.31-.29-.33-.67-.5-1.1-.5Z"/>
  <path class="cls-1" d="m250,118.32c-45.11,0-81.68,36.57-81.68,81.68s36.57,81.68,81.68,81.68,81.68-36.57,81.68-81.68-36.57-81.68-81.68-81.68Zm-30.53,37.8h41.98l-6.44,10.19-41.98.02,6.44-10.21Zm-8.51,73.67c0,1.3-.45,2.43-1.34,3.32-.91.91-2.03,1.38-3.32,1.38h-5.55c-1.3,0-2.42-.43-3.29-1.32-.89-.87-1.32-1.97-1.32-3.29v-2.19h3.42l.49,2.03c.23.83.81,1.27,1.74,1.27h3.74c.46,0,.85-.17,1.14-.52.27-.33.42-.79.42-1.29v-2.4c0-1.18-.52-1.78-1.56-1.78h-4.7c-1.28,0-2.4-.46-3.34-1.37-.91-.91-1.34-2.03-1.34-3.33v-3.19c0-1.28.45-2.38,1.34-3.29.93-.91,2.05-1.36,3.34-1.36h0s5.47,0,5.47,0c1.28,0,2.38.43,3.27,1.3.89.89,1.32,1.97,1.32,3.3v1.99h-3.37l-.52-1.8c-.27-.85-.85-1.29-1.72-1.29h-3.68c-.48,0-.87.17-1.14.52-.31.35-.44.79-.44,1.31v1.86c0,1.16.52,1.74,1.58,1.74h4.7c1.26,0,2.38.46,3.29,1.39.91.93,1.36,2.03,1.36,3.3v3.74Zm19.26-8.08c0,1.3-.46,2.4-1.37,3.32-.93.91-2.05,1.36-3.33,1.36h-6.09v8.1h-3.9v-22.05h9.99c1.28,0,2.4.45,3.33,1.36.91.91,1.37,2.01,1.37,3.27v4.64Zm18.68,8.04c0,1.35-.43,2.45-1.38,3.36-.93.91-2.01,1.38-3.32,1.38h-5.26c-1.3,0-2.42-.45-3.33-1.38-.91-.91-1.39-2.01-1.39-3.36v-12.67c0-1.26.48-2.38,1.39-3.27.91-.91,2.02-1.36,3.33-1.36h5.26c1.3,0,2.4.45,3.32,1.36.93.89,1.38,2.01,1.38,3.29v12.65Zm.98-22.57l-53.18.02,12.92-20.44h-9.49l6.47-10.21h39.55l-6.46,10.21h-17.73l-6.55,10.23h28.54l26.1-41.21,32.49,51.4h-12.26l-6.46-10.21h-19.2l6.47-10.23h6.29l-7.33-11.6-20.17,32.04Zm14.97,27.32l-3.58-8.63h-3.71v8.63h-3.89v-22.05s9.75,0,9.75,0c1.3,0,2.42.45,3.31,1.36.91.91,1.37,2.01,1.37,3.27v3.86c0,.99-.27,1.9-.83,2.71-.58.79-1.3,1.37-2.15,1.74l3.88,9.11h-4.15Zm20.9-18.5h-5.68v18.5h-3.89v-18.5h-5.61v-3.56h15.18v3.56Zm17.67,13.8c0,1.3-.45,2.43-1.36,3.32-.93.91-2.03,1.38-3.34,1.38h-5.51c-1.33,0-2.4-.43-3.29-1.32-.87-.87-1.32-1.97-1.32-3.29v-2.19h3.4l.51,2.03c.25.83.81,1.27,1.74,1.27h3.74c.48,0,.87-.17,1.16-.52.27-.33.42-.79.42-1.29v-2.4c0-1.18-.52-1.78-1.58-1.78h-4.7c-1.3,0-2.43-.46-3.32-1.37-.91-.91-1.38-2.03-1.38-3.33v-3.19c0-1.28.47-2.38,1.38-3.29.89-.91,2.01-1.36,3.32-1.36h0s5.45,0,5.45,0c1.3,0,2.4.43,3.29,1.3.89.89,1.32,1.97,1.32,3.3v1.99h-3.4l-.51-1.8c-.27-.85-.85-1.29-1.72-1.29h-3.7c-.48,0-.87.17-1.14.52-.29.35-.44.79-.44,1.31v1.86c0,1.16.54,1.74,1.58,1.74h4.7c1.28,0,2.38.46,3.29,1.39.95.93,1.41,2.03,1.41,3.3v3.74Z"/>
  <path class="cls-1" d="m243.44,215.98h-3.75c-.5,0-.87.17-1.16.52s-.42.77-.42,1.31v11.3c0,.52.15.94.42,1.29.29.35.66.54,1.16.54h3.75c.46,0,.82-.19,1.11-.54.31-.35.46-.77.46-1.29v-11.32c0-.52-.15-.96-.46-1.31-.29-.33-.66-.5-1.11-.5Z"/>
  <path class="cls-1" d="m224.73,215.98h-5.3v6.86h5.32c.46,0,.82-.17,1.11-.52.29-.35.44-.76.44-1.3v-3.23c0-.54-.15-.96-.44-1.31-.29-.33-.68-.5-1.14-.5Z"/>
</svg>