<?xml version="1.0" encoding="UTF-8"?>
<svg id="logos" xmlns="http://www.w3.org/2000/svg" viewBox="0 0 500 400">
  <defs>
    <style>
      .cls-1 {
        fill: blue;
        stroke-width: 0px;
      }
    </style>
  </defs>
  <polygon class="cls-1" points="185.19 167.2 174.23 167.2 174.23 232.8 216.48 232.8 216.48 223.15 185.19 223.15 185.19 167.2"/>
  <polygon class="cls-1" points="206.83 167.2 206.83 176.85 229.14 176.85 229.14 232.8 240.1 232.8 240.04 167.2 206.83 167.2"/>
  <path class="cls-1" d="m285.96,165.96c-18.8,0-34.04,15.24-34.04,34.04s15.24,34.04,34.04,34.04,34.04-15.24,34.04-34.04-15.24-34.04-34.04-34.04Zm0,57.25c-12.82,0-23.21-10.39-23.21-23.21s10.39-23.21,23.21-23.21,23.21,10.39,23.21,23.21-10.39,23.21-23.21,23.21Z"/>
  <path class="cls-1" d="m355.75,205.45c7.37-3.19,11.77-9.98,11.77-18.17,0-12.2-8.76-20.08-22.31-20.08h-14.39v9.65h12.66c7.9,0,12.75,3.93,12.75,10.51s-4.73,10.51-12.75,10.51h-12.66v9.65h14.19l15.42,25.3h11.99l-16.67-27.35Z"/>
  <polygon class="cls-1" points="127.58 167.2 143.6 207.51 127.58 207.51 127.58 217.16 147.44 217.16 153.66 232.8 165.2 232.8 139.11 167.2 127.58 167.2"/>
</svg>