<?xml version="1.0" encoding="UTF-8"?>
<svg id="logos" xmlns="http://www.w3.org/2000/svg" viewBox="0 0 500 400">
  <defs>
    <style>
      .cls-1 {
        fill: blue;
        stroke-width: 0px;
      }
    </style>
  </defs>
  <path class="cls-1" d="m221.68,170.19h13.91c11.92,0,21.86-7.04,21.86-19.11s-9.94-19.11-21.86-19.11h0s-25.83,0-25.83,0v61.86h11.92v-23.63Zm0-27.91h13.91c5.96,0,9.93,2.93,9.93,8.8s-3.97,8.81-9.93,8.81h-13.91v-17.61Z"/>
  <polygon class="cls-1" points="260.43 193.82 265.77 180.5 280.3 180.5 280.3 170.19 269.91 170.19 280.3 144.34 280.3 131.96 274.34 131.96 247.51 193.82 260.43 193.82"/>
  <path class="cls-1" d="m270.37,216.5c3.1,0,6.15.75,8.9,2.18,2.78,1.45,5.17,3.52,7,6.07h12.51c-4.66-11.51-15.62-19.59-28.41-19.59-17.01,0-30.8,14.31-30.8,31.95s13.79,31.95,30.8,31.95c12.78,0,23.74-8.08,28.41-19.59h-12.51c-1.82,2.54-4.22,4.62-7,6.07-2.75,1.43-5.8,2.18-8.9,2.18-10.97,0-19.87-9.23-19.87-20.62s8.89-20.62,19.87-20.62Z"/>
  <path class="cls-1" d="m182.97,157.07l-1.34-.24-.67-.12c-11.92-2.06-14.91-3.09-14.91-8.25s4.97-7.22,11.92-7.22,12.91,3.09,13.91,9.28h10.93c-1-11.34-9.93-19.59-23.84-19.59h0c-13.91,0-23.85,8.25-23.84,19.59,0,11.34,9.94,14.43,21.86,16.5,11.92,2.06,14.9,5.16,14.9,10.31s-3.97,7.22-11.92,7.22-13.91-3.09-14.9-9.28h-10.93c.99,13.4,10.93,19.59,24.84,19.59,13.91,0,24.83-6.18,24.83-19.59,0-12.64-9.72-16.11-20.83-18.19Z"/>
  <polygon class="cls-1" points="345.87 216.5 345.87 206.19 304.15 206.19 304.15 268.04 345.87 268.04 345.87 257.73 316.07 257.73 316.07 242.26 339.91 242.26 339.91 231.96 316.06 231.96 316.06 216.5 345.87 216.5"/>
  <polygon class="cls-1" points="215.73 206.19 209.77 206.19 209.77 218.56 220.15 244.41 209.76 244.41 209.76 254.72 224.29 254.72 229.63 268.04 242.55 268.04 215.72 206.19 215.73 206.19"/>
</svg>