<?xml version="1.0" encoding="UTF-8"?>
<svg id="logos" xmlns="http://www.w3.org/2000/svg" viewBox="0 0 500 400">
  <defs>
    <style>
      .cls-1, .cls-2 {
        fill: blue;
      }

      .cls-2 {
        stroke-width: 0px;
      }
    </style>
  </defs>
  <path class="cls-1" d="m127.78,184.87c.4-.31,1.47-1.1,1.62-1.21.26-1.75.88-4.71,2.33-7.74,1.59-3.25,4.11-6.84,7.62-9.22,2.95-2,7.82-4.19,11.57-5.01,3.09-.66,5.96-.78,8.44-.56,5.08.46,7.9,1.91,9.3,3.78.53.71.82,1.58.84,2.14.04.92-.38,2.17-1.71,3.36-1.32,1.16-4.08,2.63-7.87,3.88-3.95,1.33-9.31,2.73-14.68,3.96-4.5,1.02-8.14,2.21-10.23,3-.64.23-1.05.43-1.6.67-.34.82-1.11,2.97-1.32,4.12,3.95,1.59,6.5,3.65,8.47,5.29,2.56,2.09,5.52,4.57,9.21,9.02,3.33,4.08,8.78,11.9,10.76,19.49,2.16,8.32.81,16.22-3.88,18.41-4.6,2.17-10.72-.95-15.03-5.43-4.1-4.26-6.95-9.27-9.64-16.97-2.33-6.66-3.26-16.28-3.26-21.31,0-1.69,0-2.67.06-4.2-1.89-1.22-4.09-1.15-6.58.29-4.53,2.62-9.23,8.27-11.74,11.22-1.09,1.3-2.57,3.19-4.14,5.16-2.06,2.61-4.35,5.32-6.43,6.84-3.13,2.27-8.16,3.23-11.68.71-1.95-1.4-3.01-4.05-3.02-6.75-.04-1.92.43-3.64,1.37-5.31,1.19-2.09,3.11-4.31,6.21-6.87,3.18-2.64,8.26-5.61,13.35-7.65,7.76-3.14,16.12-4.14,21.67-3.13h0Z"/>
  <polygon class="cls-2" points="273.2 224.14 273.2 171.08 274.64 171.08 274.64 224.14 273.2 224.14 273.2 224.14"/>
  <g>
    <g>
      <path class="cls-2" d="m176.73,207.49c-2.54,0-3.5-1.49-3.5-3.49v-12.86h-2.58c-.23,0-.23-.41-.23-.75s0-.78.23-.78h2.58v-4.44c0-.2.57-.2.92-.2s.92,0,.92.2v4.44h4.01c.2,0,.2.37.2.78s0,.75-.2.75h-4.01v12.79c0,1.42.61,1.97,2.11,1.97h1.86c.24,0,.31.07.31.74,0,.75-.07.85-.31.85h-2.3Z"/>
      <path class="cls-2" d="m173.06,204v-12.68h-2.4c-.5-.09-.39-.62-.42-.92h0c0-.17,0-.38.04-.55h0c.02-.16.12-.4.38-.41h2.4v-4.26c.05-.31.3-.32.48-.36h0c.21-.03.44-.03.61-.03h0c.17,0,.4,0,.6.03h0c.19.03.44.05.5.36h0v4.26s3.82,0,3.82,0c.24,0,.33.23.35.38h0c.03.17.03.37.03.58h0c0,.2,0,.39-.03.56h0c-.02.15-.12.36-.35.36h-3.83v12.61c.04,1.36.47,1.75,1.92,1.79h1.87c.12-.01.33.04.41.22h0c.07.16.07.36.08.7h0c0,.7-.12,1.03-.49,1.03h-2.3v-.35h2.3s.05-.01.05-.01h0s0,0,.03-.02h0c.03-.07.05-.28.05-.64h0c0-.33-.03-.51-.05-.55h0s0-.01-.02-.01h0s-.02,0-.05,0h-1.87c-.76,0-1.34-.14-1.73-.5h0c-.39-.36-.55-.92-.55-1.65h0v-12.97h4.16s.02-.04.02-.08h0c.02-.1.02-.29.02-.49h0c0-.28-.02-.54-.05-.6h-4.16v-4.59s-.1-.03-.18-.03h0c-.16-.03-.39-.03-.56-.03h0c-.25,0-.64.01-.74.07h0v4.58h-2.76s0,0-.03.12h0c-.02.13-.03.31-.03.48h0c0,.16,0,.35.03.46h0c.02.1.03.1.03.1h2.76v13.04c.02,1.95.85,3.3,3.32,3.32h0v.36c-2.64,0-3.68-1.62-3.68-3.68h0Z"/>
    </g>
    <g>
      <path class="cls-2" d="m183.01,199.22v1.76c0,3.26,1.73,5.26,5.23,5.26,2.64,0,4.24-.72,5.57-1.43.26-.14,1.12,1.32.78,1.53-1.73.98-3.87,1.56-6.27,1.56-4.48,0-7.13-2.51-7.13-6.79v-5.6c0-4.14,2.92-6.79,6.76-6.79,4.13,0,6.95,2.65,6.95,7.16v3.33h-11.88Zm10.04-3.5c0-3.63-2.34-5.39-5.12-5.39s-4.92,1.76-4.92,5.29v2.1h10.04v-2Z"/>
      <path class="cls-2" d="m181,201.11v-5.6c0-4.23,3.02-6.96,6.93-6.97h0c4.22,0,7.13,2.75,7.14,7.34h0v3.5h-11.89v1.59c.03,3.19,1.64,5.06,5.05,5.08h0c2.62,0,4.17-.7,5.48-1.41h0s.09-.03.12-.03h0c.51.11.93.98.99,1.53h0c0,.11-.03.25-.16.34h0c-1.76,1-3.92,1.58-6.36,1.58h0c-4.54,0-7.3-2.6-7.3-6.97h0Zm.36-5.6v5.6c.02,4.2,2.54,6.59,6.95,6.61h0c2.38,0,4.49-.57,6.18-1.53h0s0,0,0-.04h0c.02-.22-.3-.84-.54-1.08h0c-.04-.05-.07-.08-.09-.09h0c-1.33.71-2.96,1.43-5.62,1.43h0c-3.57,0-5.4-2.11-5.4-5.44h0v-1.94h11.88v-3.15c-.02-4.43-2.71-6.97-6.78-6.98h0c-3.75,0-6.57,2.55-6.58,6.6h0Zm1.65,3.88v-.18.18h0Zm-.18-1.49v-2.28c0-3.61,2.34-5.47,5.1-5.48h0c2.86,0,5.3,1.86,5.3,5.58h0v2.18h-10.4Zm.36-2.28v1.92h9.68v-1.82c0-3.54-2.23-5.2-4.94-5.21h0c-2.6.01-4.73,1.66-4.74,5.11h0Z"/>
    </g>
    <g>
      <path class="cls-2" d="m201.81,207.49c-2.51,0-3.5-1.49-3.5-3.49v-21.72c0-.2.58-.2.92-.2s.92,0,.92.2v21.65c0,1.42.64,2,2.13,2h.91c.24,0,.31.07.31.75,0,.75-.07.81-.31.81h-1.39Z"/>
      <path class="cls-2" d="m203.2,207.67h-1.39v-.36h1.39c.08,0,.05.02.08-.02h0c.03-.05.05-.25.05-.61h0c0-.33-.02-.51-.04-.55h0s-.02-.01-.02-.01h0s-.02,0-.06,0h-.91c-1.54,0-2.32-.69-2.32-2.18h0v-21.61s-.09-.03-.17-.04h0c-.17-.02-.4-.03-.57-.03h0c-.24,0-.63.01-.74.07h0v21.68c.02,1.94.89,3.3,3.32,3.31h0v.36c-2.59,0-3.67-1.62-3.67-3.67h0v-21.72c.05-.31.3-.32.49-.36h0c.2-.03.43-.03.6-.03h0c.17,0,.4,0,.61.03h0c.18.04.43.05.48.36h0v21.65c.04,1.36.51,1.79,1.96,1.82h.91c.12-.01.33.04.41.22h0c.06.17.07.36.07.71h0c0,.38,0,.59-.07.76h0c-.06.17-.25.24-.37.24h0s-.02,0-.04,0h0Zm-4.71-25.35h0s0,0,0,0h0Z"/>
    </g>
    <g>
      <path class="cls-2" d="m206.84,199.22v1.76c0,3.26,1.73,5.26,5.23,5.26,2.64,0,4.24-.72,5.57-1.43.27-.14,1.12,1.32.78,1.53-1.73.98-3.87,1.56-6.27,1.56-4.48,0-7.13-2.51-7.13-6.79v-5.6c0-4.14,2.92-6.79,6.75-6.79,4.14,0,6.96,2.65,6.96,7.16v3.33h-11.88Zm10.04-3.5c0-3.63-2.34-5.39-5.12-5.39s-4.92,1.76-4.92,5.29v2.1h10.04v-2Z"/>
      <path class="cls-2" d="m204.82,201.11v-5.6c0-4.23,3.02-6.96,6.93-6.96h0c4.22,0,7.13,2.75,7.14,7.34h0v3.5h-11.88v1.59c.02,3.19,1.63,5.06,5.05,5.08h0c2.61,0,4.16-.7,5.47-1.41h0s.08-.03.12-.03h0c.51.11.93.98,1,1.53h0c0,.11-.04.25-.17.34h0c-1.75,1-3.92,1.58-6.36,1.58h0c-4.55,0-7.3-2.6-7.31-6.97h0Zm.36-5.6v5.6c.02,4.19,2.54,6.59,6.95,6.61h0c2.37,0,4.48-.57,6.17-1.53h0s0,0,0-.04h0c.02-.22-.29-.84-.53-1.07h0c-.05-.05-.08-.08-.09-.09h0c-1.33.71-2.96,1.43-5.61,1.43h0c-3.57,0-5.4-2.12-5.4-5.44h0v-1.94h11.87v-3.15c-.02-4.43-2.71-6.97-6.78-6.98h0c-3.74.01-6.57,2.56-6.58,6.61h0Zm1.66,3.88v-.18.18h0Zm-.18-1.49v-2.28c0-3.61,2.33-5.47,5.09-5.48h0c2.86,0,5.29,1.86,5.3,5.58h0v2.18h-10.4Zm.36-2.28v1.92s9.68,0,9.68,0v-1.82c-.02-3.55-2.24-5.2-4.95-5.22h0c-2.6.01-4.72,1.67-4.74,5.12h0Z"/>
    </g>
    <g>
      <path class="cls-2" d="m234.33,207.63c-.34,0-.91,0-.91-.2v-12.45c0-3.02-1.33-4.41-3.54-4.41-2.34,0-4.51,2-5.84,3.94v12.93c0,.2-.57.2-.91.2s-.92,0-.92-.2v-18.25c0-.2.58-.2.92-.2s.88,0,.88.2v3.29c1.46-2.07,3.7-3.73,6.41-3.73,2.95,0,4.82,2.21,4.82,5.43v13.27c0,.2-.58.2-.92.2Z"/>
      <path class="cls-2" d="m233.72,207.78c-.19-.04-.44-.05-.49-.35h0v-12.46c-.02-2.97-1.23-4.21-3.35-4.23h0c-2.22,0-4.35,1.91-5.65,3.81h0v12.88c-.05.31-.31.32-.49.35h0c-.21.03-.44.03-.61.03h0c-.17,0-.4,0-.6-.03h0c-.19-.04-.44-.05-.49-.35h0v-18.26c.05-.31.3-.32.49-.36h0c.2-.03.43-.02.6-.02h0c.17,0,.4,0,.6.02h0c.17.03.43.05.47.36h0v2.75c1.48-1.89,3.64-3.37,6.23-3.37h0c3.06,0,4.99,2.32,5,5.61h0v13.27c-.05.31-.31.32-.49.35h0c-.21.03-.44.03-.6.03h0v-.36c.23,0,.63-.01.73-.07h0v-13.23c0-3.16-1.78-5.24-4.64-5.25h0c-2.64,0-4.83,1.62-6.26,3.66h0l-.33.46v-3.82s-.09-.03-.16-.04h0c-.15-.02-.37-.02-.54-.02h0c-.24,0-.64,0-.74.07h0v18.17s.1.03.18.04h0c.17.02.4.02.56.02h0c.25,0,.62-.01.74-.07h0v-12.94l.03-.05c1.34-1.96,3.54-4.01,5.99-4.02h0c2.3,0,3.71,1.53,3.71,4.59h0v12.41s.09.03.17.04h0c.17.02.4.02.57.02h0v.36c-.18,0-.41,0-.61-.03h0Zm1.35-.39h0s0,0,0,0h0Z"/>
    </g>
    <g>
      <path class="cls-2" d="m238.47,201.28v-5.94c0-4.28,2.58-6.62,7.06-6.62s7.13,2.34,7.13,6.62v5.94c0,4.24-2.61,6.62-7.13,6.62s-7.06-2.38-7.06-6.62Zm7.06-10.89c-3.26,0-5.23,1.39-5.23,5.26v5.33c0,3.84,1.97,5.3,5.23,5.3s5.29-1.39,5.29-5.3v-5.33c0-3.83-2-5.26-5.29-5.26Z"/>
      <path class="cls-2" d="m238.29,201.28v-5.94c0-4.36,2.7-6.79,7.23-6.8h0c4.57,0,7.3,2.44,7.31,6.8h0v5.94c0,4.33-2.74,6.79-7.31,6.8h0c-4.54,0-7.23-2.48-7.23-6.8h0Zm.36,0c.02,4.16,2.47,6.42,6.88,6.44h0c4.45-.02,6.93-2.28,6.95-6.44h0v-5.94c-.02-4.19-2.5-6.42-6.95-6.44h0c-4.41.02-6.86,2.25-6.88,6.44h0v5.94h0Zm1.47-.3v-5.33c0-3.94,2.1-5.44,5.4-5.44h0v.36c-3.2.03-5.02,1.28-5.04,5.08h0v5.33c.02,3.76,1.84,5.08,5.04,5.12h0c3.24-.03,5.09-1.29,5.12-5.12h0v-5.33c-.03-3.76-1.88-5.05-5.12-5.08h0v-.36c3.34,0,5.47,1.53,5.47,5.44h0v5.33c0,3.98-2.13,5.47-5.47,5.47h0c-3.31,0-5.4-1.57-5.4-5.47h0Z"/>
    </g>
    <g>
      <path class="cls-2" d="m262.56,190.94c-1.5,0-2.74,1.36-4.61,4.21v12.28c0,.2-.58.2-.92.2s-.88,0-.88-.2v-18.25c0-.2.54-.2.88-.2s.85,0,.85.2v4.11c2.04-3.09,3.12-4.24,5.16-4.24h.68c.2,0,.2.65.2.99s-.07.92-.27.92h-1.09Z"/>
      <path class="cls-2" d="m256.44,207.78c-.17-.04-.43-.05-.47-.36h0v-18.25c.04-.3.29-.32.47-.36h0c.2-.03.43-.02.6-.02h0c.17,0,.38,0,.57.03h0c.17.03.42.06.45.35h0v3.51c1.83-2.72,2.97-3.83,4.98-3.83h.67c.33.06.32.33.36.53h0c.02.22.02.47.02.64h0c-.05.35.06.95-.45,1.1h-1.09v-.36h1.08-.02s.04-.11.06-.19h0c.04-.17.05-.39.05-.54h0c.02-.25-.03-.71-.07-.81h-.64c-1.94,0-2.96,1.07-5.01,4.17h0l-.33.49v-4.66s-.08-.03-.15-.04h0c-.15-.02-.35-.02-.52-.02h0c-.25,0-.61,0-.71.06h0v18.18s.09.03.16.04h0c.16.02.37.03.54.03h0c.24,0,.62-.01.74-.06h0v-12.3l.02-.04c1.88-2.85,3.15-4.28,4.77-4.29h0v.36c-1.36-.02-2.59,1.26-4.43,4.07h0v12.24c-.05.31-.3.32-.49.36h0c-.2.03-.43.03-.6.03h0c-.17,0-.4,0-.6-.03h0Zm-.12-18.57h0s0,0,0,0h0Z"/>
    </g>
  </g>
  <g>
    <g>
      <path class="cls-2" d="m285.89,201.19v-5.81c0-4.18,2.52-6.48,6.64-6.48,2.4,0,4.06.8,5.51,1.86.44.33-.43,1.69-.76,1.43-.43-.3-2.29-1.69-4.61-1.69-3.19,0-4.98,1.69-4.98,5.18v5.21c0,3.45,1.79,5.18,4.98,5.18,2.29,0,3.81-1.03,4.74-1.73.33-.27,1.13,1,.83,1.26-1.09,1.03-3.32,2.06-5.71,2.06-4.12,0-6.64-2.32-6.64-6.48Z"/>
      <path class="cls-2" d="m285.71,201.19v-5.81c0-4.27,2.64-6.65,6.82-6.66h0c2.44,0,4.14.82,5.63,1.9h0c.13.11.18.28.18.43h0c-.05.56-.45,1.28-.96,1.35h0c-.07,0-.15-.02-.19-.06h0c-.43-.3-2.26-1.66-4.51-1.66h0c-3.12.03-4.78,1.58-4.81,5h0v5.22c.02,3.39,1.68,4.97,4.81,5h0c2.23,0,3.71-1,4.63-1.68h0c.06-.05.14-.08.22-.08h0c.53.08.92.8.97,1.3h0c0,.1-.03.22-.12.31h0c-1.15,1.06-3.4,2.1-5.84,2.11h0c-4.19,0-6.81-2.43-6.82-6.66h0Zm.36,0c.02,4.07,2.41,6.28,6.46,6.3h0c2.33,0,4.54-1.01,5.58-2h0s.02,0,.02-.05h0c0-.13-.11-.4-.26-.6h0c-.12-.2-.3-.33-.35-.34h0c-.93.71-2.5,1.77-4.85,1.76h0c-3.26,0-5.16-1.84-5.16-5.36h0v-5.22c0-3.55,1.9-5.35,5.16-5.36h0c2.37,0,4.25,1.4,4.71,1.72h0s.22-.13.36-.34h0c.14-.21.26-.49.25-.66h0c0-.09-.02-.13-.04-.14h0c-1.45-1.05-3.06-1.82-5.41-1.83h0c-4.05.02-6.44,2.19-6.46,6.3h0v5.81h0Z"/>
    </g>
    <g>
      <path class="cls-2" d="m299.81,201.19v-5.81c0-4.18,2.52-6.48,6.9-6.48s6.98,2.29,6.98,6.48v5.81c0,4.15-2.56,6.48-6.98,6.48s-6.9-2.32-6.9-6.48Zm6.9-10.66c-3.19,0-5.11,1.36-5.11,5.15v5.21c0,3.75,1.92,5.18,5.11,5.18s5.19-1.36,5.19-5.18v-5.21c0-3.75-1.96-5.15-5.19-5.15Z"/>
      <path class="cls-2" d="m299.62,201.19v-5.81c0-4.27,2.64-6.65,7.09-6.66h0c4.48,0,7.15,2.39,7.16,6.66h0v5.81c0,4.24-2.67,6.65-7.16,6.66h0c-4.45,0-7.08-2.42-7.09-6.66h0Zm.36,0c.02,4.07,2.41,6.28,6.73,6.3h0c4.36-.02,6.78-2.23,6.79-6.3h0v-5.81c-.02-4.1-2.43-6.28-6.79-6.3h0c-4.32.02-6.71,2.19-6.73,6.3h0v5.81h0Zm1.43-.29v-5.21c0-3.86,2.06-5.32,5.3-5.33h0v.36c-3.14.03-4.91,1.25-4.93,4.97h0v5.21c.02,3.68,1.8,4.97,4.93,5h0c3.17-.03,4.97-1.25,5-5h0v-5.21c-.03-3.68-1.83-4.94-5-4.97h0v-.36c3.27,0,5.36,1.5,5.36,5.33h0v5.21c0,3.89-2.09,5.35-5.36,5.36h0c-3.24,0-5.29-1.54-5.3-5.36h0Z"/>
    </g>
    <g>
      <path class="cls-2" d="m328.96,207.41c-.33,0-.89,0-.89-.2v-12.19c0-2.96-1.3-4.32-3.46-4.32-2.29,0-4.42,1.96-5.71,3.85v12.65c0,.2-.57.2-.9.2s-.89,0-.89-.2v-17.87c0-.2.57-.2.89-.2s.87,0,.87.2v3.22c1.43-2.03,3.62-3.65,6.27-3.65,2.89,0,4.72,2.16,4.72,5.31v12.98c0,.2-.57.2-.9.2Z"/>
      <path class="cls-2" d="m328.37,207.56c-.18-.04-.43-.05-.48-.36h0v-12.19c-.02-2.91-1.21-4.11-3.27-4.14h0c-2.17,0-4.26,1.87-5.54,3.73h0v12.6c-.05.31-.3.32-.48.36h0c-.19.02-.43.02-.6.02h0c-.16,0-.4,0-.6-.02h0c-.18-.04-.43-.05-.47-.36h0v-17.87c.05-.3.29-.32.47-.35h0c.2-.03.43-.03.6-.03h0c.17,0,.39,0,.59.03h0c.16.03.42.05.46.35h0v2.68c1.45-1.85,3.56-3.29,6.09-3.29h0c2.99,0,4.89,2.27,4.9,5.5h0v12.98c-.05.31-.3.32-.48.36h0c-.2.02-.43.02-.6.02h0v-.36c.24,0,.62-.01.71-.06h0v-12.94c0-3.09-1.74-5.12-4.54-5.13h0c-2.57,0-4.72,1.58-6.13,3.57h0l-.33.46v-3.74s-.08-.03-.15-.04h0c-.16-.02-.37-.02-.53-.02h0c-.23,0-.61,0-.71.06h0v17.78s.09.03.17.04h0c.15.02.38.03.54.03h0c.24,0,.61-.01.72-.06h0v-12.67l.03-.05c1.32-1.91,3.46-3.92,5.86-3.93h0c2.25,0,3.63,1.49,3.63,4.49h0v12.15s.09.03.17.04h0c.16.02.39.03.55.03h0v.36c-.17,0-.4,0-.6-.02h0Zm1.33-.4s0,0,0,0h0Zm-10.96,0h0s0,0,0,0h0Zm-1.45-17.78h0s0,0,0,0h0Z"/>
    </g>
    <g>
      <path class="cls-2" d="m345.64,207.41c-.33,0-.9,0-.9-.2v-12.19c0-2.96-1.29-4.32-3.46-4.32-2.29,0-4.42,1.96-5.71,3.85v12.65c0,.2-.57.2-.9.2s-.9,0-.9-.2v-17.87c0-.2.57-.2.9-.2s.86,0,.86.2v3.22c1.43-2.03,3.62-3.65,6.28-3.65,2.89,0,4.71,2.16,4.71,5.31v12.98c0,.2-.57.2-.89.2Z"/>
      <path class="cls-2" d="m345.04,207.56c-.19-.04-.43-.05-.48-.36h0v-12.18c-.02-2.91-1.21-4.12-3.28-4.14h0c-2.16,0-4.25,1.87-5.53,3.73h0v12.6c-.05.31-.3.32-.48.36h0c-.2.02-.43.02-.6.02h0c-.16,0-.4,0-.6-.02h0c-.17-.04-.43-.05-.47-.36h0v-17.86c.05-.31.3-.31.47-.36h0c.21-.02.44-.02.6-.02h0c.17,0,.39,0,.58.03h0c.17.03.42.05.47.35h0v2.68c1.45-1.85,3.56-3.29,6.09-3.29h0c2.99,0,4.89,2.27,4.89,5.5h0v12.98c-.05.31-.3.32-.48.36h0c-.2.02-.43.02-.6.02h0v-.36c.24,0,.61-.01.72-.06h0v-12.94c-.02-3.09-1.74-5.13-4.54-5.14h0c-2.58,0-4.73,1.59-6.13,3.58h0l-.33.46v-3.74s-.08-.03-.15-.04h0c-.15-.02-.36-.03-.53-.03h0c-.24,0-.62.01-.72.07h0v17.78s.09.03.17.04h0c.17.02.39.03.55.03h0c.23,0,.61-.01.71-.06h0v-12.67l.03-.04c1.32-1.92,3.47-3.92,5.86-3.93h0c2.26,0,3.63,1.5,3.64,4.5h0v12.14s.09.03.17.04h0c.16.02.39.03.54.03h0v.36c-.16,0-.4,0-.59-.02h0Zm1.32-.4h0s0,0,0,0h0Zm-10.96,0h0s0,0,0,0h0Zm-1.45-17.78h0s0,0,0,0h0Z"/>
    </g>
    <g>
      <path class="cls-2" d="m351.48,199.17v1.73c0,3.19,1.7,5.15,5.12,5.15,2.59,0,4.15-.7,5.44-1.39.27-.13,1.1,1.29.77,1.5-1.7.96-3.78,1.53-6.14,1.53-4.39,0-6.98-2.46-6.98-6.64v-5.48c0-4.05,2.86-6.64,6.61-6.64,4.05,0,6.81,2.59,6.81,7.01v3.25h-11.63Zm9.83-3.42c0-3.55-2.29-5.28-5.02-5.28s-4.82,1.73-4.82,5.18v2.06h9.83v-1.96Z"/>
      <path class="cls-2" d="m349.51,201.03v-5.48c0-4.15,2.95-6.82,6.78-6.82h0c4.13,0,6.98,2.69,6.98,7.19h0v3.43h-11.62v1.55c.02,3.12,1.6,4.95,4.94,4.96h0c2.56,0,4.07-.68,5.36-1.37h0s.08-.03.12-.03h0c.5.1.92.96.98,1.5h0c0,.1-.02.25-.16.34h0c-1.72.98-3.85,1.55-6.23,1.55h0c-4.46,0-7.15-2.56-7.16-6.82h0Zm.36-5.48v5.48c.02,4.11,2.48,6.44,6.8,6.47h0c2.33,0,4.39-.56,6.04-1.5h0s0,0,0-.03h0c.02-.21-.29-.82-.52-1.05h0s-.07-.07-.09-.09h0c-1.29.7-2.89,1.4-5.5,1.4h0c-3.5,0-5.29-2.08-5.3-5.33h0v-1.91h11.62v-3.07c0-4.34-2.66-6.81-6.63-6.83h0c-3.67,0-6.42,2.5-6.43,6.47h0Zm1.61,3.8v-.18.18h0Zm-.18-1.46v-2.24c0-3.54,2.3-5.35,4.99-5.36h0c2.8,0,5.19,1.82,5.19,5.46h0v2.14h-10.19Zm.36-2.24v1.88h9.47v-1.78c-.02-3.47-2.19-5.09-4.84-5.1h0c-2.54.02-4.61,1.63-4.64,5h0Z"/>
    </g>
    <g>
      <path class="cls-2" d="m371.84,198.17l5.08,9.03c.1.2-.6.2-.92.2s-.8,0-.93-.2l-4.26-7.74-4.18,7.74c-.1.2-.6.2-.93.2s-1.06,0-.93-.2l5.12-9.07-5.25-8.8c-.1-.2.66-.2.99-.2s.86,0,.97.2l4.31,7.4,4.02-7.4c.1-.17.57-.2.9-.2s1.03,0,.93.2l-4.92,8.83Z"/>
      <path class="cls-2" d="m374.9,207.29l-4.09-7.45-4.02,7.45c-.25.37-.75.27-1.09.3h0c-.15,0-.39,0-.6-.02h0c-.19-.06-.43.03-.51-.32h0s.02-.11.04-.13h0l5.06-8.97-5.2-8.72s-.03-.06-.03-.12h0c.09-.35.33-.27.54-.33h0c.23-.02.49-.02.64-.02h0c.34.03.87-.07,1.12.29h0l4.16,7.13,3.87-7.13c.24-.31.7-.27,1.05-.29h0c.15,0,.39,0,.6.02h0c.19.05.43-.01.51.32h0c0,.05,0,.07-.03.12h0l-4.86,8.75,5.03,8.96s.03.08.02.11h0c-.08.34-.33.27-.51.32h0c-.21.02-.45.02-.6.02h0c-.34-.02-.81.05-1.09-.29h0Zm-9.78-.09c.19.02.42.02.57.02h0c.33.02.77-.07.77-.1h0l4.34-8.03,4.4,8.01c0,.07.46.14.79.12h0c.19.01.55-.02.7-.05h0l-5.02-8.92-.05-.09,4.91-8.81s-.09-.02-.15-.02h0c-.18-.02-.41-.02-.57-.02h0c-.32-.02-.74.08-.74.11h0l-4.18,7.69-4.48-7.69s-.47-.13-.8-.1h0c-.19,0-.6.01-.77.04h0l5.23,8.77-5.11,9.05s.09.02.15.02h0Z"/>
    </g>
    <g>
      <path class="cls-2" d="m379.38,186.12v-3.52c0-.2.57-.2.89-.2s.9,0,.9.2v3.52c0,.2-.57.2-.9.2s-.89,0-.89-.2Zm0,21.09v-17.87c0-.2.57-.2.89-.2s.9,0,.9.2v17.87c0,.2-.57.2-.9.2s-.89,0-.89-.2Z"/>
      <path class="cls-2" d="m379.68,207.56c-.18-.04-.43-.05-.48-.36h0v-17.87c.05-.31.3-.32.48-.35h0c.2-.03.43-.03.6-.03h0c.17,0,.4,0,.6.03h0c.18.04.43.05.48.35h0v17.87c-.05.31-.3.32-.48.36h0c-.2.02-.43.02-.6.02h0c-.16,0-.4,0-.6-.02h0Zm.05-.36c.17.02.39.02.55.02h0c.23,0,.61-.01.72-.06h0v-17.78s-.1-.03-.17-.04h0c-.17-.02-.38-.02-.55-.02h0c-.23,0-.6,0-.71.06h0v17.78s.09.03.16.04h0Zm-.05-20.74c-.18-.03-.43-.04-.48-.35h0v-3.52c.05-.31.3-.32.48-.35h0c.2-.03.43-.03.6-.03h0c.17,0,.4,0,.6.03h0c.18.03.43.04.48.35h0v3.52c-.05.31-.3.32-.48.35h0c-.2.03-.43.03-.6.03h0c-.16,0-.4,0-.6-.03h0Zm.05-.35c.17.02.39.02.55.02h0c.23,0,.61,0,.72-.06h0v-3.44s-.1-.03-.17-.03h0c-.17-.02-.38-.02-.55-.02h0c-.23,0-.6,0-.71.06h0v3.44s.09.03.16.04h0Z"/>
    </g>
    <g>
      <path class="cls-2" d="m384.59,201.19v-5.81c0-4.18,2.52-6.48,6.91-6.48s6.97,2.29,6.97,6.48v5.81c0,4.15-2.55,6.48-6.97,6.48s-6.91-2.32-6.91-6.48Zm6.91-10.66c-3.19,0-5.12,1.36-5.12,5.15v5.21c0,3.75,1.93,5.18,5.12,5.18s5.18-1.36,5.18-5.18v-5.21c0-3.75-1.95-5.15-5.18-5.15Z"/>
      <path class="cls-2" d="m384.41,201.19v-5.81c0-4.26,2.64-6.65,7.09-6.66h0c4.47,0,7.14,2.39,7.15,6.66h0v5.81c0,4.24-2.67,6.65-7.15,6.65h0c-4.45,0-7.09-2.42-7.09-6.65h0Zm.36,0c.02,4.07,2.41,6.27,6.73,6.3h0c4.35-.03,6.77-2.23,6.79-6.3h0v-5.81c-.02-4.1-2.44-6.28-6.79-6.3h0c-4.32.02-6.71,2.2-6.73,6.3h0v5.81h0Zm1.44-.3v-5.22c0-3.86,2.05-5.32,5.29-5.33h0v.36c-3.14.03-4.91,1.25-4.94,4.97h0v5.22c.03,3.68,1.8,4.97,4.94,5h0c3.17-.03,4.97-1.25,5-5h0v-5.22c-.03-3.68-1.83-4.94-5-4.97h0v-.36c3.26,0,5.36,1.5,5.37,5.33h0v5.22c0,3.89-2.1,5.35-5.37,5.36h0c-3.24,0-5.29-1.54-5.29-5.36h0Z"/>
    </g>
    <g>
      <path class="cls-2" d="m413.75,207.41c-.33,0-.9,0-.9-.2v-12.19c0-2.96-1.29-4.32-3.45-4.32-2.3,0-4.42,1.96-5.71,3.85v12.65c0,.2-.57.2-.89.2s-.9,0-.9-.2v-17.87c0-.2.57-.2.9-.2s.86,0,.86.2v3.22c1.43-2.03,3.62-3.65,6.27-3.65,2.89,0,4.71,2.16,4.71,5.31v12.98c0,.2-.56.2-.89.2Z"/>
      <path class="cls-2" d="m413.15,207.56c-.17-.04-.43-.04-.47-.35h0v-12.19c-.02-2.91-1.21-4.11-3.27-4.13h0c-2.17,0-4.26,1.87-5.54,3.73h0v12.6c-.05.31-.3.32-.47.35h0c-.21.03-.43.03-.6.03h0c-.17,0-.4,0-.6-.03h0c-.18-.04-.43-.04-.47-.35h0v-17.87c.05-.31.29-.32.47-.35h0c.2-.03.43-.03.6-.03h0c.16,0,.38,0,.57.03h0c.17.03.42.05.47.35h0v2.68c1.44-1.85,3.56-3.29,6.1-3.29h0c2.98,0,4.88,2.27,4.89,5.49h0v12.98c-.05.31-.3.32-.48.35h0c-.2.03-.43.03-.6.03h0v-.36c.23,0,.6-.01.71-.06h0v-12.94c-.02-3.09-1.74-5.12-4.53-5.13h0c-2.58,0-4.73,1.58-6.13,3.57h0l-.33.46v-3.74s-.08-.03-.15-.04h0c-.15-.02-.37-.02-.53-.02h0c-.24,0-.61,0-.72.06h0v17.78s.09.03.16.04h0c.17.02.39.03.56.03h0c.23,0,.61-.01.71-.07h0v-12.67l.02-.05c1.32-1.91,3.47-3.92,5.87-3.93h0c2.25,0,3.63,1.5,3.63,4.5h0v12.15s.09.03.17.04h0c.16.02.39.03.55.03h0v.36c-.17,0-.4,0-.6-.03h0Zm-9.63-.39s0,0,0,0h0Z"/>
    </g>
  </g>
</svg>