<?xml version="1.0" encoding="UTF-8"?>
<svg id="logos" xmlns="http://www.w3.org/2000/svg" viewBox="0 0 500 400">
  <defs>
    <style>
      .cls-1 {
        fill: blue;
        stroke-width: 0px;
      }
    </style>
  </defs>
  <polygon class="cls-1" points="84.17 189.49 90.14 189.49 80.15 207.96 70.03 189.49 77.29 189.49 77.29 184.89 47.28 184.89 47.28 189.49 54.15 189.49 68.1 214.84 84.26 214.86 97.97 189.49 104.85 189.49 104.85 184.89 84.17 184.89 84.17 189.49"/>
  <path class="cls-1" d="m259.1,210.18h-6.39v-20.7h6.89v-4.58h-27.67s0,4.58,0,4.58h6.96v20.7s-6.97,0-6.97,0v4.64h41.53v-13.86h-4.56c0,5.31-3.88,9.22-9.8,9.22Z"/>
  <path class="cls-1" d="m164.85,184.26c-13.89,0-21.27,6.93-21.27,15.63s7.11,15.85,21.35,15.85,21.27-7.03,21.27-15.85-7.46-15.63-21.35-15.63Zm7.41,15.7c-.1,5.44-2.34,11.11-7.57,11.01-5.07-.09-7.3-5.7-7.21-11.27.1-5.77,2.86-10.8,7.61-10.72,4.75.08,7.26,5.21,7.16,10.98Z"/>
  <polygon class="cls-1" points="350.68 189.49 356.66 189.49 346.67 207.96 336.55 189.49 343.81 189.49 343.8 184.89 313.8 184.89 313.79 189.49 320.66 189.49 334.61 214.84 350.77 214.86 364.49 189.49 371.36 189.49 371.36 184.89 350.68 184.89 350.68 189.49"/>
  <path class="cls-1" d="m431.37,184.26c-13.89,0-21.27,6.93-21.27,15.63s7.1,15.85,21.35,15.85,21.27-7.03,21.27-15.85-7.46-15.63-21.35-15.63Zm7.41,15.7c-.1,5.44-2.34,11.11-7.57,11.01-5.07-.09-7.3-5.7-7.21-11.27.1-5.77,2.86-10.8,7.61-10.72,4.75.08,7.26,5.21,7.16,10.98Z"/>
</svg>