<?xml version="1.0" encoding="utf-8"?>
<!-- Generator: Adobe Illustrator 23.0.1, SVG Export Plug-In . SVG Version: 6.00 Build 0)  -->
<svg version="1.1" id="Layer_1" xmlns="http://www.w3.org/2000/svg" xmlns:xlink="http://www.w3.org/1999/xlink" x="0px" y="0px"
	 viewBox="0 0 727.1 73.5" style="enable-background:new 0 0 727.1 73.5;" xml:space="preserve">
<g>
	<g>
		<path d="M34.2,62.1c-3.2,2.6-5.3,4.9-9.4,5.6c-4.6,0.8-6.9,1.2-11.6,2C11.1,57.1,10,50.8,7.8,38.3c-1.2-1.4-1.8-2-3-3.4
			c7.2-1.3,10.8-1.9,18-3.1c5.3-0.9,10.4,1.8,11.2,7.2c0.5,3.2-0.8,5.6-3.3,7.5c0,0,0,0.1,0,0.1c3.5,0.6,6.3,3.2,6.9,6.7
			C38.2,56.8,36.8,59.9,34.2,62.1z M19,39.7c-0.3,0-0.4,0.1-0.7,0.1c0.4,2.6,0.7,3.9,1.1,6.6c1.9-0.3,2.9-0.5,4.8-0.8
			c0.1-0.7,0.2-1.4,0.1-2.2C23.9,40.9,21.6,39.2,19,39.7z M21.9,53c-0.5,0.1-0.8,0.1-1.3,0.2c0.5,3.1,0.8,4.6,1.3,7.7
			c2.3-0.4,3.4-0.6,5.7-1c0,0,0,0,0,0c0.4-0.9,0.4-1.8,0.2-2.7C27.4,54.6,24.8,52.5,21.9,53z"/>
		<path d="M69.8,60.6c-1.6-2.6-2.4-3.9-4.1-6.5c-5.4,0.8-8.1,1.2-13.5,2c-0.4,1.3-0.5,2-0.9,3.3c0.9,1.4,1.3,2.1,2.1,3.6
			c-4.6,0.7-6.9,1.1-11.5,1.8c3.6-13.4,5.4-20.2,9.2-33.6c-0.9-1.4-1.4-2.1-2.4-3.6c4.3-0.7,6.5-1,10.9-1.6
			c8.5,13.2,12.6,19.8,20.9,33C76.2,59.7,74.1,60,69.8,60.6z M56.7,39.9c-1,3.5-1.5,5.3-2.4,8.8c2.9-0.4,4.4-0.7,7.3-1.1
			C59.6,44.5,58.6,43,56.7,39.9z"/>
		<path d="M104.7,55.9c-4.3-5.3-6.5-7.9-10.9-13.2c0,0-0.1,0-0.1,0c0.8,5.7,1.1,8.6,1.9,14.3c-3.9,0.5-5.9,0.8-9.9,1.3
			c-1.7-12.6-2.6-18.9-4.3-31.5c-1.1-1.4-1.7-2.1-2.9-3.5c4.9-0.7,7.4-1,12.4-1.7c0.7,5.4,1.1,8,1.8,13.4c2.2-4.2,3.3-6.3,5.6-10.5
			c-0.8-1.5-1.2-2.2-2.1-3.6c6.1-0.8,9.2-1.2,15.3-1.9c-4.2,6.8-6.2,10.2-10.3,17.1c6.4,7.2,9.6,10.9,15.9,18.1
			C112.2,54.9,109.7,55.2,104.7,55.9z"/>
		<path d="M146.2,51c-8.6,0.9-13,1.4-21.6,2.4c-1.5-12.6-2.2-18.9-3.7-31.6c-1.1-1.4-1.7-2.1-2.8-3.6c10.8-1.3,16.2-1.9,27.1-3
			c-0.8,3-1.2,4.5-2,7.5c-4.7,0.5-7.1,0.8-11.9,1.3c0.3,2.5,0.4,3.8,0.7,6.3c5.8-0.7,8.8-1,14.6-1.6c-0.8,3-1.2,4.5-2,7.5
			c-4.7,0.5-7.1,0.8-11.8,1.3c0.3,3,0.5,4.5,0.8,7.5c5.8-0.7,8.7-1,14.5-1.6C147.3,46.5,146.9,48,146.2,51z"/>
		<path d="M182.7,42.6c-1.4,1-2.8,2-4.2,2.9c-2.5,1.8-5.5,2.8-8.5,3.1c-4.4,0.4-6.6,0.6-11,1.1c-1.3-12.6-1.9-19-3.2-31.6
			c-1.1-1.4-1.6-2.2-2.7-3.6c7.2-0.7,10.8-1.1,17.9-1.7c9.5-0.9,18,5.5,18.8,15C190.3,33.6,187.6,39.2,182.7,42.6z M166.7,20.4
			c-0.2,0-0.3,0-0.5,0c0.8,8.4,1.2,12.6,2,21.1c2.1-0.2,4.2-0.4,6.3-0.6c0.9-0.1,1.6-0.2,2.3-0.8c2.6-2,3.3-6,3-9.1
			C179.2,24.4,173.5,19.8,166.7,20.4z"/>
		<path d="M246.1,38.7c-1.4,0.9-2.9,1.9-4.3,2.8c-2.7,1.8-5.7,2.7-8.9,2.9c-9.8,0.6-18.1-6.2-18.8-16c-0.4-6.2,2.4-11.9,7.6-15.5
			c1.4-0.9,2.8-1.9,4.3-2.8c2.7-1.8,5.8-2.8,9.1-3c10-0.6,18.3,6.4,18.9,16.2C254.2,29.5,251.3,35.2,246.1,38.7z M230.9,14.5
			c-0.4,0-0.8,0.1-1.2,0.1c-0.9,0.1-1.5,0.1-2.3,0.7c-2.8,2.1-3.6,6.6-3.3,9.8c0.5,6.8,5.6,12.3,12.7,11.8c0.5,0,1,0,1.5,0
			c0.8,0,1.4-0.2,2-0.7c2.8-2.1,3.6-6.5,3.4-9.8C243.3,19.6,238.2,14.1,230.9,14.5z"/>
		<path d="M284.9,41c-5.9-7.8-8.9-11.7-14.9-19.4c0.4,8,0.5,12,0.9,20c-3.1,0.1-4.7,0.2-7.8,0.4c-0.6-12.4-0.9-18.7-1.5-31.1
			c-1.4-1.7-2-2.6-3.4-4.3c4.9-0.2,7.4-0.4,12.3-0.6c6,7.8,9,11.6,14.9,19.4c-0.2-6.5-0.4-9.7-0.6-16.2c0-0.1-2.2-3.3-2.5-3.7
			c4.1-0.2,6.2-0.2,10.3-0.4c0.5,14.3,0.7,21.4,1.2,35.6C290.3,40.8,288.5,40.8,284.9,41z"/>
		<path d="M345.9,39.6c-1.3-2.8-1.9-4.2-3.2-7c-5.4,0.1-8.2,0.1-13.6,0.2c-0.5,1.3-0.8,1.9-1.3,3.2c0.7,1.5,1,2.3,1.6,3.8
			c-4.6,0.1-7,0.1-11.6,0.2c5.4-12.8,8.1-19.2,13.6-32c-0.7-1.5-1.1-2.3-1.9-3.8c4.4-0.1,6.6-0.1,11-0.1
			c6.6,14.2,9.8,21.3,16.2,35.5C352.4,39.5,350.2,39.5,345.9,39.6z M335.7,17.3c-1.4,3.3-2.2,5-3.6,8.4c3,0,4.4-0.1,7.4-0.1
			C338,22.3,337.3,20.6,335.7,17.3z"/>
		<path d="M398.5,11.4c-2.7,0-4-0.1-6.6-0.1c-0.2,11.3-0.2,17-0.4,28.3c-4-0.1-6-0.1-10-0.1c0.1-11.3,0.1-17,0.2-28.3
			c-3.8,0-5.7,0-9.4-0.1c1.1-2.9,1.7-4.4,2.9-7.3c10.5,0.1,15.7,0.1,26.2,0.3C400.2,7.1,399.7,8.5,398.5,11.4z"/>
		<path d="M428.2,40.5c-3.2-5.3-4.8-7.9-8.1-13.2c0,0-0.1,0-0.1,0c-0.1,5.2-0.2,7.8-0.4,12.9c-4-0.1-6-0.2-9.9-0.2
			c0.3-12.7,0.4-19.1,0.7-31.8c-0.9-1.6-1.4-2.4-2.3-3.9c7.4,0.2,11,0.3,18.4,0.5c6,0.2,10.9,4.6,10.6,10.6
			c-0.1,3.7-2.2,6.8-5.4,8.6c-0.6,0.3-1.2,0.6-1.8,1c0,0,0,0,0,0c4.2,6.4,6.3,9.6,10.5,15.9C435.6,40.7,433.1,40.7,428.2,40.5z
			 M421.4,11.9c-0.4,0-0.6,0-0.9,0c-0.1,3.4-0.1,5.1-0.2,8.6c2.1,0.1,3.2,0.1,5.4,0.2c0.1,0,0.2,0,0.3,0c0.6-0.9,1-1.9,1-3
			C426.9,14.5,424.5,12,421.4,11.9z"/>
		<path d="M473,37.9c-5,2.6-8.5,4.7-14.4,4.5c-6.7-0.3-12-5.3-11.7-12.1c0.3-8.4,0.5-12.5,0.8-20.9c-0.9-1.6-1.3-2.4-2.2-4
			c5,0.2,7.5,0.3,12.4,0.5c-0.4,8.8-0.6,13.2-1,22c-0.2,3.7,2.6,7,6.4,7.2c0.9,0,1.9-0.1,2.8-0.2c0.5-9.9,0.7-14.8,1.2-24.7
			c-0.8-1.6-1.3-2.4-2.1-4c5,0.2,7.5,0.4,12.4,0.6c-0.6,11.7-1,17.6-1.6,29.3C475.2,36.9,474.1,37.4,473,37.9z"/>
		<path d="M508.7,44.6c-8.7-0.6-13-0.9-21.6-1.4c0.8-12.7,1.1-19,1.9-31.7c-0.8-1.6-1.3-2.4-2.1-4c10.9,0.6,16.3,1,27.2,1.8
			c-1.3,2.8-2,4.2-3.3,7c-4.8-0.3-7.1-0.5-11.9-0.8c-0.2,2.5-0.2,3.8-0.4,6.4c5.9,0.4,8.8,0.6,14.6,1c-1.3,2.8-2,4.2-3.3,7
			c-4.7-0.3-7.1-0.5-11.8-0.8c-0.2,3-0.3,4.5-0.5,7.5c5.8,0.4,8.7,0.6,14.5,1C510.7,40.4,510.1,41.8,508.7,44.6z"/>
		<path d="M558.3,45.4c-1.9,0.8-2.8,1.2-4.6,2.1c-1.9,0.9-4,1.2-6.1,1c-3.8-0.3-7.4-1.6-10.4-3.9c1.6-3.3,2.4-4.9,4-8.2
			c3.8,2.9,6.6,4.9,11.5,5.4c0.1,0,0.2,0,0.3,0c0.6-0.7,0.8-1.6,0.9-2.5c0.7-8-15.2-4.8-14.2-16.3c0.3-3.6,2.4-6.5,5.7-8
			c1.9-0.9,2.8-1.3,4.7-2.1c1.8-0.8,3.8-1.1,5.8-0.9c3.6,0.3,7,1.7,9.9,3.8c-1.7,3.2-2.5,4.9-4.1,8.1c-3.2-2.4-6.5-4.8-10.6-5.2
			c0,0-0.1,0-0.1,0c-0.4,0.7-0.6,1.4-0.6,2.1c-0.3,3.6,2.7,4.8,5.5,5.9c5.1,2.1,9.3,4.2,8.7,10.5C564,40.8,561.7,43.9,558.3,45.4z"
			/>
		<path d="M597.6,24.3c-2.6-0.3-4-0.4-6.6-0.7c-1.2,11.3-1.9,16.9-3.1,28.2c-4-0.4-6-0.7-9.9-1.1c1.2-11.3,1.8-16.9,3-28.2
			c-3.8-0.4-5.6-0.6-9.4-1c1.4-2.8,2.1-4.2,3.6-7c10.4,1.1,15.7,1.6,26.1,2.8C599.8,20.2,599.1,21.6,597.6,24.3z"/>
		<path d="M632.4,53c-1.6,0.6-3.2,1.3-4.7,1.9c-3,1.2-6.1,1.6-9.3,1.2c-9.8-1.2-16.6-9.5-15.5-19.3c0.7-6.2,4.6-11.3,10.4-13.8
			c1.6-0.6,3.1-1.3,4.7-2c3-1.3,6.2-1.6,9.5-1.2c10,1.3,16.8,9.7,15.5,19.5C642.1,45.5,638.2,50.6,632.4,53z M622,26.4
			c-0.4,0-0.8-0.1-1.2-0.2c-0.9-0.1-1.5-0.1-2.3,0.3c-3.2,1.5-4.7,5.8-5.1,9c-0.8,6.8,3.2,13.1,10.3,14c0.5,0.1,1,0.2,1.5,0.2
			c0.8,0.1,1.4,0.1,2.1-0.3c3.1-1.6,4.7-5.8,5.2-9C633.3,33.7,629.2,27.3,622,26.4z"/>
		<path d="M667.8,62.2c-2.6-5.6-3.9-8.4-6.5-14c0,0-0.1,0-0.1,0c-0.7,5.1-1.1,7.7-1.9,12.8c-3.9-0.6-5.9-0.9-9.9-1.4
			c1.8-12.6,2.7-18.9,4.4-31.5c-0.7-1.7-1.1-2.5-1.8-4.2c7.3,1,11,1.5,18.3,2.6c6,0.9,10.3,5.8,9.4,11.8c-0.6,3.7-3,6.5-6.4,7.9
			c-0.6,0.2-1.3,0.5-1.9,0.7c0,0,0,0,0,0c3.5,6.8,5.2,10.2,8.6,17.1C675.1,63.3,672.7,62.9,667.8,62.2z M664.3,32.9
			c-0.4-0.1-0.6-0.1-0.9-0.1c-0.5,3.4-0.7,5.1-1.2,8.5c2.1,0.3,3.2,0.5,5.3,0.8c0.1,0,0.2,0,0.3,0c0.7-0.8,1.2-1.8,1.3-2.8
			C669.6,36.2,667.5,33.4,664.3,32.9z"/>
		<path d="M705.7,53.9c-0.9,5.6-1.4,8.4-2.3,14c-3.9-0.7-5.9-1-9.8-1.6c0.9-5.6,1.4-8.4,2.3-14c-3.8-9.3-5.7-14-9.6-23.3
			c4.7,0.7,7.1,1.1,11.8,1.9c2.1,5.6,3.2,8.4,5.3,13.9c2.7-3.2,4-4.8,6.8-8c-0.4-1.6-0.6-2.5-1-4.1c5.3,0.9,7.9,1.3,13.2,2.3
			C715.6,42.5,712.3,46.3,705.7,53.9z"/>
	</g>
</g>
</svg>
