<svg id="Layer_1" data-name="Layer 1" xmlns="http://www.w3.org/2000/svg" viewBox="0 0 60 60"><title>Captures</title><path d="M30,11A19,19,0,1,0,49,30,19,19,0,0,0,30,11ZM46,30a16,16,0,0,1-.55,4.06H36.34l4.74-15.54A15.92,15.92,0,0,1,46,30Zm-21.1-1.47L29.75,25l5.07,3.76L33.2,34.06H26.8Zm13.67-12-2.8,9.2L22.51,15.9a15.9,15.9,0,0,1,16,.63ZM19.86,17.66l7.36,5.47-13,9.38a15.84,15.84,0,0,1,5.62-14.85Zm-4.8,18,7.28-5.26,5.35,15.43A16,16,0,0,1,15.06,35.62ZM30.91,45.93l-3.07-8.87H44.31A16,16,0,0,1,30.91,45.93Z"/></svg>