<svg width="93" height="86" viewBox="0 0 93 86" fill="none" xmlns="http://www.w3.org/2000/svg">
<path d="M11.15 52.3202C10.3008 52.756 9.51556 53.3138 8.81466 53.9964C3.94609 58.7381 4.99167 67.7079 11.15 74.0311C17.3084 80.3543 26.2475 81.6364 31.116 76.8947C32.1044 75.932 32.8491 74.7951 33.3567 73.5414" stroke="#0000FF" stroke-width="3.2"/>
<path d="M52.8164 30.3516C61.1128 30.3516 67.8384 36.2364 67.8384 43.4958C67.8384 45.7618 67.183 47.8939 66.0291 49.7549" stroke="#0000FF" stroke-width="3.2"/>
<path d="M58.8051 32.2297C58.9837 31.4192 59.0772 30.5822 59.0772 29.7261C59.0772 22.4667 52.3517 16.5819 44.0553 16.5819C40.0923 16.5819 36.4074 17.959 33.7231 20.153L22.3875 5.27533C19.3489 1.50857 13.8529 0.901444 10.1118 3.91928C6.37077 6.93712 5.80127 12.4371 8.83984 16.2039L19.2432 29.1005C13.8107 33.8432 10.2579 40.5363 10.2579 48.2892C10.2579 62.5807 21.9105 74.1664 36.2846 74.1664C42.7441 74.1664 48.8612 71.8054 53.411 67.9319L82.2381 67.9072C87.0777 67.9072 91.0009 63.9839 91.0009 59.1444C91.0009 54.3048 87.0777 50.3816 82.2381 50.3816L60.3311 50.3816" stroke="#0000FF" stroke-width="3.2"/>
<path d="M19.0176 50.3819L27.7804 41.6191" stroke="#0000FF" stroke-width="3.2"/>
<path d="M24.0254 55.3878L32.7882 46.625" stroke="#0000FF" stroke-width="3.2"/>
<path d="M29.0332 60.3956L37.796 51.6328" stroke="#0000FF" stroke-width="3.2"/>
</svg>
