<?xml version="1.0" encoding="utf-8"?>
<!-- Generator: Adobe Illustrator 21.1.0, SVG Export Plug-In . SVG Version: 6.00 Build 0)  -->
<svg version="1.1" id="Layer_1" xmlns="http://www.w3.org/2000/svg" xmlns:xlink="http://www.w3.org/1999/xlink" x="0px" y="0px"
	 viewBox="0 0 368 170" style="enable-background:new 0 0 368 170;" xml:space="preserve">
<style type="text/css">
	.st0{fill:#0000FF;}
</style>
<g>
	<path class="st0" d="M153.6,137.4c5-4,7.7-12.7,7.7-26.3V35.7c0-13.3-2.5-22.1-7.7-26.5v-4h59.8v25.6h-4.2l-13.8-14.4
		c-2.9-1.9-6-2.9-9.6-3.1H178v46.3h4.2c6,0,11.3-0.6,15.6-2.7c4.2-2.1,7.1-5.2,9-9.6h4.2v32.9h-4.2c-1.7-4-4.6-7.1-9-9.6
		c-4-1.9-9.4-2.9-15.6-2.9H178v65.6h8.3c3.1,0,6.9-1.5,10.4-4.6l15.4-14.8h4l-3.5,27.5h-59V137.4z M235.3,58.6
		c-4.8-7.1-7.3-15-7.3-24.2c0-9,2.3-16.3,7.1-21.9c5.6-6.7,13.1-10.2,22.5-10.2c6.3,0,13.5,1.7,22.5,4.8v23.6h-4.2l-17.1-15.6
		c-2.3-1.9-4.2-2.9-5.8-2.9c-2.9,0-5,1.3-6.7,3.5c-2.5,3.1-3.7,8.1-3.7,15c0,7.7,3.1,15,9.2,21.5c4.6,4.6,11.5,11.3,21.3,20.2
		c8.5,9,12.9,19.6,13.1,31.5c0,13.3-3.5,23.5-10.6,30.8c-6.9,6.5-15.6,9.6-26.7,9.6c-6.5,0-13.5-1.5-21.7-4.4v-23.3h4l16.3,16.3
		c1.5,1.3,3.1,1.9,5,1.9c4.8,0,8.5-2.1,11.3-6.3c2.7-4.2,4.2-10.2,4.2-18.5c0-7.7-1.7-14.2-4.4-19.4c-2.9-4.6-7.5-9.6-13.8-15.6
		C241.9,66.8,237.1,61.3,235.3,58.6z M328.6,144.3c-23.1,0-35-22.5-35-67.7c0-49.4,12.5-74.2,37.7-74.2c6.5,0,12.7,1.7,19.2,4.4
		v23.5h-4.2l-11.9-15c-2.1-2.1-4.2-3.1-6.5-3.1c-10.4,0-16,20.6-16.5,61.5c0.4,40.6,5.8,61.1,16.3,61.1c2.5,0,4.8-1,6.9-3.1l11.9-15
		h4.2v23.3C344,142.6,336.8,144.3,328.6,144.3z"/>
	<rect x="1" y="157.2" class="st0" width="366" height="10.4"/>
</g>
</svg>
