<svg id="Layer_1" data-name="Layer 1" xmlns="http://www.w3.org/2000/svg" viewBox="0 0 60 60"><title>Impressions</title><path d="M57.43,29.27c-.37-.67-9.14-16-26.35-16.61-.36,0-.71-.06-1.08-.06s-.72,0-1.08.06c-17.21.62-26,15.94-26.35,16.61a1.46,1.46,0,0,0,0,1.46c.37.67,9.13,16,26.32,16.61.37,0,.74.06,1.11.06s.74,0,1.1-.06c17.2-.64,26-15.94,26.33-16.61A1.46,1.46,0,0,0,57.43,29.27ZM44.6,30A14.6,14.6,0,0,1,33.71,44.1a25.62,25.62,0,0,1-7.42,0,14.58,14.58,0,0,1,0-28.21A26.24,26.24,0,0,1,30,15.63a24.72,24.72,0,0,1,3.71.27A14.61,14.61,0,0,1,44.6,30Zm-39,0a35.18,35.18,0,0,1,10.3-10.21,17.27,17.27,0,0,0,0,20.39A35.57,35.57,0,0,1,5.64,30ZM44.08,40.18a17.27,17.27,0,0,0,0-20.36A35.45,35.45,0,0,1,54.36,30,35.45,35.45,0,0,1,44.08,40.18Z"/><circle cx="30" cy="30" r="7"/></svg>