<?xml version="1.0" encoding="utf-8"?>
<!-- Generator: Adobe Illustrator 21.1.0, SVG Export Plug-In . SVG Version: 6.00 Build 0)  -->
<svg version="1.1" id="Layer_1" xmlns="http://www.w3.org/2000/svg" xmlns:xlink="http://www.w3.org/1999/xlink" x="0px" y="0px"
	 viewBox="0 0 768 116" style="enable-background:new 0 0 768 116;" xml:space="preserve">
<style type="text/css">
	.st0{fill:#0000FF;}
</style>
<g>
	<path class="st0" d="M31.5,31.5h11.7v13.9H31.5v24.3c0,5.1,2.4,6.7,6.8,6.7c1.9,0,4-0.2,4.8-0.5v13c-1.4,0.6-4.2,1.4-8.8,1.4
		c-11.3,0-18.4-6.7-18.4-17.9v-27H5.4V31.5h2.9c6.1,0,9-4,9-9.2v-8.1h14.2V31.5z"/>
	<path class="st0" d="M69.4,89.5H53.7V4.1h15.7v32.2c3.8-4.5,10.1-6.4,15.7-6.4c14.7,0,21.6,10.3,21.6,23v36.6H91V55.6
		c0-6.5-3.2-11.6-10.7-11.6c-6.6,0-10.5,5-10.9,11.3V89.5z"/>
	<path class="st0" d="M171.1,72.9c-2.9,10-12.2,18.4-26.4,18.4c-15.9,0-30-11.4-30-31c0-18.5,13.7-30.6,28.6-30.6
		c17.9,0,28.7,11.4,28.7,30.1c0,2.2-0.2,4.6-0.2,4.8h-41.5c0.4,7.7,6.8,13.2,14.6,13.2c7.3,0,11.3-3.7,13.2-8.8L171.1,72.9z
		 M156.5,53.9c-0.2-5.8-4-11.4-13-11.4c-8.1,0-12.6,6.1-13,11.4H156.5z"/>
	<path class="st0" d="M260.9,70.4h-34l-7,19.1h-17.2l32.1-83.6h18.9l31.9,83.6h-17.7L260.9,70.4z M232.3,55.5h23.1l-11.6-31.6
		L232.3,55.5z"/>
	<path class="st0" d="M290.3,111.9V31.5h15.2v7.1c2.6-4.5,9.1-8.4,17.8-8.4c17,0,26.8,13,26.8,30.2c0,17.6-11,30.6-27.4,30.6
		c-8,0-13.9-3.2-16.8-7.1v28.1H290.3z M320.2,44.2c-8,0-14.5,6-14.5,16.3c0,10.3,6.5,16.4,14.5,16.4c8,0,14.4-6,14.4-16.4
		C334.6,50.2,328.2,44.2,320.2,44.2z"/>
	<path class="st0" d="M373.9,56.1l14.3-2.1c3.3-0.5,4.4-2.1,4.4-4.1c0-4.1-3.2-7.6-9.8-7.6c-6.8,0-10.6,4.4-11.1,9.4l-13.9-2.9
		c0.9-9.1,9.3-19.1,24.9-19.1c18.4,0,25.2,10.4,25.2,22.1v28.6c0,3.1,0.4,7.2,0.7,9.2h-14.4c-0.4-1.5-0.6-4.7-0.6-7
		c-2.9,4.6-8.5,8.6-17.1,8.6c-12.4,0-19.9-8.4-19.9-17.5C356.6,63.3,364.2,57.5,373.9,56.1z M392.6,66v-2.6l-13.1,2
		c-4,0.6-7.2,2.8-7.2,7.3c0,3.4,2.5,6.7,7.6,6.7C386.4,79.5,392.6,76.3,392.6,66z"/>
	<path class="st0" d="M451.3,47c-1.8-0.4-3.3-0.5-4.7-0.5c-8,0-15,3.9-15,16.4v26.5h-15.7v-58h15.2v8.6c3.5-7.7,11.6-9.1,16.5-9.1
		c1.3,0,2.5,0.1,3.7,0.2V47z"/>
	<path class="st0" d="M484,31.5h11.7v13.9H484v24.3c0,5.1,2.4,6.7,6.8,6.7c1.9,0,4-0.2,4.8-0.5v13c-1.4,0.6-4.2,1.4-8.8,1.4
		c-11.3,0-18.4-6.7-18.4-17.9v-27h-10.5V31.5h3c6.1,0,9-4,9-9.2v-8.1H484V31.5z"/>
	<path class="st0" d="M506.2,89.5v-58h15v7.1c3.2-5.7,10.6-8.7,17-8.7c7.9,0,14.3,3.4,17.2,9.7c4.6-7.1,10.7-9.7,18.4-9.7
		c10.7,0,21,6.5,21,22.1v37.6h-15.2V55.1c0-6.3-3.1-11-10.3-11c-6.7,0-10.7,5.2-10.7,11.4v34h-15.6V55.1c0-6.3-3.2-11-10.3-11
		c-6.8,0-10.9,5.1-10.9,11.4v34H506.2z"/>
	<path class="st0" d="M658.2,72.9c-2.9,10-12.2,18.4-26.4,18.4c-15.9,0-30-11.4-30-31c0-18.5,13.7-30.6,28.6-30.6
		c17.9,0,28.7,11.4,28.7,30.1c0,2.2-0.2,4.6-0.2,4.8h-41.5c0.4,7.7,6.8,13.2,14.6,13.2c7.3,0,11.3-3.7,13.2-8.8L658.2,72.9z
		 M643.6,53.9c-0.2-5.8-4-11.4-13-11.4c-8.1,0-12.6,6.1-13,11.4H643.6z"/>
	<path class="st0" d="M682.4,89.5h-15.7v-58h15.2v7.2c3.5-6,10.5-8.7,16.8-8.7c14.4,0,21,10.3,21,23v36.6H704V55.6
		c0-6.5-3.2-11.6-10.7-11.6c-6.8,0-10.9,5.3-10.9,12V89.5z"/>
	<path class="st0" d="M750.9,31.5h11.7v13.9h-11.7v24.3c0,5.1,2.4,6.7,6.8,6.7c1.9,0,4-0.2,4.8-0.5v13c-1.4,0.6-4.2,1.4-8.8,1.4
		c-11.3,0-18.4-6.7-18.4-17.9v-27h-10.5V31.5h3c6.1,0,9-4,9-9.2v-8.1h14.2V31.5z"/>
</g>
</svg>
