<svg width="309" height="136" viewBox="0 0 309 136" fill="none" xmlns="http://www.w3.org/2000/svg">
<path d="M112.336 28.1445H101.119V100.282H112.336V28.1445Z" fill="#FE803A"/>
<path d="M203.252 87.0156H197.904L184.605 50.4648H172.667L190.641 99.8489H210.522L228.495 50.4648H216.557L203.252 87.0156Z" fill="#FE803A"/>
<path d="M297.021 50.4648L282.724 88.5833H277.451L262.697 50.4648H250.668L269.786 99.8489H278.492L271.111 119.529H283.098L309.001 50.4648H297.021Z" fill="#FE803A"/>
<path d="M155.638 50.4661V79.0116C155.638 82.2312 154.359 85.319 152.082 87.5956C149.805 89.8723 146.718 91.1512 143.498 91.1512C140.278 91.1512 137.191 89.8723 134.914 87.5956C132.637 85.319 131.358 82.2312 131.358 79.0116V50.4453H120.155V79.0116C120.261 85.1356 122.768 90.973 127.136 95.2665C131.504 99.5599 137.384 101.966 143.508 101.966C149.633 101.966 155.513 99.5599 159.881 95.2665C164.249 90.973 166.756 85.1356 166.862 79.0116V50.4453H155.638V50.4661Z" fill="#FE803A"/>
<path d="M233.428 99.8517V100.275H244.645V99.8517V28.1445H233.428V99.8517Z" fill="#FE803A"/>
<path d="M36.1137 90.9779V20.8524L0 0V70.1324L36.1137 90.9849V135.693L72.2274 114.848V70.1324L36.1137 90.9779Z" fill="#FE803A"/>
</svg>
