<?xml version="1.0" encoding="utf-8"?>
<!-- Generator: Adobe Illustrator 21.1.0, SVG Export Plug-In . SVG Version: 6.00 Build 0)  -->
<svg version="1.1" id="Layer_1" xmlns="http://www.w3.org/2000/svg" xmlns:xlink="http://www.w3.org/1999/xlink" x="0px" y="0px"
	 viewBox="0 0 288 288" style="enable-background:new 0 0 288 288;" xml:space="preserve">
<style type="text/css">
	.st0{fill-opacity:0;}
</style>
<rect x="0.4" y="0.4" class="st0" width="287.3" height="287.3"/>
<path d="M122.1,65.3c-5.1-11.8-18.2-12.7-24.5-12.7c-6.4,0-10.5,0-20.2,0c5,1.2,15.3,6.4,21.1,19.5l44.3,103.3l11.1-20.2
	c2.9-6,3.3-7.6,0.8-14.4C154.7,140.9,131.4,86.8,122.1,65.3z M169.2,65.3c-5.1-11.8-18.2-12.7-24.5-12.7c-6.4,0-10.5,0-20.2,0
	c5,1.2,15.3,6.4,21.1,19.5l34.7,82l11.1-20.2c2.9-6,3.3-7.6,0.8-14.4L169.2,65.3z M94.9,114l-6.8,34.9c0,0,10.3,0,26.1,0
	C109.1,147.4,93.5,128,94.9,114z M210.7,52.9c0,0-14.6,0-30.4,0c3.1,1.2,16,13.2,13.6,30L210.7,52.9z"/>
<g>
	<polygon points="70.1,206.1 64.6,197.8 62,197.8 62,213 64.9,213 64.9,203 70,210.7 75.2,203 75.2,213 78,213 78,197.8 75.7,197.8 
			"/>
	<polygon points="94.2,206.2 100,206.2 100,203.5 94.2,203.5 94.2,200.3 103.8,200.3 103.8,197.8 91.5,197.8 91.5,213 104.4,213 
		104.4,210.3 94.2,210.3 	"/>
	<polygon points="126.4,207.6 117.8,197.8 116.1,197.8 116.1,213 119,213 119,203.2 127.5,213 129.1,213 129.1,197.8 126.4,197.8 	
		"/>
	<polygon points="158.2,197.8 155,207.6 151.7,197.8 149.4,197.8 146.2,207.7 142.9,197.8 140.1,197.8 145,213 147,213 150.5,202.6 
		153.9,213 155.9,213 160.9,197.8 	"/>
	<rect x="171.8" y="197.7" width="2.8" height="15.5"/>
	<polygon points="190.5,213.2 193.3,213.2 193.3,200.5 199.3,200.5 199.3,197.8 184.5,197.8 184.5,200.5 190.5,200.5 	"/>
	<polygon points="219.5,197.8 219.5,203.5 212,203.5 212,197.8 209.2,197.8 209.2,213 212,213 212,206 219.5,206 219.5,213 
		222.3,213 222.3,197.8 	"/>
	<path d="M96.8,235.3c-0.7,1.1-1.3,1.8-2,2.2c-0.9,0.5-1.8,0.7-2.8,0.7c-0.8,0-1.4-0.1-2-0.4c-0.6-0.3-1.2-0.6-1.6-1.1
		s-0.8-1-1.1-1.6c-0.3-0.6-0.4-1.2-0.4-2.1c0-0.9,0.1-1.6,0.4-2.2c0.3-0.6,0.6-1.2,1.1-1.6s1-0.8,1.6-1.1c0.6-0.2,1.2-0.4,2-0.4
		c1,0,1.9,0.2,2.6,0.6c0.8,0.5,1.4,1,1.8,1.8l0.3,0.5L99,229l-0.2-0.4c-0.6-1.1-1.5-2-2.8-2.7c-1.2-0.6-2.5-1-3.8-1
		c-1.2,0-2.2,0.2-3.2,0.6c-1,0.4-1.8,0.9-2.6,1.7c-0.6,0.7-1.2,1.6-1.6,2.5c-0.4,1-0.6,2-0.6,3.2c0,1.2,0.3,2.2,0.6,3.2
		c0.3,1,0.9,1.8,1.6,2.6c0.7,0.7,1.5,1.2,2.6,1.7c1,0.4,2,0.6,3.2,0.6c1.7,0,3-0.4,4.2-1.1c1.3-0.8,2.2-1.8,2.9-3.1l0.2-0.4
		l-2.3-1.8L96.8,235.3z"/>
	<polygon points="114.4,225.3 112,225.3 112,225.8 111.6,225.8 111.6,240.7 123.8,240.7 123.8,238 114.4,238 	"/>
	<path d="M140,225.3l-7.4,15.3h3l1.9-3.9h7.3l1.9,3.9h3l-7.6-15.3H140z M143.4,234.2h-4.7l2.3-4.8L143.4,234.2z"/>
	<path d="M169.3,231.2c-0.3,0-0.7,0-1-0.1c-0.3,0-0.6,0-0.9,0c-0.6,0-1.1,0-1.6-0.1c-0.5,0-1-0.1-1.3-0.2c-0.3-0.1-0.6-0.2-0.9-0.4
		c-0.4-0.3-0.5-0.6-0.5-0.9c0-0.3,0.1-0.8,0.8-1.2c0.6-0.4,1.3-0.6,2.4-0.6c1.9,0,3.7,0.7,5.5,2.1l0.4,0.3l1.6-2.4l-0.4-0.3
		c-1.1-0.8-2.3-1.4-3.4-1.8c-1.2-0.4-2.5-0.6-3.8-0.6c-0.9,0-1.7,0.1-2.5,0.3l-0.4,0.2c-0.5,0.2-1.1,0.4-1.5,0.8
		c-0.6,0.5-0.9,1-1.2,1.4c-0.4,0.6-0.5,1.4-0.5,1.8c0,1.6,0.7,2.7,2.3,3.4c0.4,0.2,0.9,0.3,1.3,0.4c0.2,0.1,0.5,0.1,0.8,0.1
		c0.2,0,0.4,0,0.8,0.1c0.2,0,0.5,0,0.8,0c0.8,0.1,1.6,0,2.5,0.1c1,0.1,1.7,0.3,2.2,0.8c0.5,0.5,0.7,0.8,0.7,1.3c0,0.3-0.1,0.6-0.2,1
		c-0.1,0.3-0.4,0.5-0.7,0.8c-0.4,0.2-0.9,0.4-1.3,0.6c-0.6,0.1-1.2,0.2-1.8,0.2c-1,0-2-0.2-3-0.6c-1.1-0.4-2.1-1-3.1-1.7l-0.5-0.4
		l-1.1,2.4l0.3,0.2c1,0.9,2.3,1.5,3.7,2c1.4,0.4,2.7,0.6,4.1,0.6c1.1,0,2-0.2,2.9-0.4c0.9-0.3,1.6-0.6,2.2-1.1c0.5-0.5,1-1,1.3-1.6
		c0.3-0.6,0.5-1.3,0.5-2c0-1.2-0.4-2.2-1.4-3.2C172.3,231.9,171,231.4,169.3,231.2z"/>
	<path d="M195.3,231.2c-0.3,0-0.7,0-1-0.1c-0.3,0-0.6,0-0.9,0c-0.6,0-1.1,0-1.6-0.1c-0.5,0-1-0.1-1.3-0.2c-0.3-0.1-0.6-0.2-0.9-0.4
		c-0.4-0.3-0.5-0.6-0.5-0.9c0-0.3,0.1-0.8,0.8-1.2c0.6-0.4,1.3-0.6,2.4-0.6c1.9,0,3.7,0.7,5.5,2.1l0.4,0.3l1.6-2.4l-0.4-0.3
		c-1.1-0.8-2.3-1.4-3.4-1.8c-1.2-0.4-2.5-0.6-3.8-0.6c-0.9,0-1.7,0.1-2.5,0.3l-0.4,0.2c-0.5,0.2-1.1,0.4-1.5,0.8
		c-0.6,0.5-0.9,1-1.2,1.4c-0.4,0.6-0.5,1.4-0.5,1.8c0,1.6,0.7,2.7,2.3,3.4c0.4,0.2,0.9,0.3,1.3,0.4c0.2,0.1,0.5,0.1,0.8,0.1
		c0.2,0,0.4,0,0.8,0.1c0.2,0,0.5,0,0.8,0c0.8,0.1,1.6,0,2.5,0.1c1,0.1,1.7,0.3,2.2,0.8c0.5,0.5,0.7,0.8,0.7,1.3c0,0.3-0.1,0.6-0.2,1
		c-0.1,0.3-0.4,0.5-0.7,0.8c-0.4,0.2-0.9,0.4-1.3,0.6c-0.6,0.1-1.2,0.2-1.8,0.2c-1,0-2-0.2-3-0.6c-1.1-0.4-2.1-1-3.1-1.7l-0.5-0.4
		l-1.1,2.4l0.3,0.2c1,0.9,2.3,1.5,3.7,2c1.4,0.4,2.7,0.6,4.1,0.6c1.1,0,2-0.2,2.9-0.4c0.9-0.3,1.6-0.6,2.2-1.1c0.5-0.5,1-1,1.3-1.6
		c0.3-0.6,0.5-1.3,0.5-2c0-1.2-0.4-2.2-1.4-3.2C198.3,231.9,197,231.4,195.3,231.2z"/>
</g>
</svg>
