<?xml version="1.0" encoding="utf-8"?>
<!-- Generator: Adobe Illustrator 21.1.0, SVG Export Plug-In . SVG Version: 6.00 Build 0)  -->
<svg version="1.1" id="Layer_1" xmlns="http://www.w3.org/2000/svg" xmlns:xlink="http://www.w3.org/1999/xlink" x="0px" y="0px"
	 viewBox="0 0 288 288" style="enable-background:new 0 0 288 288;" xml:space="preserve">
<style type="text/css">
	.st0{fill-opacity:0;}
</style>
<rect x="0.4" y="0.4" class="st0" width="287.3" height="287.3"/>
<g>
	<path d="M122.1,65.3c-5.1-11.8-18.2-12.7-24.5-12.7c-6.4,0-10.5,0-20.2,0c5,1.2,15.3,6.4,21.1,19.5l44.3,103.3l11.1-20.2
		c2.9-6,3.3-7.6,0.8-14.4C154.7,140.9,131.5,86.9,122.1,65.3z M169.3,65.3c-5.1-11.8-18.2-12.7-24.5-12.7c-6.4,0-10.5,0-20.2,0
		c5,1.2,15.3,6.4,21.1,19.5l34.7,82l11.1-20.2c2.9-6,3.3-7.6,0.8-14.4L169.3,65.3z M95,114.1L88.2,149c0,0,10.3,0,26.1,0
		C109.2,147.5,93.6,128.1,95,114.1z M210.8,53c0,0-14.6,0-30.4,0c3.1,1.2,16,13.2,13.6,30L210.8,53z"/>
</g>
<g>
	<polygon points="70.2,206.2 64.7,197.8 62.4,197.8 62.4,213.2 65.1,213.2 65.1,203.1 70.4,210.8 75.5,203.1 75.5,213.2 78.1,213.2 
		78.1,197.8 75.8,197.8 	"/>
	<polygon points="94.4,206.2 100,206.2 100,203.7 94.4,203.7 94.4,200.5 103.9,200.5 103.9,197.8 91.5,197.8 91.5,213 104.5,213 
		104.5,210.5 94.4,210.5 	"/>
	<polygon points="126.5,207.7 117.9,197.8 116.2,197.8 116.2,213.2 119,213.2 119,203.3 127.6,213.2 129.2,213.2 129.2,197.8 
		126.5,197.8 	"/>
	<polygon points="158.3,197.8 155,207.7 151.8,197.8 149.5,197.8 146.2,207.8 143,197.8 140.2,197.8 145.1,213.2 147.1,213.2 
		150.5,202.7 154,213.2 156,213.2 161,197.8 	"/>
	<rect x="172" y="197.8" width="2.8" height="15.5"/>
	<polygon points="190.8,213.2 193.5,213.2 193.5,200.5 199.5,200.5 199.5,197.8 184.7,197.8 184.7,200.5 190.8,200.5 	"/>
	<polygon points="219.7,197.8 219.7,203.5 212.2,203.5 212.2,197.8 209.2,197.8 209.2,213.2 212,213.2 212,206.2 219.5,206.2 
		219.5,213.2 222.5,213.2 222.5,197.8 	"/>
	<path d="M93.4,235.2c0,0.6,0,1.3-0.1,1.6c-0.2,0.4-0.4,0.7-0.6,1c-0.2,0.2-0.6,0.4-1,0.5c-1.3,0.3-2.5,0.3-3.8,0
		c-0.5-0.1-0.8-0.2-1-0.5l-0.1-0.1c-0.2-0.1-0.3-0.4-0.4-0.8c-0.1-0.3-0.1-0.7-0.2-1.2h0.2v-10.3h-2.8v10.3c0,1.9,0.5,3.2,1.6,4.2
		c1,0.9,2.6,1.3,4.8,1.3s3.8-0.4,4.8-1.3c1.1-0.9,1.6-2.3,1.6-4.2v-10.3h-2.8V235.2z"/>
	<path d="M120.3,233.8c0.6-0.3,1-0.7,1.3-1.1c0.3-0.4,0.5-0.9,0.7-1.3l0-0.1c0.1-0.6,0.2-1.1,0.2-1.5c0-1.4-0.5-2.5-1.4-3.3
		c-0.9-0.8-2.1-1.1-3.6-1.1h-8.8v15.2h2.8v-6.3h4.8l3.6,6.3h3.2l-3.7-6.5C119.8,234,120.1,233.9,120.3,233.8z M119.9,230
		c0,0.8-0.2,1.8-2.2,1.8h-5.9v-3.7h5.9c0.9,0,1.3,0.1,1.6,0.5C119.7,229,119.9,229.4,119.9,230z"/>
	<path d="M147.9,232.1c0.6-0.6,0.9-1.5,0.9-2.6c0-1.3-0.4-2.4-1.3-3.1c-0.8-0.7-2-1-3.5-1h-9v15.3h9.4c1.7,0,2.9-0.4,3.9-1.3
		c1-0.8,1.5-2,1.5-3.5C149.8,234.4,149.2,233.1,147.9,232.1z M137.9,233.8h7c0.8,0,1.3,0.2,1.6,0.6c0.4,0.4,0.6,0.9,0.6,1.5
		c0,0.8-0.2,1.3-0.6,1.6s-0.9,0.6-1.6,0.6l-0.5,0.1h-6.5V233.8z M145.7,230.8c-0.3,0.2-0.6,0.4-1.4,0.4h-6.4v-3h6.4
		c1.6,0,1.8,0.9,1.8,1.5C146,230.2,145.9,230.5,145.7,230.8z"/>
	<path d="M167.6,225.5l-7.4,15.3h3l1.9-3.9h7.3l1.9,3.9h3l-7.6-15.3H167.6z M171,234.2h-4.7l2.3-4.8L171,234.2z"/>
	<polygon points="198.5,235.3 189.9,225.5 188.2,225.5 188.2,240.8 191,240.8 191,230.9 199.6,240.8 201.2,240.8 201.2,225.5 
		198.5,225.5 	"/>
</g>
</svg>
