<?xml version="1.0" encoding="utf-8"?>
<!-- Generator: Adobe Illustrator 21.1.0, SVG Export Plug-In . SVG Version: 6.00 Build 0)  -->
<svg version="1.1" id="Layer_1" xmlns="http://www.w3.org/2000/svg" xmlns:xlink="http://www.w3.org/1999/xlink" x="0px" y="0px"
	 viewBox="0 0 288 288" style="enable-background:new 0 0 288 288;" xml:space="preserve">
<style type="text/css">
	.st0{fill-opacity:0;}
</style>
<rect x="0.4" y="0.4" class="st0" width="287.3" height="287.3"/>
<g>
	<g>
		<path d="M122.1,65.3c-5.1-11.8-18.2-12.7-24.5-12.7c-6.4,0-10.5,0-20.2,0c5,1.2,15.3,6.4,21.1,19.5l44.3,103.3l11.1-20.2
			c2.9-6,3.3-7.6,0.8-14.4C154.7,140.9,131.4,86.8,122.1,65.3z M169.3,65.3c-5.1-11.8-18.2-12.7-24.5-12.7c-6.4,0-10.5,0-20.2,0
			c5,1.2,15.3,6.4,21.1,19.5l34.7,82l11.1-20.2c2.9-6,3.3-7.6,0.8-14.4L169.3,65.3z M94.9,114l-6.8,34.9c0,0,10.3,0,26.1,0
			C109.2,147.4,93.6,128,94.9,114z M210.7,52.9c0,0-14.6,0-30.4,0c3.1,1.2,16,13.2,13.6,30L210.7,52.9z"/>
	</g>
</g>
<g>
	<polygon points="75.4,203 75.4,213 78.1,213 78.1,197.8 75.8,197.8 70.2,206.1 64.7,197.8 62.1,197.8 62.1,213 65,213 65,203 
		70.1,210.7 	"/>
	<polygon points="104.5,210.3 94.4,210.3 94.4,206.2 100,206.2 100,203.5 94.4,203.5 94.4,200.3 103.9,200.3 103.9,197.8 
		91.5,197.8 91.5,213 104.5,213 	"/>
	<polygon points="119,203.2 127.5,213 129.1,213 129.1,197.8 126.4,197.8 126.4,207.6 117.8,197.8 116.1,197.8 116.1,213 119,213 	
		"/>
	<polygon points="155,207.6 151.7,197.8 149.4,197.8 146.2,207.7 142.9,197.8 140.1,197.8 145,213 147,213 150.5,202.6 153.9,213 
		155.9,213 160.9,197.8 158.2,197.8 	"/>
	<rect x="171.8" y="197.7" width="2.8" height="15.5"/>
	<polygon points="190.7,213.2 193.5,213.2 193.5,200.5 199.5,200.5 199.5,197.8 184.5,197.8 184.5,200.5 190.7,200.5 	"/>
	<polygon points="219.5,203.5 212,203.5 212,197.8 209.2,197.8 209.2,213 212,213 212,206 219.5,206 219.5,213 222.3,213 
		222.3,197.8 219.5,197.8 	"/>
	<path d="M27.1,231.2c-0.3,0-0.7,0-1-0.1c-0.3,0-0.6,0-0.9,0c-0.6,0-1.1,0-1.6-0.1c-0.5,0-1-0.1-1.3-0.2c-0.3-0.1-0.6-0.2-0.9-0.4
		c-0.4-0.3-0.5-0.6-0.5-0.9c0-0.3,0.1-0.8,0.8-1.2c0.6-0.4,1.3-0.6,2.4-0.6c1.9,0,3.7,0.7,5.5,2.1l0.4,0.3l1.6-2.4l-0.4-0.3
		c-1.1-0.8-2.3-1.4-3.4-1.8c-1.2-0.4-2.5-0.6-3.8-0.6c-0.9,0-1.7,0.1-2.5,0.3l-0.4,0.2c-0.5,0.2-1.1,0.4-1.5,0.8
		c-0.6,0.5-0.9,1-1.2,1.4c-0.4,0.6-0.5,1.4-0.5,1.8c0,1.6,0.7,2.7,2.3,3.4c0.4,0.2,0.9,0.3,1.3,0.4c0.2,0.1,0.5,0.1,0.8,0.1
		c0.2,0,0.4,0,0.8,0.1c0.2,0,0.5,0,0.8,0c0.8,0.1,1.6,0,2.5,0.1c1,0.1,1.7,0.3,2.2,0.8c0.5,0.5,0.7,0.8,0.7,1.3c0,0.3-0.1,0.6-0.2,1
		c-0.1,0.3-0.4,0.5-0.7,0.8c-0.4,0.2-0.9,0.4-1.3,0.6c-0.6,0.1-1.2,0.2-1.8,0.2c-1,0-2-0.2-3-0.6c-1.1-0.4-2.1-1-3.1-1.7l-0.5-0.4
		l-1.1,2.4l0.3,0.2c1,0.9,2.3,1.5,3.7,2c1.4,0.4,2.7,0.6,4.1,0.6c1.1,0,2-0.2,2.9-0.4c0.9-0.3,1.6-0.6,2.2-1.1c0.5-0.5,1-1,1.3-1.6
		c0.3-0.6,0.5-1.3,0.5-2c0-1.2-0.4-2.2-1.4-3.2C30.1,231.9,28.8,231.4,27.1,231.2z"/>
	<polygon points="41,228 47,228 47,240.8 50,240.8 50,228 56,228 56,225.5 41,225.5 	"/>
	<path d="M77,233.7c0.6-0.3,1-0.7,1.3-1.1c0.3-0.4,0.7-0.9,0.8-1.4c0.1-0.6,0.2-1.1,0.2-1.5c0-1.4-0.5-2.5-1.4-3.3
		c-0.9-0.8-2.1-1.1-3.6-1.1h-8.7v15.4h2.8v-6.3h4.8l3.5,6.1h3.2l-3.7-6.5C76.5,233.9,76.8,233.8,77,233.7z M76.5,230
		c0,0.8-0.2,1.8-2.2,1.8h-5.9V228h5.9c0.8,0,1.3,0.1,1.6,0.5C76.3,228.9,76.5,229.3,76.5,230z"/>
	<polygon points="94.5,233.8 100.2,233.8 100.2,231.2 94.5,231.2 94.5,228 104,228 104,225.3 91.8,225.3 91.8,240.5 104.6,240.5 
		104.6,238 94.5,238 	"/>
	<polygon points="119.1,233.8 124.9,233.8 124.9,231.2 119.1,231.2 119.1,228 128.6,228 128.6,225.3 116.4,225.3 116.4,240.5 
		129.2,240.5 129.2,238 119.1,238 	"/>
	<polygon points="137.5,228 143.5,228 143.5,240.8 146.3,240.8 146.3,228 152.3,228 152.3,225.5 137.5,225.5 	"/>
	<path d="M170.8,231.2c-0.3,0-0.7,0-1-0.1c-0.3,0-0.6,0-0.9,0c-0.6,0-1,0-1.6-0.1c-0.5,0-1-0.1-1.3-0.2c-0.3-0.1-0.6-0.2-0.9-0.4
		c-0.4-0.3-0.5-0.6-0.5-0.9c0-0.3,0.1-0.8,0.8-1.2c0.6-0.4,1.3-0.6,2.4-0.6c1.9,0,3.7,0.7,5.5,2.1l0.4,0.3l1.6-2.4l-0.4-0.3
		c-1.1-0.8-2.3-1.4-3.4-1.8c-1.2-0.4-2.5-0.6-3.8-0.6c-0.9,0-1.7,0.1-2.5,0.3l-0.4,0.2c-0.5,0.2-1.1,0.4-1.5,0.8
		c-0.6,0.5-0.9,1-1.2,1.4c-0.4,0.6-0.5,1.4-0.5,1.8c0,1.6,0.7,2.7,2.3,3.4c0.4,0.2,0.9,0.3,1.3,0.4c0.2,0.1,0.5,0.1,0.8,0.1
		c0.2,0,0.4,0,0.8,0.1c0.2,0,0.5,0,0.8,0c0.8,0.1,1.6,0,2.5,0.1c1,0.1,1.7,0.3,2.2,0.8c0.5,0.5,0.7,0.8,0.7,1.3c0,0.3-0.1,0.6-0.2,1
		c-0.1,0.3-0.4,0.5-0.7,0.8c-0.4,0.2-0.9,0.4-1.3,0.6c-0.6,0.1-1.1,0.2-1.8,0.2c-1,0-2-0.2-3-0.6c-1.1-0.4-2.1-1-3.1-1.7l-0.5-0.4
		l-1.1,2.4l0.3,0.2c1,0.9,2.3,1.5,3.7,2c1.4,0.4,2.7,0.6,4.1,0.6c1.1,0,2-0.2,2.9-0.4c0.9-0.3,1.6-0.6,2.2-1.1c0.5-0.5,1-1,1.3-1.6
		c0.3-0.6,0.5-1.3,0.5-2c0-1.2-0.4-2.2-1.4-3.2C173.7,231.9,172.4,231.4,170.8,231.2z"/>
	<polygon points="184.7,228 190.8,228 190.8,240.8 193.5,240.8 193.5,228 199.5,228 199.5,225.5 184.7,225.5 	"/>
	<polygon points="213.7,230.8 208.8,225.3 205.2,225.3 212.2,233.1 212.2,240.8 215,240.8 215,233.2 222.2,225.3 218.5,225.3 	"/>
	<polygon points="234.3,225.3 232,225.3 232,225.8 231.7,225.8 231.7,240.7 243.8,240.7 243.8,238 234.3,238 	"/>
	<polygon points="257.8,238 257.8,233.8 263.5,233.8 263.5,231.2 257.8,231.2 257.8,228 267.2,228 267.2,225.3 255,225.3 255,240.5 
		267.8,240.5 267.8,238 	"/>
</g>
</svg>
