<?xml version="1.0" encoding="utf-8"?>
<!-- Generator: Adobe Illustrator 21.1.0, SVG Export Plug-In . SVG Version: 6.00 Build 0)  -->
<svg version="1.1" id="Layer_1" xmlns="http://www.w3.org/2000/svg" xmlns:xlink="http://www.w3.org/1999/xlink" x="0px" y="0px"
	 viewBox="0 0 288 288" style="enable-background:new 0 0 288 288;" xml:space="preserve">
<style type="text/css">
	.st0{fill-opacity:0;}
</style>
<rect x="0.4" y="0.4" class="st0" width="287.3" height="287.3"/>
<g>
	<g>
		<path d="M122.1,65.3c-5.1-11.8-18.2-12.7-24.5-12.7c-6.4,0-10.5,0-20.2,0c5,1.2,15.3,6.4,21.1,19.5l44.3,103.3l11.1-20.2
			c2.9-6,3.3-7.6,0.8-14.4C154.6,140.9,131.4,86.8,122.1,65.3z M169.2,65.3c-5.1-11.8-18.2-12.7-24.5-12.7c-6.4,0-10.5,0-20.2,0
			c5,1.2,15.3,6.4,21.1,19.5l34.7,82l11.1-20.2c2.9-6,3.3-7.6,0.8-14.4L169.2,65.3z M94.9,114l-6.8,34.9c0,0,10.3,0,26.1,0
			C109.2,147.4,93.6,128,94.9,114z M210.8,52.9c0,0-14.6,0-30.4,0c3.1,1.2,16,13.2,13.6,30L210.8,52.9z"/>
	</g>
</g>
<g>
	<polygon points="75.4,203 75.4,213 78.1,213 78.1,197.8 75.8,197.8 70.2,206.1 64.7,197.8 62.2,197.8 62.2,213.2 65,213.2 
		65,203.1 70.3,210.9 	"/>
	<polygon points="104.5,210.3 94.4,210.3 94.4,206.2 100,206.2 100,203.5 94.4,203.5 94.4,200.3 103.9,200.3 103.9,197.8 
		91.5,197.8 91.5,213 104.5,213 	"/>
	<polygon points="129.1,213 129.1,197.8 126.4,197.8 126.4,207.6 117.8,197.8 116.1,197.8 116.1,213 119,213 119,203.2 127.5,213 	
		"/>
	<polygon points="147,213 150.5,202.6 153.9,213 155.9,213 160.9,197.8 158.2,197.8 155,207.6 151.7,197.8 149.4,197.8 146.2,207.7 
		142.9,197.8 140.1,197.8 145,213 	"/>
	<rect x="171.8" y="197.7" width="2.8" height="15.5"/>
	<polygon points="199.5,197.8 184.7,197.8 184.7,200.5 190.8,200.5 190.8,213.2 193.5,213.2 193.5,200.5 199.5,200.5 	"/>
	<polygon points="219.7,203.5 212.2,203.5 212.2,197.8 209.3,197.8 209.3,213 212.2,213 212.2,206 219.7,206 219.7,213 222.5,213 
		222.5,197.8 219.7,197.8 	"/>
	<polygon points="47,240.5 49.9,240.5 49.9,233.8 55.5,233.8 55.5,231.2 49.9,231.2 49.9,228 59.4,228 59.4,225.3 47,225.3 	"/>
	<path d="M82.9,227.2c-0.7-0.7-1.5-1.2-2.6-1.7c-1.9-0.9-4.5-0.8-6.4,0c-1,0.4-1.8,0.9-2.6,1.7c-0.6,0.7-1.2,1.6-1.6,2.5
		c-0.4,1-0.6,2-0.6,3.2c0,1.2,0.2,2.2,0.6,3.2c0.3,1,0.9,1.8,1.6,2.6c0.7,0.7,1.5,1.2,2.6,1.7c1,0.4,2,0.6,3.2,0.6
		c1.2,0,2.1-0.1,3.2-0.6c1-0.5,1.9-1,2.6-1.7c0.7-0.7,1.2-1.5,1.7-2.5c0.4-1,0.6-2,0.6-3.2c0-1.2-0.2-2.2-0.6-3.2
		C84.2,228.7,83.6,227.9,82.9,227.2z M82.2,233.2c0,0.8-0.1,1.5-0.4,2.1c-0.3,0.6-0.6,1.2-1.1,1.6c-0.5,0.5-1,0.8-1.6,1.1
		c-0.6,0.2-1.2,0.4-2,0.4c-0.8,0-1.5-0.2-2-0.4c-0.6-0.3-1.2-0.6-1.6-1.1c-0.5-0.5-0.8-1-1.1-1.6c-0.3-0.6-0.4-1.2-0.4-2.1
		c0-0.9,0.1-1.6,0.4-2.2c0.3-0.6,0.6-1.2,1.1-1.6c0.5-0.5,1-0.8,1.6-1.1c0.6-0.2,1.2-0.4,2-0.4s1.4,0.1,2,0.4
		c0.6,0.3,1.2,0.6,1.6,1.1c0.5,0.5,0.8,1,1.1,1.6C82.1,231.7,82.2,232.4,82.2,233.2z"/>
	<path d="M109.9,227.2c-0.7-0.7-1.5-1.2-2.6-1.7c-1.9-0.9-4.5-0.8-6.4,0c-1.1,0.5-2,1-2.6,1.7c-0.6,0.7-1.2,1.6-1.6,2.5
		c-0.4,1-0.6,2-0.6,3.2c0,1.2,0.2,2.2,0.6,3.2c0.3,1,0.9,1.8,1.6,2.6c0.7,0.7,1.5,1.2,2.6,1.7c1,0.4,2,0.6,3.2,0.6
		c0.9,0,2.1-0.1,3.2-0.6c1-0.5,1.9-1,2.6-1.7c0.7-0.7,1.2-1.5,1.7-2.5c0.4-1,0.6-2,0.6-3.2c0-1.2-0.2-2.2-0.6-3.2
		C111.2,228.7,110.6,227.9,109.9,227.2z M109.2,233.2c0,0.8-0.1,1.5-0.4,2.1c-0.3,0.6-0.6,1.2-1.1,1.6c-0.5,0.5-1,0.8-1.6,1.1
		c-0.6,0.2-1.2,0.4-2,0.4c-0.8,0-1.5-0.2-2-0.4c-0.6-0.3-1.2-0.6-1.6-1.1c-0.5-0.5-0.8-1-1.1-1.6c-0.3-0.6-0.4-1.2-0.4-2.1
		c0-0.9,0.1-1.6,0.4-2.2c0.3-0.6,0.6-1.2,1.1-1.6c0.5-0.5,1-0.8,1.6-1.1c0.6-0.2,1.2-0.4,2-0.4s1.4,0.1,2,0.4
		c0.6,0.3,1.2,0.6,1.6,1.1c0.5,0.5,0.8,1,1.1,1.6C109.1,231.7,109.2,232.4,109.2,233.2z"/>
	<polygon points="120.9,228 127,228 127,240.8 129.8,240.8 129.8,228 135.8,228 135.8,225.5 120.9,225.5 	"/>
	<polygon points="157.8,235.2 154.6,225.3 152.3,225.3 149,235.3 145.8,225.3 143,225.3 148,240.7 150,240.7 153.5,230.2 
		156.9,240.7 158.8,240.7 163.8,225.3 161.1,225.3 	"/>
	<polygon points="177.5,233.8 183.2,233.8 183.2,231.2 177.5,231.2 177.5,228 187,228 187,225.3 174.8,225.3 174.8,240.5 
		187.7,240.5 187.7,238 177.5,238 	"/>
	<path d="M204.4,225.3l-7.4,15.3h3l1.9-3.9h7.3l1.9,3.9h3l-7.6-15.3H204.4z M207.8,234.2h-4.7l2.3-4.8L207.8,234.2z"/>
	<path d="M235.6,234.1c0.3-0.1,0.6-0.2,0.8-0.3c0.6-0.3,1-0.7,1.3-1.1c0.3-0.4,0.5-0.9,0.7-1.3l0-0.1c0.1-0.6,0.2-1.1,0.2-1.5
		c0-1.4-0.5-2.5-1.4-3.3c-0.9-0.8-2.1-1.1-3.6-1.1H225v15.2h2.8v-6.3h4.8l3.6,6.3h3.2L235.6,234.1z M227.8,228h5.9
		c0.8,0,1.3,0.1,1.6,0.5c0.4,0.4,0.6,0.8,0.6,1.4c0,0.8-0.2,1.8-2.2,1.8h-5.9V228z"/>
</g>
</svg>
