<?xml version="1.0" encoding="utf-8"?>
<!-- Generator: Adobe Illustrator 21.1.0, SVG Export Plug-In . SVG Version: 6.00 Build 0)  -->
<svg version="1.1" id="Layer_1" xmlns="http://www.w3.org/2000/svg" xmlns:xlink="http://www.w3.org/1999/xlink" x="0px" y="0px"
	 viewBox="0 0 288 288" style="enable-background:new 0 0 288 288;" xml:space="preserve">
<style type="text/css">
	.st0{fill-opacity:0;}
</style>
<rect x="0.4" y="0.4" class="st0" width="287.3" height="287.3"/>
<g>
	<g>
		<path d="M122.1,65.3C117,53.5,104,52.6,97.6,52.6s-10.5,0-20.2,0c5,1.2,15.3,6.4,21.1,19.5l44.3,103.3l11.1-20.2
			c2.9-6,3.3-7.6,0.8-14.4C154.7,140.9,131.5,86.8,122.1,65.3z M169.3,65.3c-5.1-11.8-18.2-12.7-24.5-12.7c-6.4,0-10.5,0-20.2,0
			c5,1.2,15.3,6.4,21.1,19.5l34.7,82l11.1-20.2c2.9-6,3.3-7.6,0.8-14.4L169.3,65.3z M95,114l-6.8,34.9c0,0,10.3,0,26.1,0
			C109.2,147.4,93.6,128,95,114z M210.8,52.9c0,0-14.6,0-30.4,0c3.1,1.2,16,13.2,13.6,30L210.8,52.9z"/>
	</g>
</g>
<g>
	<polygon points="70.2,206.1 64.7,197.8 62.1,197.8 62.1,213 65,213 65,203 70.1,210.7 75.4,203 75.4,213 78.1,213 78.1,197.8 
		75.8,197.8 	"/>
	<polygon points="94.4,206.2 100,206.2 100,203.5 94.4,203.5 94.4,200.3 103.9,200.3 103.9,197.8 91.5,197.8 91.5,213 104.5,213 
		104.5,210.3 94.4,210.3 	"/>
	<polygon points="126.5,207.6 117.9,197.8 116.2,197.8 116.2,213 119,213 119,203.2 127.6,213 129.2,213 129.2,197.8 126.5,197.8 	
		"/>
	<polygon points="155,207.6 151.8,197.8 149.5,197.8 146.2,207.7 143,197.8 140.2,197.8 145.1,213 147.1,213 150.5,202.6 154,213 
		156,213 161,197.8 158.3,197.8 	"/>
	<rect x="172" y="197.7" width="2.8" height="15.5"/>
	<polygon points="184.7,200.5 190.7,200.5 190.7,213.2 193.5,213.2 193.5,200.5 199.5,200.5 199.5,197.8 184.7,197.8 	"/>
	<polygon points="219.7,197.8 219.7,203.5 212.2,203.5 212.2,197.8 209.3,197.8 209.3,213 212.2,213 212.2,206 219.7,206 219.7,213 
		222.5,213 222.5,197.8 	"/>
	<polygon points="96,231 88.5,231 88.5,225.3 85.8,225.3 85.8,240.7 88.5,240.7 88.5,233.7 96,233.7 96,240.7 98.9,240.7 
		98.9,225.3 96,225.3 	"/>
	<polygon points="115,233.8 120.8,233.8 120.8,231.2 115,231.2 115,228 124.5,228 124.5,225.3 112.2,225.3 112.2,240.5 125.1,240.5 
		125.1,238 115,238 	"/>
	<path d="M141.9,225.3l-7.4,15.3h3l1.9-3.9h7.3l1.9,3.9h3l-7.6-15.3H141.9z M145.3,234.2h-4.7l2.3-4.8L145.3,234.2z"/>
	<polygon points="165.5,225.3 163.2,225.3 163.2,225.8 162.8,225.8 162.8,240.7 174.8,240.7 174.8,238 165.5,238 	"/>
	<polygon points="196.3,231 188.8,231 188.8,225.3 186,225.3 186,240.7 188.8,240.7 188.8,233.7 196.3,233.7 196.3,240.7 
		199.2,240.7 199.2,225.3 196.3,225.3 	"/>
</g>
</svg>
