<?xml version="1.0" encoding="utf-8"?>
<!-- Generator: Adobe Illustrator 21.1.0, SVG Export Plug-In . SVG Version: 6.00 Build 0)  -->
<svg version="1.1" id="Layer_1" xmlns="http://www.w3.org/2000/svg" xmlns:xlink="http://www.w3.org/1999/xlink" x="0px" y="0px"
	 viewBox="0 0 288 288" style="enable-background:new 0 0 288 288;" xml:space="preserve">
<style type="text/css">
	.st0{fill-opacity:0;}
</style>
<rect x="0.4" y="0.4" class="st0" width="287.3" height="287.3"/>
<g>
	<g>
		<path d="M122.1,65.3c-5.1-11.8-18.2-12.7-24.5-12.7c-6.4,0-10.5,0-20.2,0c5,1.2,15.3,6.4,21.1,19.5l44.3,103.3l11.1-20.2
			c2.9-6,3.3-7.6,0.8-14.4C154.7,140.9,131.5,86.9,122.1,65.3z M169.3,65.3c-5.1-11.8-18.2-12.7-24.5-12.7c-6.4,0-10.5,0-20.2,0
			c5,1.2,15.3,6.4,21.1,19.5l34.7,82l11.1-20.2c2.9-6,3.3-7.6,0.8-14.4L169.3,65.3z M95,114.1L88.2,149c0,0,10.3,0,26.1,0
			C109.2,147.5,93.6,128.1,95,114.1z M210.8,53c0,0-14.6,0-30.4,0c3.1,1.2,16,13.2,13.6,30L210.8,53z"/>
	</g>
</g>
<g>
	<polygon points="70.2,206.2 64.7,197.8 62.4,197.8 62.4,213.2 65.1,213.2 65.1,203.1 70.4,210.8 75.5,203.1 75.5,213.2 78.1,213.2 
		78.1,197.8 75.8,197.8 	"/>
	<polygon points="94.4,206.2 100,206.2 100,203.7 94.4,203.7 94.4,200.5 103.9,200.5 103.9,197.8 91.5,197.8 91.5,213 104.5,213 
		104.5,210.5 94.4,210.5 	"/>
	<polygon points="129.2,213.2 129.2,197.8 126.5,197.8 126.5,207.7 117.9,197.8 116.2,197.8 116.2,213.2 119,213.2 119,203.3 
		127.6,213.2 	"/>
	<polygon points="155,207.7 151.8,197.8 149.5,197.8 146.2,207.8 143,197.8 140.2,197.8 145.1,213.2 147.1,213.2 150.5,202.7 
		154,213.2 156,213.2 161,197.8 158.3,197.8 	"/>
	<rect x="172" y="197.8" width="2.8" height="15.5"/>
	<polygon points="193.5,213.2 193.5,200.5 199.5,200.5 199.5,197.8 184.7,197.8 184.7,200.5 190.8,200.5 190.8,213.2 	"/>
	<polygon points="219.5,213.2 222.5,213.2 222.5,197.8 219.7,197.8 219.7,203.5 212.2,203.5 212.2,197.8 209.2,197.8 209.2,213.2 
		212,213.2 212,206.2 219.5,206.2 	"/>
	<path d="M67,235.4c-0.7,1.1-1.3,1.8-2,2.2c-0.9,0.5-1.8,0.7-2.8,0.7c-0.8,0-1.4-0.1-2-0.4c-0.6-0.3-1.2-0.6-1.6-1.1
		c-0.5-0.5-0.8-1-1.1-1.6c-0.3-0.6-0.4-1.2-0.4-2.1c0-0.9,0.1-1.6,0.4-2.2c0.3-0.6,0.6-1.2,1.1-1.6c0.5-0.5,1-0.8,1.6-1.1
		c0.6-0.2,1.2-0.4,2-0.4c1,0,1.9,0.2,2.6,0.6c0.8,0.5,1.4,1,1.8,1.8l0.3,0.5l2.3-1.8l-0.2-0.4c-0.6-1.1-1.5-2-2.8-2.7
		c-1.2-0.6-2.5-1-3.8-1c-1.2,0-2.2,0.2-3.2,0.6c-1,0.4-1.8,0.9-2.6,1.7c-0.6,0.7-1.2,1.6-1.6,2.5c-0.4,1-0.6,2-0.6,3.2
		c0,1.2,0.3,2.3,0.6,3.2c0.3,1,0.9,1.8,1.6,2.6c0.7,0.7,1.5,1.2,2.6,1.7c1,0.4,2,0.6,3.2,0.6c1.7,0,3-0.4,4.2-1.1
		c1.3-0.8,2.2-1.8,2.9-3.1l0.2-0.4l-2.3-1.7L67,235.4z"/>
	<path d="M91.5,235.2c0,0.6,0,1.3-0.1,1.6c-0.2,0.4-0.4,0.7-0.6,1c-0.2,0.2-0.6,0.4-1,0.5c-1.3,0.3-2.5,0.3-3.8,0
		c-0.5-0.1-0.8-0.2-1-0.5l-0.1-0.1c-0.2-0.1-0.3-0.4-0.4-0.8c-0.1-0.3-0.1-0.7-0.2-1.2h0.2v-10.3h-2.8v10.3c0,1.9,0.5,3.2,1.6,4.2
		c1,0.9,2.6,1.3,4.8,1.3c2.2,0,3.8-0.4,4.8-1.3c1.1-0.9,1.6-2.3,1.6-4.2v-10.3h-2.8V235.2z"/>
	<rect x="107.2" y="225.3" width="2.8" height="15.5"/>
	<path d="M132,231.2c-0.3,0-0.7,0-1-0.1c-0.3,0-0.6,0-0.9,0c-0.6,0-1.1,0-1.6-0.1c-0.5,0-1-0.1-1.3-0.2c-0.3-0.1-0.6-0.2-0.9-0.4
		c-0.4-0.3-0.5-0.6-0.5-0.9c0-0.3,0.1-0.8,0.8-1.2c0.6-0.4,1.3-0.6,2.4-0.6c1.9,0,3.7,0.7,5.5,2.1l0.4,0.3l1.6-2.4l-0.4-0.3
		c-1.1-0.8-2.3-1.4-3.4-1.8c-1.2-0.4-2.5-0.6-3.8-0.6c-0.9,0-1.7,0.1-2.5,0.3l-0.4,0.2c-0.5,0.2-1.1,0.4-1.5,0.8
		c-0.6,0.5-0.9,1-1.2,1.4c-0.4,0.6-0.5,1.4-0.5,1.8c0,1.6,0.7,2.7,2.3,3.4c0.4,0.2,0.9,0.3,1.3,0.4c0.2,0.1,0.5,0.1,0.8,0.1
		c0.2,0,0.4,0,0.8,0.1c0.2,0,0.5,0,0.8,0c0.8,0.1,1.6,0,2.5,0.1c1,0.1,1.7,0.3,2.2,0.8c0.5,0.5,0.7,0.8,0.7,1.3c0,0.3-0.1,0.6-0.2,1
		c-0.1,0.3-0.4,0.5-0.7,0.8c-0.4,0.2-0.9,0.4-1.3,0.6c-0.6,0.1-1.2,0.2-1.8,0.2c-1,0-2-0.2-3-0.6c-1.1-0.4-2.1-1-3.1-1.7l-0.5-0.4
		l-1.1,2.4l0.3,0.2c1,0.9,2.3,1.5,3.7,2c1.4,0.4,2.7,0.6,4.1,0.6c1.1,0,2-0.2,2.9-0.4c0.9-0.3,1.6-0.6,2.2-1.1c0.5-0.5,1-1,1.3-1.6
		c0.3-0.6,0.5-1.3,0.5-2c0-1.2-0.4-2.2-1.4-3.2C135,231.9,133.7,231.4,132,231.2z"/>
	<rect x="149.5" y="225.3" width="2.8" height="15.5"/>
	<polygon points="176,235.3 167.4,225.5 165.8,225.5 165.8,240.8 168.5,240.8 168.5,230.9 177.1,240.8 178.8,240.8 178.8,225.5 
		176,225.5 	"/>
	<polygon points="195,233.8 200.7,233.8 200.7,231.2 195,231.2 195,228 204.5,228 204.5,225.5 192.2,225.5 192.2,240.7 205,240.7 
		205,238 195,238 	"/>
	<path d="M229.2,232.7c-0.9-0.8-2.2-1.3-3.8-1.5c-0.3,0-0.7,0-1-0.1c-0.3,0-0.6,0-0.9,0c-0.6,0-1.1,0-1.6-0.1c-0.5,0-1-0.1-1.3-0.2
		c-0.3-0.1-0.6-0.2-0.9-0.4c-0.4-0.3-0.5-0.6-0.5-0.9c0-0.3,0.1-0.8,0.8-1.2c0.6-0.4,1.3-0.6,2.4-0.6c1.9,0,3.7,0.7,5.5,2.1l0.4,0.3
		l1.6-2.4l-0.4-0.3c-1.1-0.8-2.3-1.4-3.4-1.8c-1.2-0.4-2.5-0.6-3.8-0.6c-0.9,0-1.7,0.1-2.5,0.3l-0.4,0.2c-0.5,0.2-1.1,0.4-1.5,0.8
		c-0.6,0.5-0.9,1-1.2,1.4c-0.4,0.6-0.5,1.4-0.5,1.8c0,1.6,0.7,2.7,2.3,3.4c0.4,0.2,0.9,0.3,1.3,0.4c0.2,0.1,0.5,0.1,0.8,0.1
		c0.2,0,0.4,0,0.8,0.1c0.2,0,0.5,0,0.8,0c0.8,0.1,1.6,0,2.5,0.1c1,0.1,1.7,0.3,2.2,0.8c0.5,0.5,0.7,0.8,0.7,1.3c0,0.3-0.1,0.6-0.2,1
		c-0.1,0.3-0.4,0.5-0.7,0.8c-0.4,0.2-0.9,0.4-1.3,0.6c-0.6,0.1-1.2,0.2-1.8,0.2c-1,0-2-0.2-3-0.6c-1.1-0.4-2.1-1-3.1-1.7l-0.5-0.4
		l-1.1,2.4l0.3,0.2c1,0.9,2.3,1.5,3.7,2c1.4,0.4,2.7,0.6,4.1,0.6c1.1,0,2-0.2,2.9-0.4c0.9-0.3,1.6-0.6,2.2-1.1c0.5-0.5,1-1,1.3-1.6
		c0.3-0.6,0.5-1.3,0.5-2C230.5,234.6,230.1,233.6,229.2,232.7z"/>
</g>
</svg>
