<?xml version="1.0" encoding="utf-8"?>
<!-- Generator: Adobe Illustrator 21.1.0, SVG Export Plug-In . SVG Version: 6.00 Build 0)  -->
<svg version="1.1" id="Layer_1" xmlns="http://www.w3.org/2000/svg" xmlns:xlink="http://www.w3.org/1999/xlink" x="0px" y="0px"
	 viewBox="0 0 288 288" style="enable-background:new 0 0 288 288;" xml:space="preserve">
<style type="text/css">
	.st0{fill-opacity:0;}
</style>
<rect x="0.4" y="0.4" class="st0" width="287.3" height="287.3"/>
<g>
	<g>
		<path d="M122.1,65.3c-5.1-11.8-18.2-12.7-24.5-12.7c-6.4,0-10.5,0-20.2,0c5,1.2,15.3,6.4,21.1,19.5l44.3,103.3l11.1-20.2
			c2.9-6,3.3-7.6,0.8-14.4C154.7,140.9,131.5,86.9,122.1,65.3z M169.3,65.3c-5.1-11.8-18.2-12.7-24.5-12.7c-6.4,0-10.5,0-20.2,0
			c5,1.2,15.3,6.4,21.1,19.5l34.7,82l11.1-20.2c2.9-6,3.3-7.6,0.8-14.4L169.3,65.3z M95,114.1L88.2,149c0,0,10.3,0,26.1,0
			C109.2,147.5,93.6,128.1,95,114.1z M210.8,53c0,0-14.6,0-30.4,0c3.1,1.2,16,13.2,13.6,30L210.8,53z"/>
	</g>
</g>
<g>
	<polygon points="70.2,206.2 64.7,197.8 62.4,197.8 62.4,213.2 65.1,213.2 65.1,203.1 70.4,210.8 75.5,203.1 75.5,213.2 78.1,213.2 
		78.1,197.8 75.8,197.8 	"/>
	<polygon points="94.4,206.2 100,206.2 100,203.7 94.4,203.7 94.4,200.5 103.9,200.5 103.9,197.8 91.5,197.8 91.5,213 104.5,213 
		104.5,210.5 94.4,210.5 	"/>
	<polygon points="126.5,207.7 117.9,197.8 116.2,197.8 116.2,213.2 119,213.2 119,203.3 127.6,213.2 129.2,213.2 129.2,197.8 
		126.5,197.8 	"/>
	<polygon points="158.3,197.8 155,207.7 151.8,197.8 149.5,197.8 146.2,207.8 143,197.8 140.2,197.8 145.1,213.2 147.1,213.2 
		150.5,202.7 154,213.2 156,213.2 161,197.8 	"/>
	<rect x="172" y="197.8" width="2.8" height="15.5"/>
	<polygon points="190.8,213.2 193.5,213.2 193.5,200.5 199.5,200.5 199.5,197.8 184.7,197.8 184.7,200.5 190.8,200.5 	"/>
	<polygon points="219.5,213.2 222.5,213.2 222.5,197.8 219.7,197.8 219.7,203.5 212.2,203.5 212.2,197.8 209.2,197.8 209.2,213.2 
		212,213.2 212,206.2 219.5,206.2 	"/>
	<polygon points="64.1,233.8 69.9,233.8 69.9,231.2 64.1,231.2 64.1,228 73.6,228 73.6,225.5 61.4,225.5 61.4,240.7 74.2,240.7 
		74.2,238 64.1,238 	"/>
	<polygon points="99.6,225.5 96.1,225.5 91.6,230.9 87.2,225.5 83.7,225.5 89.9,233 83.6,240.8 87,240.8 91.5,235.1 96.1,240.8 
		99.7,240.8 93.4,233 	"/>
	<path d="M119.4,225.5h-8.7v15.3h2.8v-6.3h6.2c0.8,0,1.4-0.1,2-0.3c0.5-0.2,1-0.5,1.5-1.1c0.3-0.4,0.6-0.8,0.9-1.4
		c0.2-0.5,0.3-1.2,0.3-1.9c0-1.3-0.4-2.4-1.4-3.2C122.1,225.8,120.9,225.5,119.4,225.5z M121.5,230c0,0.8-0.2,1.8-2.2,1.8h-5.9v-3.7
		h5.9c0.8,0,1.3,0.1,1.6,0.5C121.3,229,121.5,229.4,121.5,230z"/>
	<polygon points="139.2,225.5 137,225.5 137,226 136.5,226 136.5,240.8 148.7,240.8 148.7,238.2 139.2,238.2 	"/>
	<path d="M171.8,227.3c-0.7-0.7-1.5-1.2-2.6-1.7c-1.9-0.9-4.5-0.8-6.4,0c-1,0.4-1.8,0.9-2.6,1.7c-0.6,0.7-1.2,1.6-1.6,2.5
		c-0.4,1-0.6,2-0.6,3.2c0,1.2,0.3,2.3,0.6,3.2c0.3,1,0.9,1.8,1.6,2.6c0.7,0.7,1.5,1.2,2.5,1.7c1,0.4,2,0.6,3.2,0.6
		c1.2,0,2.2-0.2,3.2-0.6c1-0.5,1.9-1,2.6-1.7s1.2-1.5,1.7-2.6c0.4-1,0.6-2,0.6-3.2c0-1.2-0.2-2.2-0.6-3.2
		C173.1,228.8,172.5,228,171.8,227.3z M171.2,233.2c0,0.8-0.1,1.5-0.4,2.1c-0.3,0.6-0.6,1.2-1.1,1.6s-1,0.8-1.6,1.1
		c-0.6,0.2-1.2,0.4-2,0.4s-1.4-0.1-2-0.4c-0.6-0.3-1.2-0.6-1.6-1.1s-0.8-1-1.1-1.6c-0.3-0.6-0.4-1.2-0.4-2.1c0-0.9,0.1-1.6,0.4-2.2
		c0.3-0.6,0.6-1.2,1.1-1.6s1-0.8,1.6-1.1c0.6-0.2,1.2-0.4,2-0.4s1.4,0.1,2,0.4c0.6,0.3,1.2,0.6,1.6,1.1c0.5,0.5,0.8,1,1.1,1.6
		C171,231.7,171.2,232.4,171.2,233.2z"/>
	<path d="M197.6,233.8c0.6-0.3,1-0.7,1.3-1.1c0.3-0.4,0.7-0.9,0.8-1.4c0.1-0.4,0.2-0.9,0.2-1.5c0-1.4-0.5-2.5-1.4-3.3
		c-0.9-0.8-2.1-1.1-3.6-1.1h-8.8v15.4h2.8v-6.3h4.8l3.6,6.1h3.1l-3.7-6.5C197.1,234,197.4,233.9,197.6,233.8z M197,230
		c0,0.8-0.2,1.8-2.2,1.8H189v-3.7h5.9c0.8,0,1.3,0.1,1.6,0.5C196.9,229,197,229.4,197,230z"/>
	<polygon points="215,238 215,233.8 220.8,233.8 220.8,231.2 215,231.2 215,228 224.5,228 224.5,225.5 212.2,225.5 212.2,240.7 
		225.2,240.7 225.2,238 	"/>
</g>
</svg>
