<?xml version="1.0" encoding="UTF-8"?>
<svg width="26px" height="27px" viewBox="0 0 26 27" version="1.1" xmlns="http://www.w3.org/2000/svg" xmlns:xlink="http://www.w3.org/1999/xlink">
    <!-- Generator: Sketch 52.5 (67469) - http://www.bohemiancoding.com/sketch -->
    <title>Needle</title>
    <desc>Created with Sketch.</desc>
    <defs>
        <polygon id="path-1" points="7.87878789e-06 1.54727794e-05 25.9716442 1.54727794e-05 25.9716442 26.9846046 7.87878789e-06 26.9846046"></polygon>
    </defs>
    <g id="Design" stroke="none" stroke-width="1" fill="none" fill-rule="evenodd">
        <g id="Resteröd" transform="translate(-510.000000, -153.000000)">
            <g id="Needle" transform="translate(510.000000, 153.000000)">
                <mask id="mask-2" fill="white">
                    <use xlink:href="#path-1"></use>
                </mask>
                <g id="Clip-2"></g>
                <path d="M23.6819109,22.9087805 L17.4407291,22.9087805 L24.711117,21.3367461 L24.711117,21.8984854 C24.711117,22.4555054 24.24942,22.9087805 23.6819109,22.9087805 Z M17.7614745,25.0039496 L22.7041533,25.0039496 L22.7041533,24.1466029 L17.7614745,24.1466029 L17.7614745,25.0039496 Z M16.7834018,3.33300688 L23.6819109,3.33300688 C23.8601291,3.33300688 24.0275533,3.37772321 24.1737048,3.45601547 L15.7545109,5.27677479 L15.7545109,4.34330201 C15.7545109,3.78628195 16.2161291,3.33300688 16.7834018,3.33300688 Z M17.7614745,2.09518453 L22.7041533,2.09518453 L22.7041533,1.23783782 L17.7614745,1.23783782 L17.7614745,2.09518453 Z M24.711117,5.72981777 L15.7545109,7.66662292 L15.7545109,6.54422751 L24.711117,4.60742235 L24.711117,5.72981777 Z M24.711117,8.11958854 L15.7545109,10.0563937 L15.7545109,8.93399828 L24.711117,6.99719312 L24.711117,8.11958854 Z M24.711117,10.5094367 L15.7545109,12.4462418 L15.7545109,11.3238464 L24.711117,9.38704126 L24.711117,10.5094367 Z M24.711117,12.8995169 L15.7545109,14.8363221 L15.7545109,13.714004 L24.711117,11.7771215 L24.711117,12.8995169 Z M24.711117,15.289365 L15.7545109,17.2261702 L15.7545109,16.1037748 L24.711117,14.1669696 L24.711117,15.289365 Z M24.711117,17.6791358 L15.7545109,19.615941 L15.7545109,18.4936229 L24.711117,16.5568178 L24.711117,17.6791358 Z M24.711117,20.068984 L15.7603412,22.0045513 C15.7566382,21.9695054 15.7545109,21.9341501 15.7545109,21.8984854 L15.7545109,20.8833937 L24.711117,18.9465885 L24.711117,20.068984 Z M4.09697758,20.0526602 C3.60857152,20.0526602 3.14939576,19.8662132 2.80438364,19.5271272 C2.45905636,19.1883507 2.26917758,18.7374739 2.26917758,18.2578951 C2.26917758,17.2681788 3.08904424,16.4631301 4.09697758,16.4631301 L4.54819576,16.4631301 L4.86358364,20.0526602 L4.09697758,20.0526602 Z M4.76943212,4.5798808 L5.42069273,4.5798808 L5.42069273,5.44627908 C5.42069273,5.78838223 5.70291091,6.06519026 6.05099576,6.06519026 C6.39908061,6.06519026 6.68129879,5.78838223 6.68129879,5.44627908 L6.68129879,2.84708424 C6.68129879,2.50529054 6.39908061,2.22817307 6.05099576,2.22817307 C5.70291091,2.22817307 5.42069273,2.50529054 5.42069273,2.84708424 L5.42069273,3.34205845 L4.66078364,3.34205845 L4.63092303,3.00513868 C4.59617758,2.60980917 4.72759576,2.23119026 5.00091091,1.93867736 C5.27391091,1.64639656 5.64689273,1.48532493 6.05099576,1.48532493 C6.45509879,1.48532493 6.82808061,1.64639656 7.10108061,1.93867736 C7.37408061,2.23119026 7.50549879,2.60980917 7.47067455,3.00513868 L6.3971897,15.2253077 L5.70472303,15.2253077 L4.76943212,4.5798808 Z M3.52978364,9.03619599 C2.92374727,9.03619599 2.35379576,8.80441375 1.92542606,8.38401834 C1.49666242,7.96277192 1.26061394,7.40304413 1.26061394,6.8080384 C1.26061394,5.58777765 2.26484424,4.59411576 3.50425636,4.58049971 L3.89567455,9.03619599 L3.52978364,9.03619599 Z M10.463117,12.749663 C10.463117,13.4102734 10.2005958,14.0318923 9.72416545,14.4997117 C9.24773515,14.9675312 8.6149897,15.2253077 7.94190485,15.2253077 L7.66244424,15.2253077 L8.09703818,10.2791244 C9.41515939,10.3580355 10.463117,11.4356372 10.463117,12.749663 Z M6.05099576,19.1650642 L5.81368667,16.4631301 L6.28822606,16.4631301 L6.05099576,19.1650642 Z M23.9647594,2.11305559 L23.9647594,0.618926648 C23.9647594,0.277132951 23.6825412,1.54727794e-05 23.3344564,1.54727794e-05 L17.1311715,1.54727794e-05 C16.7830867,1.54727794e-05 16.5008685,0.277132951 16.5008685,0.618926648 L16.5008685,2.11305559 C15.3713655,2.25022178 14.4939048,3.19762006 14.4939048,4.34330201 L14.4939048,20.0526602 L7.23832909,20.0526602 L7.55348061,16.4631301 L7.94190485,16.4631301 C8.9516503,16.4631301 9.90112303,16.0765427 10.6157291,15.3751616 C11.3300988,14.6734711 11.723723,13.7408493 11.723723,12.749663 C11.723723,10.7889524 10.1679776,9.17939656 8.20537152,9.04617593 L8.5980503,4.5762447 C10.543717,4.49772034 12.1019836,2.91957421 12.1019836,0.990350716 C12.1019836,0.64855702 11.8197655,0.371439542 11.4716806,0.371439542 C11.1232806,0.371439542 10.8413776,0.64855702 10.8413776,0.990350716 C10.8413776,2.20032206 9.90577152,3.19939943 8.70764424,3.32790086 L8.72671091,3.11151404 C8.79131697,2.37740802 8.53738364,1.64492665 8.02991091,1.10183209 C7.52267455,0.559124355 6.80129273,0.247502579 6.05099576,0.247502579 C5.30062,0.247502579 4.57923818,0.559124355 4.07176545,1.10183209 C3.56452909,1.64492665 3.31067455,2.37740802 3.37528061,3.11151404 L3.39560788,3.3453851 C1.51147455,3.41493524 7.87878789e-06,4.94101547 7.87878789e-06,6.8080384 C7.87878789e-06,7.73338797 0.367159394,8.60373181 1.03378364,9.2592361 C1.70103818,9.91350258 2.58740182,10.2740183 3.52978364,10.2740183 L4.00432303,10.2740183 L4.43954727,15.2253077 L4.09697758,15.2253077 C2.39413515,15.2253077 1.00857152,16.5858292 1.00857152,18.2578951 C1.00857152,19.0680499 1.32955333,19.8299295 1.91274121,20.4025771 C2.49600788,20.975302 3.27183212,21.2904825 4.09697758,21.2904825 L4.97223212,21.2904825 L5.42282,26.4188579 C5.45118364,26.7389123 5.7237897,26.9846201 6.05099576,26.9846201 C6.37812303,26.9846201 6.65080788,26.7389123 6.67885636,26.4188579 L7.12936545,21.2904825 L14.4939048,21.2904825 L14.4939048,21.8984854 C14.4939048,23.0438579 15.3713655,23.9915656 16.5008685,24.1288092 L16.5008685,25.6228607 C16.5008685,25.9646544 16.7830867,26.2417719 17.1311715,26.2417719 L23.3344564,26.2417719 C23.6825412,26.2417719 23.9647594,25.9646544 23.9647594,25.6228607 L23.9647594,24.1288092 C25.0942624,23.9915656 25.9716442,23.0438579 25.9716442,21.8984854 L25.9716442,4.34330201 C25.9716442,3.19762006 25.0942624,2.25022178 23.9647594,2.11305559 Z" id="Fill-1" fill="#000000" fill-rule="evenodd" mask="url(#mask-2)"></path>
            </g>
        </g>
    </g>
</svg>