<?xml version="1.0" encoding="utf-8"?>
<!-- Generator: Adobe Illustrator 21.1.0, SVG Export Plug-In . SVG Version: 6.00 Build 0)  -->
<svg version="1.1" id="Layer_1" xmlns="http://www.w3.org/2000/svg" xmlns:xlink="http://www.w3.org/1999/xlink" x="0px" y="0px"
	 viewBox="0 0 142 70" style="enable-background:new 0 0 142 70;" xml:space="preserve">
<g>
	<path d="M34.8,2.2c19.4,0,32.9,13.2,32.9,32.9S54.2,67.8,34.8,67.8C16.2,67.8,2,54.9,2,35C2,15.4,15.5,2.2,34.8,2.2z M34.8,59.2
		c13.7,0,23.9-10.3,23.9-24.1c0-13.8-10.2-24.2-23.9-24.2S11,21.3,11,35C11,48.9,21.1,59.2,34.8,59.2z M22.3,35.3
		c0-7.1,5-11.7,12.5-11.7c7.5,0,12.5,4.3,12.5,11.7c0,7.3-5.1,11.6-12.5,11.6C27.3,46.9,22.3,42.7,22.3,35.3z M38,35.3
		c0-3.1-1.1-4.7-3.2-4.7c-1.8,0-3.1,1.7-3.1,4.7c0,2.9,1.1,4.6,3.1,4.6C36.9,40,38,38.4,38,35.3z"/>
	<path d="M107.1,2.2C126.5,2.2,140,15.4,140,35s-13.5,32.8-32.9,32.8c-18.6,0-32.8-12.9-32.8-32.8C74.3,15.4,87.8,2.2,107.1,2.2z
		 M107.1,59.2c13.7,0,23.9-10.3,23.9-24.1c0-13.8-10.2-24.2-23.9-24.2S83.4,21.3,83.4,35C83.4,48.9,93.4,59.2,107.1,59.2z
		 M94.7,35.3c0-7.1,5-11.7,12.5-11.7c7.5,0,12.5,4.3,12.5,11.7c0,7.3-5.1,11.6-12.5,11.6C99.7,46.9,94.7,42.7,94.7,35.3z
		 M110.3,35.3c0-3.1-1.1-4.7-3.2-4.7c-1.8,0-3.1,1.7-3.1,4.7c0,2.9,1.1,4.6,3.1,4.6C109.2,40,110.3,38.4,110.3,35.3z"/>
</g>
</svg>
