<svg id="Layer_1" data-name="Layer 1" xmlns="http://www.w3.org/2000/svg" viewBox="0 0 60 60"><title>Opens</title><path d="M30,20.42A10.41,10.41,0,1,0,40.41,30.83,10.42,10.42,0,0,0,30,20.42Zm0,17.82a7.41,7.41,0,1,1,7.41-7.41A7.41,7.41,0,0,1,30,38.24Z"/><path d="M43.44,21.29A2.54,2.54,0,1,0,46,23.83,2.54,2.54,0,0,0,43.44,21.29Z"/><path d="M51.62,23.34a7.22,7.22,0,0,0-7.21-7.2H42.24a4.25,4.25,0,0,1-2.76-1l-1.18-1a7.19,7.19,0,0,0-4.72-1.76H26.42a7.19,7.19,0,0,0-4.72,1.76l-1.18,1a4.25,4.25,0,0,1-2.76,1H15.59a7.22,7.22,0,0,0-7.21,7.2V40.46a7.2,7.2,0,0,0,7.21,7.21H44.42a7.2,7.2,0,0,0,7.21-7.21ZM47.4,43.44a4.22,4.22,0,0,1-3,1.23H15.58a4.2,4.2,0,0,1-4.21-4.21V23.34a4.21,4.21,0,0,1,4.21-4.2h2.17a7.24,7.24,0,0,0,4.72-1.76l1.18-1a4.2,4.2,0,0,1,2.76-1h7.16a4.2,4.2,0,0,1,2.76,1l1.18,1a7.24,7.24,0,0,0,4.72,1.76h2.17a4.21,4.21,0,0,1,4.21,4.2V40.46A4.22,4.22,0,0,1,47.4,43.44Z"/></svg>