<?xml version="1.0" encoding="utf-8"?>
<!-- Generator: Adobe Illustrator 21.1.0, SVG Export Plug-In . SVG Version: 6.00 Build 0)  -->
<svg version="1.1" id="Layer_1" xmlns="http://www.w3.org/2000/svg" xmlns:xlink="http://www.w3.org/1999/xlink" x="0px" y="0px"
	 viewBox="0 0 530.8 544.8" style="enable-background:new 0 0 530.8 544.8;" xml:space="preserve">
<style type="text/css">
	.st0{fill:#0000FF;}
</style>
<g>
	<path class="st0" d="M286.3,85.7L268.9,83l11.4-72.7l25.2,3.9c8.4,1.3,15.8,5.8,20.7,12.7c4.6,6.4,6.5,14.3,5.4,21.7
		c-1.4,9.1-5.8,16.9-12.5,21.9c-6.8,5.1-15.3,7.1-24.3,5.7l-6.9-1.1L286.3,85.7z M272.2,80.6l11.7,1.8l1.7-10.6l9.8,1.5
		c16.7,2.6,30.8-8,33.5-25.3c1-6.7-0.7-13.8-4.9-19.6c-4.4-6.2-11.1-10.3-18.8-11.5l-22.4-3.5L272.2,80.6z M287.2,61.4l5.6-35.8
		l10.2,1.6c2.5,0.4,4.8,1.3,6.7,2.7c1.8,1.2,3.4,2.9,4.5,4.9c2.1,3.7,2.9,8.3,2.2,12.8c-0.8,4.9-3,9.2-6.3,11.9
		c-3.6,3-8.3,4.1-13.6,3.3L287.2,61.4z M290.5,59l6.6,1c4.4,0.7,8.3-0.2,11.3-2.7c2.9-2.3,4.7-5.9,5.3-10.1
		c1.1-7.3-2.3-15.8-11.1-17.2l-7.4-1.2L290.5,59z"/>
	<path class="st0" d="M388.5,125l-17.1-9l0.3-10.5l-28.8-15.2l-8.4,6.2l-16.3-8.6L389,38.7L388.5,125z M374.3,114.2l11.3,6l0.5-76.1
		l-62.4,43.4l10.6,5.6l8.4-6.2l31.8,16.8L374.3,114.2z M375,92.1L352,80l23.9-17.7L375,92.1z M357.4,79.5l15,7.9L373,68L357.4,79.5z
		"/>
	<path class="st0" d="M403.6,144.8l-12.5-12.3L442.7,80l12.5,12.3L403.6,144.8z M395.1,132.4l8.5,8.3l47.6-48.4l-8.5-8.3
		L395.1,132.4z"/>
	<path class="st0" d="M444.8,215.4l13.2-64.2l-34.4,18.4l-8.3-15.5L483,118l-13.6,64.3l34.6-18.5l8.3,15.5L444.8,215.4z
		 M419.2,155.3l5.6,10.5l37.3-19.9L448.9,210l59.6-31.8l-5.6-10.5l-37.5,20l13.6-64.3L419.2,155.3z"/>
	<path class="st0" d="M444.8,341.4l3-19l10-3.1l5.1-32.2l-8.6-6l2.9-18.2l69.4,51.2L444.8,341.4z M450.4,324.5l-2,12.7l72.2-24
		L459.3,268l-1.9,11.8l8.6,6l-5.7,35.6L450.4,324.5z M471.6,318.1l4.1-25.7l24.4,17L471.6,318.1z M477.8,297.3l-2.7,16.7l18.5-5.7
		L477.8,297.3z"/>
	<path class="st0" d="M435.8,356.3c3.5-2.6,7.4-4.2,11.6-4.9c7.9-1.3,16.9,0.8,25.8,6l34,20l-8.9,15.1l-36.1-21.3
		c-4.4-2.6-8.6-3.6-12.1-2.9c-3.5,0.8-6.6,3.2-9,7.3c-2.5,4.2-3.1,8.1-1.9,11.6c1.1,3.3,3.9,6.3,8.3,8.9l36.1,21.3l-8.8,15l-35-20.7
		c-4.5-2.7-8.2-5.7-11.2-9.1c-2.9-3.4-4.9-7-6.1-10.9c-2.2-7.8-1-16.3,4-24.7C429,362.5,432.2,358.9,435.8,356.3z M503.2,378.5
		l-31.5-18.6c-8.3-4.9-16.6-6.9-23.9-5.7c-3.7,0.6-7.2,2.1-10.3,4.4c-3.3,2.4-6.2,5.7-8.7,9.9c-2.3,3.8-3.7,7.8-4.3,11.6
		c-0.6,3.7-0.4,7.4,0.7,10.9c1,3.5,2.9,6.8,5.5,9.9c2.7,3.1,6.3,6,10.4,8.5l32.6,19.2l5.9-10.1L446,398.6c-5-2.9-8.2-6.5-9.6-10.4
		c-1.4-4.3-0.8-9,2.2-13.9c2.8-4.8,6.5-7.7,10.9-8.6c4.3-0.9,9,0.2,14.1,3.2l33.6,19.8L503.2,378.5z"/>
	<path class="st0" d="M365.2,445.1c4.5,2,8.5,4.6,12,8.1c3.6,3.6,6.4,7.9,8.3,12.6c1.9,4.8,3,9.8,2.9,14.8c0,4.9-1,9.7-2.8,14.2
		c-1.9,4.6-4.7,8.7-8.1,12.1c-3.6,3.6-7.7,6.4-12.5,8.4c-6.2,2.5-12.9,3.4-19.4,2.6c-6.4-0.8-12.4-3.2-17.5-6.8l-1-0.8l9.1-14.3
		l1.2,0.9c3.5,2.3,7.3,3.7,10.9,4.2s7,0,10.2-1.3c4.9-2,8.8-5.9,10.7-11c1.9-5.1,1.9-10.8-0.3-16.1c-2.2-5.3-6.1-9.3-11-11.6
		c-4.9-2.2-10.4-2.3-15.3-0.3c-4.4,1.8-8.1,5.1-10.3,9.4c-2.2,4.3-2.9,9.3-1.8,14.1l0.3,1.1l-16.4,6.7l-0.5-1.5
		c-2.5-8.8-1.6-18.4,2.5-26.9s11.2-15.1,19.9-18.7C345.6,441.1,355.9,441.2,365.2,445.1z M382.9,493.8c3.6-8.6,3.6-18.2,0-26.9
		s-10.2-15.5-18.8-19.2c-8.6-3.7-18.1-3.7-26.8-0.1c-8,3.3-14.5,9.4-18.3,17.3c-3.6,7.3-4.6,15.5-2.8,23.3l11.3-4.6
		c-0.8-5.1,0-10.3,2.4-14.8c2.5-4.8,6.6-8.7,11.7-10.7c5.7-2.3,11.9-2.2,17.6,0.4c5.6,2.6,10,7.2,12.4,13.1c2.4,6,2.5,12.4,0.3,18.2
		c-2.2,5.8-6.6,10.3-12.3,12.6c-3.7,1.5-7.6,2-11.6,1.5c-3.8-0.5-7.5-1.8-11-3.9l-6.1,9.5c4.5,3,9.7,4.9,15.1,5.5
		c6,0.7,12.2,0,17.9-2.4C372.5,509.2,379.3,502.5,382.9,493.8z"/>
	<path class="st0" d="M226.6,458.7l17.6,0.6l-1.1,31l29.6,1.1l1.1-31l17.6,0.6l-2.6,73.6l-17.6-0.6l0.9-26.5l-29.6-1.1l-0.9,26.5
		l-17.6-0.6L226.6,458.7z M241.2,462l-11.9-0.4l-2.4,67.9l11.9,0.4l0.9-26.5l35.3,1.3l-0.9,26.5l11.9,0.4l2.4-67.9l-11.9-0.4
		l-1.1,31l-35.3-1.3L241.2,462z"/>
	<path class="st0" d="M194.8,448.6c3.2,3.7,5.7,8,7.3,12.6c1.6,4.7,2.2,9.6,1.9,14.5c-0.4,5-1.7,10-4,14.6s-5.4,8.5-9.2,12
		c-3.7,3.2-8,5.6-12.7,7.2s-9.5,2.2-14.4,1.9c-5.1-0.3-10-1.6-14.6-3.9s-8.6-5.5-11.9-9.3c-3.2-3.7-5.7-7.9-7.3-12.6
		s-2.1-9.6-1.9-14.4c0.3-5.1,1.6-10,3.9-14.6c2.3-4.6,5.5-8.6,9.3-11.9c3.7-3.2,7.9-5.7,12.6-7.3c4.7-1.5,9.6-2.1,14.4-1.9
		c5.1,0.3,10,1.6,14.6,3.9S191.5,444.7,194.8,448.6z M177.2,506.8c8.9-3,16.1-9.3,20.3-17.7c4.2-8.4,4.9-17.9,1.9-26.9
		c-3-8.9-9.3-16.2-17.8-20.4c-8.4-4.2-18-4.8-26.9-1.8c-4.3,1.5-8.2,3.7-11.7,6.7s-6.4,6.8-8.6,11c-4.2,8.4-4.8,18-1.9,26.9
		c3,8.9,9.4,16.1,17.8,20.3C158.8,509.1,168.3,509.8,177.2,506.8z M188.1,465.4c1.8,5.9,1.3,12.4-1.6,18.2
		c-2.8,5.7-7.7,10.1-13.4,12.2c-5.9,2.1-12.2,1.8-17.8-1c-5.5-2.8-9.6-7.5-11.5-13.6c-1.8-6-1.3-12.4,1.6-18.1
		c2.9-5.8,7.7-10.2,13.5-12.3c5.8-2.1,12.1-1.7,17.6,1C182.2,454.7,186.3,459.5,188.1,465.4z M172.1,493.1
		c5.1-1.8,9.3-5.7,11.8-10.8c2.6-5.2,3.1-10.9,1.5-16c-1.7-5.2-5.2-9.4-10.1-11.8c-4.8-2.4-10.3-2.7-15.4-0.9
		c-5.1,1.8-9.4,5.7-12,10.8c-2.5,5-3,10.7-1.4,16s5.2,9.5,10,11.9C161.5,494.7,166.9,495,172.1,493.1z"/>
	<path class="st0" d="M128.2,416.5c-0.6,4.9-2,9.5-4.4,13.8c-2.4,4.5-5.7,8.3-9.7,11.5s-8.5,5.6-13.4,6.9c-4.7,1.4-9.6,1.8-14.4,1.3
		c-4.9-0.6-9.6-2-13.9-4.3c-4.5-2.4-8.4-5.6-11.6-9.6c-4.2-5.2-6.9-11.4-7.9-17.9c-1-6.3-0.5-12.8,1.6-18.7l0.5-1.2l16.2,4.7
		l-0.5,1.4c-1.2,4-1.5,8-0.9,11.7c0.5,3.6,2,6.7,4.1,9.5c3.3,4.2,8.2,6.7,13.6,7.1s10.9-1.3,15.3-4.8s7.2-8.5,8-13.8
		c0.7-5.3-0.7-10.6-4-14.8c-3-3.7-7.2-6.3-12-7.2c-4.7-0.9-9.7-0.1-14,2.2l-1,0.6l-11-13.8l1.3-0.9c7.8-4.9,17.2-6.7,26.5-5.2
		c9.3,1.6,17.7,6.4,23.5,13.8C126.5,396.5,129.3,406.4,128.2,416.5z M86.5,447.2c9.3,1,18.4-1.7,25.8-7.6c7.3-5.9,12-14.2,13.1-23.5
		s-1.6-18.4-7.5-25.8c-5.4-6.8-13.1-11.3-21.8-12.6c-8-1.4-16.2,0-23.1,3.9l7.6,9.5c4.6-2.3,9.9-2.9,14.9-1.9
		c5.4,1.1,10.2,3.9,13.6,8.2c3.9,4.8,5.5,10.8,4.6,17c-0.9,6.1-4.1,11.6-9,15.6c-5,4-11.2,5.9-17.4,5.5c-6.2-0.5-11.7-3.4-15.6-8.2
		c-2.5-3.1-4-6.7-4.8-10.7c-0.6-3.8-0.4-7.7,0.6-11.7l-10.9-3.1c-1.6,5.2-1.9,10.7-1.1,16c1,6,3.5,11.7,7.3,16.5
		C68.8,441.6,77.2,446.2,86.5,447.2z"/>
	<path class="st0" d="M85.1,331.1c-0.8,4.9-2.5,9.5-5,13.7c-2.6,4.2-5.9,7.9-9.9,10.8c-4.1,2.9-8.7,5.1-13.7,6.3
		c-5,1.2-10,1.3-15.1,0.6c-4.8-0.8-9.4-2.5-13.6-5.1s-7.8-5.9-10.7-9.8c-3-4.1-5.2-8.7-6.4-13.7s-1.4-10.1-0.5-15.1
		c0.8-4.9,2.4-9.5,5-13.7s5.9-7.8,9.8-10.7c4.2-3,8.7-5.2,13.7-6.4c5-1.2,10.1-1.4,15.1-0.5c4.9,0.8,9.5,2.4,13.7,5
		c4.1,2.6,7.8,5.9,10.7,9.8c3,4.2,5.2,8.7,6.4,13.7C85.8,321,86,326.1,85.1,331.1z M29.2,355c8,4.9,17.5,6.4,26.6,4.2
		c9.1-2.2,16.9-7.8,21.8-15.8s6.4-17.6,4.2-26.7c-2.2-9.1-7.9-16.9-15.9-21.8c-3.9-2.4-8.1-3.9-12.7-4.7s-9.3-0.6-13.9,0.5
		c-9.1,2.2-16.9,7.9-21.8,15.8c-4.9,8-6.3,17.5-4.1,26.7C15.6,342.4,21.2,350.1,29.2,355z M67.9,336.8c-3.3,5.2-8.7,8.9-15,10.4
		c-6.2,1.5-12.7,0.6-18-2.4c-5.5-3.2-9.2-8.2-10.7-14.2c-1.4-6-0.4-12.2,3-17.5c3.4-5.2,8.7-8.9,14.9-10.4
		c6.3-1.5,12.7-0.6,18.1,2.5s9.1,8.2,10.5,14.2C72.3,325.4,71.3,331.6,67.9,336.8z M36.4,342.4c4.7,2.7,10.3,3.5,15.9,2.1
		s10.3-4.6,13.2-9.1c2.9-4.6,3.8-10,2.6-15.4c-1.3-5.3-4.6-9.7-9.2-12.3c-4.7-2.8-10.4-3.6-16-2.2c-5.5,1.3-10.1,4.6-13.1,9.2
		s-3.9,10-2.7,15.3C28.3,335.2,31.6,339.6,36.4,342.4z"/>
	<path class="st0" d="M83.1,222.7l-5.9,45.7l-73-9.4l2.2-17.4l57,7.3l3.6-28.3L83.1,222.7z M74.7,265.2l5.2-40l-10.4-1.3l-3.6,28.3
		l-57-7.3l-1.5,11.8L74.7,265.2z"/>
	<path class="st0" d="M119.8,148l-9.2,17l-10.5-0.4l-15.5,28.6l6.1,8.5l-8.8,16.2l-48.4-71.4L119.8,148z M108.9,162.1l6.1-11.3
		l-76.1-1.4l42.7,62.9l5.7-10.5l-6.1-8.5l17.2-31.7L108.9,162.1z M86.8,161.1L74.4,184L57,159.9L86.8,161.1z M74,178.7l8.1-14.9
		L62.7,163L74,178.7z"/>
	<path class="st0" d="M139.8,133.2l-12.5,12.4l-40.4-40.9L74.5,117l-11.4-11.5l38.2-37.7l11.4,11.5l-13.3,13L139.8,133.2z
		 M127.3,141.5l8.4-8.3L95.4,92.3l13.2-13.1l-7.3-7.4l-34.1,33.7l7.3,7.4l12.4-12.3L127.3,141.5z"/>
	<path class="st0" d="M202.9,93.8L161.2,115l-33.4-65.6L163.9,31l7.3,14.4l-20.4,10.4l4.7,9.2l23.8-12l7.3,14.3l-23.7,12.1l6.8,13.3
		l26-13.2L202.9,93.8z M162.5,111.2l36.6-18.6l-4.7-9.3l-26,13.2L159,78.1L182.7,66l-4.7-9.2l-23.7,12.1L147,54.6l20.4-10.4
		l-4.7-9.3l-31,15.8L162.5,111.2z"/>
</g>
</svg>
