<svg id="Layer_1" data-name="Layer 1" xmlns="http://www.w3.org/2000/svg" viewBox="0 0 60 60"><title>Shares</title><path d="M11.83,49.62h-.21a1.49,1.49,0,0,1-1.29-1.43c-.89-23.21,14.89-28,19.73-29V11.88a1.51,1.51,0,0,1,2.58-1.05L49.29,28a1.5,1.5,0,0,1,.42,1.08,1.48,1.48,0,0,1-.46,1.05l-17,16.21a1.51,1.51,0,0,1-1.63.29,1.49,1.49,0,0,1-.91-1.38V36.62c-3.58.13-13,1.47-16.48,12A1.49,1.49,0,0,1,11.83,49.62Zm18.77-16a6.7,6.7,0,0,1,.74,0,1.5,1.5,0,0,1,1.39,1.49v6.64L46.08,29l-13-13.45v4.9A1.5,1.5,0,0,1,31.67,22C31,22,15.89,23.43,13.59,41.48,19.13,34.19,28,33.63,30.6,33.63Zm1-13.15h0Z"/></svg>