<?xml version="1.0" encoding="utf-8"?>
<!-- Generator: Adobe Illustrator 23.0.2, SVG Export Plug-In . SVG Version: 6.00 Build 0)  -->
<svg version="1.1" id="Layer_1" xmlns="http://www.w3.org/2000/svg" xmlns:xlink="http://www.w3.org/1999/xlink" x="0px" y="0px"
	 viewBox="0 0 50 50" style="enable-background:new 0 0 50 50;" xml:space="preserve">
<style type="text/css">
	.st0{fill:#0000FF;fill-opacity:0;}
	.st1{fill:#0000FF;}
</style>
<rect class="st0" width="50" height="50"/>
<path class="st1" d="M25,5.7C14.3,5.7,5.7,14.3,5.7,25S14.3,44.3,25,44.3S44.3,35.7,44.3,25S35.7,5.7,25,5.7z M29.2,13.9
	c1.1-1.5,2.8-1.5,3.9,0c0.9,1.3,1.2,2.8,1,4.4c-0.1,1.1-0.4,2.1-1.1,3c-1.1,1.3-2.6,1.3-3.7-0.1c-0.8-1-1.1-2.2-1.1-3.2
	C28.1,16.3,28.4,15.1,29.2,13.9z M17.2,13.7c1-1.2,2.6-1.2,3.6,0c1.1,1.2,1.3,3.2,1.1,4.8c-0.2,1.2-0.4,2-1,2.8
	c-1.1,1.6-2.8,1.6-3.9,0c-0.7-1.2-1-2.4-1-3.6C15.9,16,16.2,14.8,17.2,13.7z M25,39.2c-7.9,0-14.2-6.4-14.2-14.2
	c0-0.8,0.7-1.5,1.5-1.5s1.5,0.7,1.5,1.5c0,6.2,5,11.2,11.2,11.2s11.2-5,11.2-11.2c0-0.8,0.7-1.5,1.5-1.5s1.5,0.7,1.5,1.5
	C39.2,32.9,32.9,39.2,25,39.2z"/>
</svg>
