<?xml version="1.0" encoding="UTF-8"?>
<svg width="234px" height="155px" viewBox="0 0 234 155" version="1.1" xmlns="http://www.w3.org/2000/svg" xmlns:xlink="http://www.w3.org/1999/xlink">
    <!-- Generator: Sketch 52.2 (67145) - http://www.bohemiancoding.com/sketch -->
    <title>WhyNot</title>
    <desc>Created with Sketch.</desc>
    <defs>
        <polygon id="path-1" points="0.8409 0.9252 71.1589 0.9252 71.1589 69 0.8409 69"></polygon>
        <polygon id="path-3" points="0.5311 0.6944 66.274 0.6944 66.274 65.3594 0.5311 65.3594"></polygon>
        <polygon id="path-5" points="0 0.6944 93.4758 0.6944 93.4758 65.3594 0 65.3594"></polygon>
    </defs>
    <g id="WhyNot" stroke="none" stroke-width="1" fill="none" fill-rule="evenodd">
        <polygon id="Fill-1" fill="#0000FF" points="52.3615 128.3334 27.6975 88.2114 27.5285 87.9374 9.1375 87.9374 9.1375 152.6024 25.1865 152.6024 24.8365 112.1124 49.7595 152.6024 68.0615 152.6024 68.0615 87.9374 52.0115 87.9374"></polygon>
        <polygon id="Fill-2" fill="#0000FF" points="158.4807 102.1869 176.4217 102.1869 176.4217 152.6019 192.9147 152.6019 192.9147 102.1869 210.8567 102.1869 210.8567 87.9369 158.4807 87.9369"></polygon>
        <g id="Group-5" transform="translate(81.000000, 85.306000)">
            <mask id="mask-2" fill="white">
                <use xlink:href="#path-1"></use>
            </mask>
            <g id="Clip-4"></g>
            <path d="M68.5119,20.6992 C66.7519,16.5462 64.2769,12.9642 61.1529,10.0512 C58.0319,7.1412 54.2689,4.8682 49.9689,3.2932 C45.6749,1.7212 40.9599,0.9252 35.9549,0.9252 C30.9489,0.9252 26.2479,1.7212 21.9869,3.2942 C17.7149,4.8692 13.9689,7.1422 10.8489,10.0512 C7.7239,12.9622 5.2469,16.5452 3.4889,20.6992 C1.7329,24.8452 0.8409,29.5532 0.8409,34.6942 C0.8409,39.7732 1.7329,44.4812 3.4879,48.6852 C5.2439,52.8972 7.7189,56.5532 10.8409,59.5542 C13.9629,62.5542 17.7099,64.9052 21.9799,66.5402 C26.2419,68.1722 30.9449,69.0002 35.9549,69.0002 C40.9649,69.0002 45.6819,68.1732 49.9759,66.5402 C54.2739,64.9062 58.0349,62.5552 61.1589,59.5542 C64.2829,56.5522 66.7559,52.8942 68.5129,48.6852 C70.2689,44.4762 71.1589,39.7682 71.1589,34.6942 C71.1589,29.5582 70.2689,24.8492 68.5119,20.6992 M52.2799,42.4312 L52.2799,42.4322 C51.4129,44.7732 50.1859,46.8052 48.6299,48.4742 C47.0779,50.1422 45.2089,51.4702 43.0759,52.4222 C40.9489,53.3712 38.5529,53.8522 35.9549,53.8522 C33.3579,53.8522 30.9609,53.3722 28.8339,52.4222 C26.7019,51.4712 24.8509,50.1452 23.3279,48.4782 C21.8019,46.8082 20.5879,44.7752 19.7219,42.4312 C18.8519,40.0862 18.4109,37.4832 18.4109,34.6942 C18.4109,32.0222 18.8369,29.4932 19.6779,27.1752 C20.5129,24.8702 21.7239,22.8702 23.2769,21.2292 C24.8309,19.5892 26.7009,18.2742 28.8339,17.3232 C30.9609,16.3752 33.3579,15.8932 35.9549,15.8932 C38.5539,15.8932 40.9649,16.3752 43.1239,17.3242 C45.2829,18.2752 47.1519,19.5882 48.6749,21.2262 C50.2009,22.8692 51.4139,24.8722 52.2809,27.1802 C53.1489,29.4982 53.5889,32.0252 53.5889,34.6942 C53.5889,37.4832 53.1489,40.0862 52.2799,42.4312" id="Fill-3" fill="#0000FF" mask="url(#mask-2)"></path>
        </g>
        <polygon id="Fill-6" fill="#0000FF" points="120.6487 39.1122 144.2547 39.1122 144.2547 65.6652 160.7487 65.6652 160.7487 1.0002 144.2547 1.0002 144.2547 25.0412 120.6487 25.0412 120.6487 1.0002 104.1567 1.0002 104.1567 65.6652 120.6487 65.6652"></polygon>
        <g id="Group-10" transform="translate(167.000000, 0.306000)">
            <mask id="mask-4" fill="white">
                <use xlink:href="#path-3"></use>
            </mask>
            <g id="Clip-9"></g>
            <polygon id="Fill-8" fill="#0000FF" mask="url(#mask-4)" points="24.8801 65.3594 41.3731 65.3594 41.3731 38.0454 66.2741 0.6944 46.9221 0.6944 33.7101 23.6194 20.4971 0.6944 0.5311 0.6944 24.8801 38.0424"></polygon>
        </g>
        <g id="Group-13" transform="translate(0.000000, 0.306000)">
            <mask id="mask-6" fill="white">
                <use xlink:href="#path-5"></use>
            </mask>
            <g id="Clip-12"></g>
            <polygon id="Fill-11" fill="#0000FF" mask="url(#mask-6)" points="34.4758 65.3594 46.7378 23.4074 58.9988 65.3594 75.0268 65.3594 93.4758 0.6944 76.2908 0.6944 66.3598 41.7224 55.2978 0.6944 38.4458 0.6944 27.4758 41.7014 17.7238 0.6944 -0.0002 0.6944 18.3578 65.3594"></polygon>
        </g>
    </g>
</svg>